<?xml version="1.0" encoding="utf-8"?>
<!-- Generator: Adobe Illustrator 24.1.1, SVG Export Plug-In . SVG Version: 6.00 Build 0)  -->
<svg version="1.1" id="Layer_1" xmlns="http://www.w3.org/2000/svg" xmlns:xlink="http://www.w3.org/1999/xlink" x="0px" y="0px"
	 viewBox="0 0 156 110" style="enable-background:new 0 0 156 110;" xml:space="preserve">
<style type="text/css">
	.st0{fill:#FFF4D4;}
	.st1{fill:#3A3A3A;stroke:#000000;stroke-width:0.3906;stroke-miterlimit:10;}
	.st2{fill:#3A3A3A;}
</style>
<g>
	<path class="st0" d="M98.4,45.7c-0.2,0.1-0.3,0.2-0.5,0.3c0.1-0.1,0.1-0.3,0.2-0.4c1-2,0.9-4.5-0.8-6.1c-0.2-0.2-0.4-0.4-0.6-0.5
		c0.4-0.8,0.7-1.6,1-2.5c0.5-1.6,0.1-3.1-0.7-4.2c2.4-2.9,4-6.3,4.2-10.2c0.1-1.6-0.8-3.1-2.1-4c0.2-0.1,0.3-0.3,0.5-0.4
		c4.1-3.9-1.2-11.1-6.1-7.9c0,0-0.1,0-0.1,0.1c-0.6-2.5-3.2-4.5-6-4c0.2-1.6-0.3-3.2-1.4-4.3c-2-2-5.1-1.8-7.2,0
		C71.2,8.2,63.6,15,56.1,21.8c-1.9,1.7-1.9,4.8-0.4,6.6c1.3,1.6,3.2,2.2,5.2,1.8c-0.3,0.2-0.5,0.5-0.8,0.7c-2.8,2.8-1.1,7,1.8,8.3
		c-1.7,1.6-3.4,3.2-5.1,4.8c-2.9,2.7-1,7.3,2,8.5c-1.5,1.3-2.9,2.6-4.4,3.8c-0.9,0.8-1.8,1.6-2.7,2.3c-2,1.8-1.8,5.3,0,7.2
		c1.1,1.1,2.5,1.5,3.9,1.4c0,1.1,0.3,2.3,1.1,3.2c0.7,0.9,1.8,1.6,3,1.9c-0.2,0.3-0.3,0.5-0.5,0.8c-1.4,2.5-0.2,5.6,1.9,7
		c-0.8,0.7-1.5,1.4-2.3,2.1c-3.4,3.1-0.4,8.5,3.4,8.7c-0.2,1.5,0.3,3.1,1.4,4.2c1.2,1.2,2.8,1.6,4.3,1.4c0.7,1.5,2,2.7,3.5,3.2
		c0,0.1,0,0.2,0,0.2c-0.5,0.4-1,0.9-1.5,1.3c-2.1,1.8-1.8,5.3,0,7.2c2,2,5.1,1.8,7.2,0c3.5-3.1,6.8-6.4,9.8-9.9
		c1.3-1.5,1.8-3.5,1.1-5.3c1.3-1.8,2.7-3.5,4-5.3c1.2-1.6,1.1-3.4,0.2-4.9c1.6-1.7,3.2-3.5,4.7-5.3c2.1-2.5,1.5-5.7-0.4-7.3
		c1.9-1.8,3.8-3.6,5.7-5.5c2.7-2.6,1.3-6.6-1.4-8.1c1.2-1.1,2.3-2.2,3.5-3.2C108.6,49.8,103.1,42.4,98.4,45.7z"/>
	<g>
		<g>
			<path class="st1" d="M5.5,60.4c0.3,0.1,0.6,0.2,0.8,0.3c0.2,0.1,0.4,0.3,0.5,0.5c0.1,0.2,0.2,0.4,0.3,0.6c0,0.2,0.1,0.4,0.1,0.6
				c0,0.3-0.1,0.6-0.2,0.8c-0.1,0.3-0.3,0.5-0.5,0.7c-0.2,0.2-0.5,0.4-0.9,0.5c-0.4,0.1-0.8,0.2-1.4,0.2h-4c0,0-0.1,0-0.1,0
				c0,0,0,0,0-0.1c0,0,0,0,0-0.1c0,0,0,0,0.1,0c0,0,0.1,0,0.2-0.1c0.1,0,0.2-0.1,0.3-0.1C1,64.2,1,64.1,1.1,64s0.1-0.3,0.1-0.5v-5.9
				c0-0.2,0-0.3-0.1-0.5C1,57,1,56.9,0.8,56.8s-0.2-0.1-0.3-0.1c-0.1,0-0.2,0-0.2-0.1c0,0-0.1,0-0.1,0c0,0,0,0,0-0.1c0,0,0,0,0-0.1
				c0,0,0.1,0,0.1,0h4.2c0.4,0,0.8,0.1,1.1,0.2c0.3,0.1,0.5,0.2,0.7,0.4c0.2,0.2,0.3,0.4,0.4,0.6c0.1,0.2,0.1,0.5,0.1,0.8
				c0,0.2,0,0.4-0.1,0.6c0,0.2-0.1,0.4-0.2,0.5c-0.1,0.2-0.2,0.3-0.4,0.5C6,60.1,5.8,60.2,5.5,60.4C5.5,60.3,5.5,60.4,5.5,60.4
				C5.5,60.4,5.5,60.4,5.5,60.4z M3.2,59.9c0,0.1,0,0.2,0.1,0.3c0.1,0.1,0.2,0.1,0.3,0.1c0.1,0,0.2,0,0.3-0.1c0.1,0,0.2-0.1,0.4-0.3
				c0.1-0.1,0.2-0.3,0.3-0.6c0.1-0.3,0.1-0.6,0.1-1c0-0.2,0-0.4,0-0.5c0-0.2,0-0.3-0.1-0.5c-0.1-0.1-0.1-0.3-0.2-0.4
				c-0.1-0.1-0.2-0.1-0.4-0.1c-0.1,0-0.3,0-0.4,0.1c-0.1,0.1-0.2,0.1-0.2,0.2s-0.1,0.2-0.1,0.4c0,0.2,0,0.4,0,0.6V59.9z M4,64.3
				c0.2,0,0.3,0,0.4-0.1c0.1-0.1,0.2-0.2,0.3-0.3c0.1-0.1,0.1-0.2,0.2-0.4c0-0.1,0.1-0.3,0.1-0.4c0-0.1,0-0.3,0-0.4
				c0-0.1,0-0.2,0-0.3c0-0.3,0-0.6-0.1-0.8c0-0.2-0.1-0.4-0.2-0.5c-0.1-0.1-0.2-0.2-0.3-0.3c-0.1-0.1-0.2-0.1-0.3-0.2
				S4,60.6,3.9,60.6c-0.1,0-0.2,0-0.2,0c-0.1,0-0.2,0-0.3,0.1c-0.1,0.1-0.1,0.2-0.1,0.3v1.9c0,0.2,0,0.4,0,0.6
				c0,0.2,0.1,0.3,0.1,0.5c0.1,0.1,0.1,0.2,0.2,0.3C3.7,64.2,3.9,64.3,4,64.3z"/>
			<path class="st1" d="M16.1,63.8c0,0,0.1,0,0.1,0c0,0,0.1,0.1,0,0.1c0,0.1-0.1,0.2-0.2,0.3c-0.1,0.1-0.2,0.2-0.3,0.3
				c-0.1,0.1-0.3,0.1-0.4,0.2c-0.2,0-0.3,0.1-0.5,0.1c-0.1,0-0.3,0-0.4,0c-0.1,0-0.3-0.1-0.4-0.1c-0.1-0.1-0.3-0.2-0.4-0.3
				s-0.2-0.3-0.3-0.4c-0.1-0.1-0.1-0.3-0.1-0.5c0-0.2-0.1-0.4-0.1-0.6c0-0.5-0.1-0.8-0.2-1.1c-0.1-0.3-0.2-0.5-0.3-0.6
				c-0.1-0.1-0.2-0.2-0.3-0.3c-0.1,0-0.2-0.1-0.3-0.1c-0.1,0-0.2,0-0.3,0.1c-0.1,0.1-0.1,0.1-0.1,0.3v2.4c0,0.2,0,0.3,0.1,0.5
				c0.1,0.1,0.2,0.2,0.3,0.3c0.1,0.1,0.2,0.1,0.3,0.1c0.1,0,0.2,0,0.2,0.1c0,0,0.1,0,0.1,0c0,0,0,0,0,0.1c0,0,0,0,0,0.1
				s-0.1,0-0.1,0H8.8c0,0-0.1,0-0.1,0c0,0,0,0,0-0.1c0,0,0,0,0-0.1c0,0,0,0,0.1,0c0,0,0.1,0,0.2-0.1c0.1,0,0.2-0.1,0.3-0.1
				c0.1-0.1,0.2-0.2,0.3-0.3c0.1-0.1,0.1-0.3,0.1-0.5v-5.9c0-0.2,0-0.3-0.1-0.5c-0.1-0.1-0.2-0.2-0.3-0.3S9.1,56.7,9,56.7
				c-0.1,0-0.2,0-0.2-0.1c0,0-0.1,0-0.1,0c0,0,0,0,0-0.1c0,0,0,0,0-0.1c0,0,0.1,0,0.1,0h3.7c0.2,0,0.5,0,0.7,0c0.2,0,0.4,0,0.7,0.1
				c0.2,0,0.4,0.1,0.6,0.2c0.2,0.1,0.4,0.2,0.6,0.4c0.1,0.1,0.3,0.3,0.4,0.5c0.1,0.2,0.2,0.4,0.2,0.6c0,0.2,0,0.4,0,0.6
				c0,0.2-0.1,0.4-0.2,0.6c-0.1,0.3-0.3,0.6-0.6,0.7c-0.2,0.2-0.5,0.3-0.8,0.4c0,0-0.1,0-0.1,0c0,0,0,0,0,0c0,0,0.1,0,0.2,0
				c0.1,0,0.2,0.1,0.3,0.1c0.1,0,0.2,0.1,0.3,0.2c0.1,0.1,0.2,0.2,0.3,0.3c0.1,0.1,0.1,0.3,0.2,0.6s0.1,0.5,0.1,0.7
				c0,0.3,0,0.5,0.1,0.7c0,0.2,0.1,0.3,0.1,0.4c0,0.1,0.1,0.1,0.1,0.2c0.1,0,0.1,0.1,0.2,0.1c0.1,0,0.1,0,0.2,0
				C16,63.9,16,63.9,16.1,63.8z M11.8,60.4c0.1,0,0.2,0,0.3,0c0.1,0,0.3,0,0.4-0.1c0.1,0,0.2-0.1,0.4-0.2c0.1-0.1,0.2-0.2,0.3-0.4
				c0.1-0.2,0.2-0.3,0.2-0.6c0.1-0.2,0.1-0.5,0.1-0.8c0-0.3,0-0.5-0.1-0.7c0-0.2-0.1-0.4-0.2-0.5c-0.1-0.1-0.2-0.2-0.3-0.3
				c-0.1-0.1-0.3-0.1-0.4-0.1c-0.1,0-0.3,0-0.4,0.1c-0.1,0-0.2,0.1-0.3,0.2c-0.1,0.1-0.1,0.2-0.2,0.3c0,0.1-0.1,0.3-0.1,0.4v2.5
				C11.7,60.3,11.7,60.4,11.8,60.4z"/>
			<path class="st1" d="M21.8,64.4C21.8,64.4,21.8,64.4,21.8,64.4c0.1,0.1,0.1,0.1,0.1,0.1c0,0,0,0,0,0.1s-0.1,0-0.1,0h-3.9
				c0,0-0.1,0-0.1,0c0,0,0,0,0-0.1c0,0,0,0,0-0.1c0,0,0,0,0.1,0c0,0,0.1,0,0.2-0.1c0.1,0,0.2-0.1,0.3-0.1c0.1-0.1,0.2-0.2,0.3-0.3
				c0.1-0.1,0.1-0.3,0.1-0.5v-5.9c0-0.2,0-0.3-0.1-0.5c-0.1-0.1-0.2-0.2-0.3-0.3c-0.1-0.1-0.2-0.1-0.3-0.1c-0.1,0-0.2,0-0.2-0.1
				c0,0-0.1,0-0.1,0c0,0,0,0,0-0.1c0,0,0,0,0-0.1c0,0,0.1,0,0.1,0h3.9c0,0,0.1,0,0.1,0c0,0,0,0,0,0.1c0,0,0,0,0,0.1c0,0,0,0-0.1,0
				c0,0-0.1,0-0.2,0.1c-0.1,0-0.2,0.1-0.3,0.1C21.1,56.9,21,57,21,57.1c-0.1,0.1-0.1,0.3-0.1,0.5v5.9c0,0.2,0,0.3,0.1,0.5
				c0.1,0.1,0.2,0.2,0.3,0.3c0.1,0.1,0.2,0.1,0.3,0.1C21.7,64.4,21.7,64.4,21.8,64.4z"/>
			<path class="st1" d="M23.5,60.6c0-0.4,0.1-0.8,0.2-1.1c0.1-0.4,0.3-0.7,0.4-1c0.2-0.3,0.4-0.6,0.7-0.9c0.3-0.3,0.6-0.5,0.9-0.7
				c0.3-0.2,0.7-0.3,1.1-0.4c0.4-0.1,0.8-0.2,1.2-0.2c0.3,0,0.7,0,0.9,0.1c0.3,0.1,0.5,0.1,0.7,0.2c0.2,0.1,0.4,0.1,0.5,0.2
				c0.1,0.1,0.2,0.1,0.2,0.1c0,0,0.1,0.1,0.1,0.1v1.3c0,0,0,0.1,0,0.1c0,0,0,0-0.1,0c0,0,0,0-0.1,0c0,0,0,0,0-0.1
				c-0.1-0.2-0.2-0.4-0.3-0.6c-0.1-0.2-0.3-0.4-0.4-0.5c-0.2-0.2-0.4-0.3-0.6-0.4c-0.2-0.1-0.5-0.2-0.8-0.2c-0.4,0-0.7,0.1-1,0.3
				c-0.3,0.2-0.5,0.5-0.7,0.8c-0.2,0.4-0.3,0.8-0.4,1.2c-0.1,0.5-0.1,1-0.1,1.5c0,0.5,0,1,0.1,1.5c0.1,0.5,0.2,0.9,0.4,1.2
				c0.2,0.4,0.4,0.6,0.6,0.8c0.2,0.2,0.5,0.3,0.9,0.3c0.3,0,0.6-0.1,0.7-0.2c0.2-0.1,0.3-0.3,0.4-0.5C29,63.5,29,63.3,29,63
				c0-0.3,0-0.5,0-0.8v-0.5c0-0.2,0-0.3-0.1-0.4c-0.1-0.1-0.2-0.2-0.3-0.3c-0.1-0.1-0.2-0.1-0.3-0.1c-0.1,0-0.2,0-0.2-0.1
				c0,0-0.1,0-0.1,0c0,0,0,0,0-0.1c0,0,0,0,0-0.1c0,0,0.1,0,0.1,0h2.7c0.1,0,0.1,0,0.1,0.1s0.1,0.1,0.1,0.1v3.1c0,0.1,0,0.1,0,0.1
				c0,0-0.1,0.1-0.1,0.1c-0.3,0.1-0.6,0.2-0.8,0.3c-0.3,0.1-0.5,0.2-0.8,0.2c-0.2,0.1-0.5,0.1-0.8,0.1s-0.6,0.1-0.9,0.1
				c-0.6,0-1.2-0.1-1.7-0.3c-0.5-0.2-1-0.5-1.3-0.9c-0.4-0.4-0.7-0.8-0.9-1.3C23.6,61.7,23.5,61.2,23.5,60.6z"/>
			<path class="st1" d="M41.4,64.4C41.4,64.4,41.5,64.4,41.4,64.4c0.1,0.1,0.1,0.1,0.1,0.1c0,0,0,0,0,0.1c0,0-0.1,0-0.1,0h-3.9
				c0,0-0.1,0-0.1,0c0,0,0,0,0-0.1c0,0,0,0,0-0.1c0,0,0,0,0.1,0c0,0,0.1,0,0.2-0.1c0.1,0,0.2-0.1,0.3-0.1c0.1-0.1,0.2-0.2,0.3-0.3
				c0.1-0.1,0.1-0.3,0.1-0.5v-2.9h-2.6v2.9c0,0.2,0,0.3,0.1,0.5c0.1,0.1,0.2,0.2,0.3,0.3c0.1,0.1,0.2,0.1,0.3,0.1
				c0.1,0,0.2,0,0.2,0.1c0,0,0.1,0,0.1,0c0,0,0,0,0,0.1c0,0,0,0,0,0.1c0,0-0.1,0-0.1,0h-3.9c0,0-0.1,0-0.1,0c0,0,0,0,0-0.1
				c0,0,0,0,0-0.1c0,0,0,0,0.1,0c0,0,0.1,0,0.2-0.1c0.1,0,0.2-0.1,0.3-0.1c0.1-0.1,0.2-0.2,0.3-0.3c0.1-0.1,0.1-0.3,0.1-0.5v-5.9
				c0-0.2,0-0.3-0.1-0.5c-0.1-0.1-0.2-0.2-0.3-0.3s-0.2-0.1-0.3-0.1c-0.1,0-0.2,0-0.2-0.1c0,0-0.1,0-0.1,0c0,0,0,0,0-0.1
				c0,0,0,0,0-0.1c0,0,0.1,0,0.1,0h3.9c0,0,0.1,0,0.1,0c0,0,0,0,0,0.1c0,0,0,0,0,0.1c0,0,0,0-0.1,0c0,0-0.1,0-0.2,0.1
				c-0.1,0-0.2,0.1-0.3,0.1C36.1,56.9,36,57,36,57.1c-0.1,0.1-0.1,0.3-0.1,0.5v2.6h2.6v-2.6c0-0.2,0-0.3-0.1-0.5
				c-0.1-0.1-0.2-0.2-0.3-0.3s-0.2-0.1-0.3-0.1c-0.1,0-0.2,0-0.2-0.1c0,0-0.1,0-0.1,0c0,0,0,0,0-0.1c0,0,0,0,0-0.1c0,0,0.1,0,0.1,0
				h3.9c0,0,0.1,0,0.1,0c0,0,0,0,0,0.1c0,0,0,0,0,0.1c0,0,0,0-0.1,0c0,0-0.1,0-0.2,0.1s-0.2,0.1-0.3,0.1c-0.1,0.1-0.2,0.2-0.3,0.3
				c-0.1,0.1-0.1,0.3-0.1,0.5v5.9c0,0.2,0,0.3,0.1,0.5s0.2,0.2,0.3,0.3c0.1,0.1,0.2,0.1,0.3,0.1C41.3,64.4,41.4,64.4,41.4,64.4z"/>
			<path class="st1" d="M50.2,56.6v1.7c0,0.1,0,0.1-0.1,0.1c-0.1,0-0.1,0-0.1-0.1c0,0,0-0.1-0.1-0.2c0-0.1-0.1-0.2-0.2-0.3
				c-0.1-0.1-0.2-0.2-0.3-0.3c-0.1-0.1-0.2-0.2-0.4-0.3C49,57,48.8,57,48.7,56.9c-0.2-0.1-0.4-0.1-0.6-0.1c-0.1,0-0.2,0-0.2,0
				c-0.1,0-0.1,0.1-0.2,0.1c0,0.1-0.1,0.1-0.1,0.2c0,0.1,0,0.1,0,0.2v6.1c0,0.2,0,0.3,0.1,0.5s0.2,0.2,0.3,0.3
				c0.1,0.1,0.2,0.1,0.3,0.1c0.1,0,0.2,0,0.2,0.1c0,0,0.1,0,0.1,0c0,0,0,0,0,0.1c0,0,0,0,0,0.1c0,0-0.1,0-0.1,0h-3.9
				c0,0-0.1,0-0.1,0c0,0,0,0,0-0.1c0,0,0,0,0-0.1c0,0,0,0,0.1,0c0,0,0.1,0,0.2-0.1c0.1,0,0.2-0.1,0.3-0.1c0.1-0.1,0.2-0.2,0.3-0.3
				c0.1-0.1,0.1-0.3,0.1-0.5c0,0,0-0.1,0-0.3c0-0.2,0-0.4,0-0.6c0-0.3,0-0.6,0-0.9c0-0.3,0-0.7,0-1c0-0.3,0-0.7,0-1
				c0-0.3,0-0.6,0-0.9c0-0.3,0-0.5,0-0.7c0-0.2,0-0.3,0-0.4c0-0.1,0-0.2,0-0.3c0-0.1,0-0.2-0.1-0.3c0-0.1-0.1-0.1-0.2-0.2
				c-0.1,0-0.2-0.1-0.3-0.1c-0.2,0-0.4,0-0.6,0.1C44.3,57,44.1,57,44,57.1c-0.1,0.1-0.3,0.2-0.4,0.3c-0.1,0.1-0.2,0.2-0.3,0.3
				c-0.1,0.1-0.1,0.2-0.2,0.3c0,0.1-0.1,0.1-0.1,0.2c0,0.1-0.1,0.1-0.1,0.1c-0.1,0-0.1,0-0.1-0.1v-1.7c0-0.1,0-0.1,0.1-0.1h7.1
				C50.2,56.5,50.2,56.5,50.2,56.6z"/>
		</g>
		<g>
			<path class="st1" d="M106.2,63.2v-2.2c0-0.1,0-0.1,0.1-0.1c0,0,0.1,0,0.1,0.1c0.1,0.3,0.3,0.6,0.5,0.9s0.4,0.5,0.6,0.6
				c0.2,0.2,0.4,0.3,0.7,0.4c0.2,0.1,0.5,0.1,0.8,0.1c0.2,0,0.3,0,0.5-0.1c0.2-0.1,0.3-0.1,0.4-0.2c0.1-0.1,0.2-0.2,0.3-0.4
				c0.1-0.2,0.1-0.4,0.1-0.6c0-0.2,0-0.4-0.1-0.6c-0.1-0.2-0.2-0.3-0.3-0.5c-0.1-0.1-0.3-0.2-0.5-0.3c-0.2-0.1-0.4-0.2-0.5-0.3
				c-0.2-0.1-0.4-0.2-0.6-0.3c-0.2-0.1-0.4-0.2-0.6-0.3c-0.2-0.1-0.3-0.3-0.5-0.4c-0.2-0.2-0.3-0.3-0.4-0.5
				c-0.1-0.2-0.2-0.4-0.2-0.5c-0.1-0.2-0.1-0.4-0.1-0.6c0-0.3,0-0.6,0.2-0.9c0.1-0.3,0.3-0.6,0.5-0.8c0.2-0.2,0.5-0.4,0.9-0.6
				s0.8-0.2,1.4-0.2c0.3,0,0.6,0,0.9,0.1c0.2,0.1,0.5,0.1,0.6,0.2c0.2,0.1,0.3,0.1,0.4,0.2c0.1,0.1,0.1,0.1,0.2,0.1
				c0,0,0.1,0.1,0.1,0.1v1.1c0,0,0,0.1,0,0.1c0,0,0,0-0.1,0c0,0,0,0-0.1,0c0,0,0,0,0-0.1c-0.1-0.2-0.2-0.4-0.3-0.5
				c-0.1-0.2-0.2-0.3-0.4-0.5c-0.2-0.1-0.4-0.3-0.6-0.3c-0.2-0.1-0.5-0.1-0.8-0.1c-0.4,0-0.7,0.1-1,0.3c-0.2,0.2-0.4,0.5-0.4,0.8
				c0,0.2,0,0.4,0.1,0.5c0.1,0.1,0.2,0.3,0.3,0.4c0.2,0.1,0.4,0.3,0.6,0.4c0.3,0.1,0.6,0.3,1,0.4c0.4,0.2,0.7,0.3,1,0.5
				c0.3,0.2,0.5,0.4,0.7,0.6c0.2,0.2,0.3,0.5,0.4,0.7c0.1,0.3,0.1,0.6,0.1,1c0,0.4-0.1,0.7-0.2,1c-0.1,0.3-0.3,0.6-0.6,0.8
				c-0.3,0.2-0.6,0.4-1,0.5c-0.4,0.1-0.9,0.2-1.4,0.2c-0.3,0-0.7,0-1-0.1c-0.3-0.1-0.7-0.2-1-0.3c0,0-0.1,0-0.1,0
				c-0.1,0-0.1,0-0.2,0c-0.1,0-0.2,0-0.2,0.1c0,0.1-0.1,0.1-0.1,0.2c0,0.1-0.1,0.1-0.1,0.1S106.2,63.3,106.2,63.2z"/>
			<path class="st1" d="M120.9,60c0,0.5-0.1,1-0.2,1.5c-0.1,0.4-0.3,0.8-0.5,1.1c-0.2,0.3-0.5,0.5-0.9,0.7c-0.4,0.2-0.9,0.2-1.5,0.2
				c-0.6,0-1-0.1-1.4-0.2c-0.4-0.1-0.7-0.3-1-0.5c-0.3-0.2-0.4-0.6-0.6-0.9c-0.1-0.4-0.2-0.8-0.2-1.4v-4.2c0-0.2,0-0.3-0.1-0.5
				c-0.1-0.1-0.2-0.2-0.3-0.3c-0.1-0.1-0.2-0.1-0.3-0.1c-0.1,0-0.2,0-0.2-0.1c0,0-0.1,0-0.1,0c0,0,0,0,0-0.1c0,0,0,0,0-0.1
				s0.1,0,0.1,0h3.9c0,0,0.1,0,0.1,0s0,0,0,0.1c0,0,0,0,0,0.1c0,0,0,0-0.1,0c0,0-0.1,0-0.2,0.1s-0.2,0.1-0.3,0.1
				c-0.1,0.1-0.2,0.2-0.3,0.3c-0.1,0.1-0.1,0.3-0.1,0.5v4.6c0,0.7,0.1,1.2,0.4,1.6c0.3,0.4,0.8,0.5,1.4,0.5c0.1,0,0.2,0,0.3,0
				c0.1,0,0.2,0,0.3-0.1c0.1,0,0.2-0.1,0.3-0.1c0.1,0,0.2-0.1,0.2-0.1c0.2-0.1,0.3-0.3,0.4-0.5c0.1-0.2,0.2-0.4,0.2-0.6
				c0-0.2,0.1-0.5,0.1-0.7c0-0.2,0-0.5,0-0.7v-3.8c0-0.2,0-0.3-0.1-0.5c-0.1-0.1-0.2-0.2-0.3-0.3c-0.1-0.1-0.2-0.1-0.3-0.1
				s-0.2,0-0.2-0.1c0,0-0.1,0-0.1,0c0,0,0,0,0-0.1c0,0,0,0,0-0.1c0,0,0,0,0.1,0h2.4c0,0,0.1,0,0.1,0s0,0,0,0.1c0,0,0,0,0,0.1
				c0,0,0,0-0.1,0c0,0-0.1,0-0.2,0.1c-0.1,0-0.2,0.1-0.3,0.1s-0.2,0.2-0.3,0.3c-0.1,0.1-0.1,0.3-0.1,0.5V60z"/>
			<path class="st1" d="M131.4,55.1C131.4,55.2,131.4,55.2,131.4,55.1c0,0.1,0,0.1,0,0.1c0,0,0,0-0.1,0c0,0-0.1,0-0.2,0.1
				c-0.1,0-0.2,0.1-0.3,0.1c-0.1,0.1-0.2,0.2-0.3,0.3c-0.1,0.1-0.1,0.3-0.1,0.5v7c0,0.1,0,0.1-0.1,0.1c0,0-0.1,0-0.1,0
				c0,0-0.1-0.1-0.2-0.2c-0.1-0.1-0.2-0.3-0.4-0.5c-0.2-0.2-0.4-0.5-0.6-0.7c-0.2-0.3-0.5-0.6-0.7-0.9c-0.3-0.3-0.5-0.6-0.8-1
				c-0.3-0.3-0.5-0.6-0.8-1s-0.5-0.6-0.7-0.9c-0.2-0.3-0.4-0.5-0.6-0.7c-0.2-0.2-0.3-0.4-0.4-0.5s-0.2-0.2-0.2-0.2c0,0-0.1,0-0.1,0
				s0,0,0,0.1v5.3c0,0.2,0,0.3,0.1,0.5c0.1,0.1,0.2,0.2,0.3,0.3c0.1,0.1,0.2,0.1,0.3,0.1c0.1,0,0.2,0,0.2,0.1c0,0,0.1,0,0.1,0
				c0,0,0,0,0,0.1c0,0,0,0,0,0.1s0,0-0.1,0h-2.3c0,0-0.1,0-0.1,0c0,0,0,0,0-0.1c0,0,0,0,0-0.1c0,0,0,0,0.1,0c0,0,0.1,0,0.2-0.1
				c0.1,0,0.2-0.1,0.3-0.1c0.1-0.1,0.2-0.2,0.3-0.3c0.1-0.1,0.1-0.3,0.1-0.5v-5.9c0-0.2,0-0.3-0.1-0.5c-0.1-0.1-0.2-0.2-0.3-0.3
				c-0.1-0.1-0.2-0.1-0.3-0.1c-0.1,0-0.2,0-0.2-0.1c0,0-0.1,0-0.1,0c0,0,0,0,0-0.1c0,0,0,0,0-0.1c0,0,0,0,0.1,0h2.4
				c0.1,0,0.2,0,0.3,0.1c0.1,0.1,0.2,0.2,0.3,0.4c0.2,0.2,0.3,0.4,0.5,0.6c0.2,0.2,0.4,0.5,0.6,0.7c0.2,0.3,0.4,0.5,0.7,0.8
				c0.2,0.3,0.4,0.5,0.6,0.8c0.2,0.2,0.4,0.5,0.6,0.7c0.2,0.2,0.3,0.3,0.4,0.5c0.1,0.1,0.2,0.2,0.2,0.2c0,0,0.1,0,0.1,0s0,0,0-0.1
				v-3.6c0-0.2,0-0.3-0.1-0.5c-0.1-0.1-0.2-0.2-0.3-0.3c-0.1-0.1-0.2-0.1-0.3-0.1c-0.1,0-0.2,0-0.2-0.1c0,0-0.1,0-0.1,0
				c0,0,0,0,0-0.1c0,0,0,0,0-0.1s0.1,0,0.1,0L131.4,55.1C131.3,55.1,131.4,55.1,131.4,55.1z"/>
			<path class="st1" d="M133,63.2v-2.2c0-0.1,0-0.1,0.1-0.1c0,0,0.1,0,0.1,0.1c0.1,0.3,0.3,0.6,0.5,0.9s0.4,0.5,0.6,0.6
				c0.2,0.2,0.4,0.3,0.7,0.4c0.2,0.1,0.5,0.1,0.8,0.1c0.2,0,0.3,0,0.5-0.1c0.2-0.1,0.3-0.1,0.4-0.2c0.1-0.1,0.2-0.2,0.3-0.4
				c0.1-0.2,0.1-0.4,0.1-0.6c0-0.2,0-0.4-0.1-0.6c-0.1-0.2-0.2-0.3-0.3-0.5c-0.1-0.1-0.3-0.2-0.5-0.3s-0.4-0.2-0.5-0.3
				c-0.2-0.1-0.4-0.2-0.6-0.3c-0.2-0.1-0.4-0.2-0.6-0.3c-0.2-0.1-0.3-0.3-0.5-0.4s-0.3-0.3-0.4-0.5c-0.1-0.2-0.2-0.4-0.2-0.5
				c-0.1-0.2-0.1-0.4-0.1-0.6c0-0.3,0-0.6,0.2-0.9c0.1-0.3,0.3-0.6,0.5-0.8c0.2-0.2,0.5-0.4,0.9-0.6s0.8-0.2,1.4-0.2
				c0.3,0,0.6,0,0.9,0.1c0.2,0.1,0.5,0.1,0.6,0.2c0.2,0.1,0.3,0.1,0.4,0.2c0.1,0.1,0.1,0.1,0.2,0.1c0,0,0.1,0.1,0.1,0.1v1.1
				c0,0,0,0.1,0,0.1c0,0,0,0-0.1,0c0,0,0,0-0.1,0c0,0,0,0,0-0.1c-0.1-0.2-0.2-0.4-0.3-0.5c-0.1-0.2-0.2-0.3-0.4-0.5
				s-0.4-0.3-0.6-0.3c-0.2-0.1-0.5-0.1-0.8-0.1c-0.4,0-0.7,0.1-1,0.3c-0.2,0.2-0.4,0.5-0.4,0.8c0,0.2,0,0.4,0.1,0.5
				c0.1,0.1,0.2,0.3,0.3,0.4c0.2,0.1,0.4,0.3,0.6,0.4c0.3,0.1,0.6,0.3,1,0.4c0.4,0.2,0.7,0.3,1,0.5c0.3,0.2,0.5,0.4,0.7,0.6
				c0.2,0.2,0.3,0.5,0.4,0.7c0.1,0.3,0.1,0.6,0.1,1c0,0.4-0.1,0.7-0.2,1c-0.1,0.3-0.3,0.6-0.6,0.8c-0.3,0.2-0.6,0.4-1,0.5
				c-0.4,0.1-0.9,0.2-1.4,0.2c-0.3,0-0.7,0-1-0.1c-0.3-0.1-0.7-0.2-1-0.3c0,0-0.1,0-0.1,0c-0.1,0-0.1,0-0.2,0c-0.1,0-0.2,0-0.2,0.1
				c0,0.1-0.1,0.1-0.1,0.2c0,0.1-0.1,0.1-0.1,0.1S133,63.3,133,63.2z"/>
			<path class="st1" d="M147,61.5c0-0.1,0.1-0.1,0.1-0.1c0.1,0,0.1,0,0.1,0.1v1.6c0,0.1,0,0.1-0.1,0.1h-6.4c0,0-0.1,0-0.1,0
				s0,0,0-0.1c0,0,0,0,0-0.1c0,0,0,0,0.1,0c0,0,0.1,0,0.2-0.1c0.1,0,0.2-0.1,0.3-0.1c0.1-0.1,0.2-0.2,0.3-0.3
				c0.1-0.1,0.1-0.3,0.1-0.5v-5.9c0-0.2,0-0.3-0.1-0.5c-0.1-0.1-0.2-0.2-0.3-0.3c-0.1-0.1-0.2-0.1-0.3-0.1c-0.1,0-0.2,0-0.2-0.1
				c0,0-0.1,0-0.1,0c0,0,0,0,0-0.1c0,0,0,0,0-0.1s0.1,0,0.1,0h5.9c0.1,0,0.1,0,0.1,0.1v1.3c0,0.1,0,0.1-0.1,0.1c0,0-0.1,0-0.1-0.1
				c0-0.1-0.1-0.1-0.1-0.3c-0.1-0.1-0.2-0.2-0.3-0.4c-0.1-0.1-0.3-0.2-0.5-0.3c-0.2-0.1-0.4-0.1-0.7-0.1c-0.2,0-0.4,0-0.5,0
				c-0.2,0-0.3,0.1-0.4,0.2c-0.1,0.1-0.2,0.2-0.3,0.3c-0.1,0.1-0.1,0.2-0.1,0.4v2.6v-0.1c0,0,0,0,0,0.1c0,0,0,0,0.1,0h0.8
				c0.2,0,0.3,0,0.4-0.1c0.1-0.1,0.2-0.2,0.3-0.3c0.1-0.1,0.1-0.2,0.1-0.3c0-0.1,0-0.2,0.1-0.2c0,0,0-0.1,0-0.1c0,0,0,0,0.1,0
				c0,0,0,0,0.1,0c0,0,0,0,0,0.1v2.1c0,0,0,0.1,0,0.1c0,0,0,0-0.1,0c0,0,0,0-0.1,0c0,0,0,0,0-0.1c0,0,0-0.1-0.1-0.2
				c0-0.1-0.1-0.2-0.1-0.3c-0.1-0.1-0.2-0.2-0.3-0.3c-0.1-0.1-0.3-0.1-0.4-0.1h-0.8c0,0,0,0-0.1,0c0,0,0,0,0,0.1v-0.1V62
				c0,0.3,0.1,0.5,0.4,0.7c0.2,0.1,0.6,0.2,1.1,0.2c0.2,0,0.4,0,0.6-0.1c0.2-0.1,0.3-0.1,0.5-0.2c0.1-0.1,0.3-0.2,0.4-0.3
				c0.1-0.1,0.2-0.2,0.3-0.3c0.1-0.1,0.1-0.2,0.2-0.3C146.9,61.6,147,61.6,147,61.5z"/>
			<path class="st1" d="M155.8,55.2v1.7c0,0.1,0,0.1-0.1,0.1c-0.1,0-0.1,0-0.1-0.1c0,0,0-0.1-0.1-0.2c0-0.1-0.1-0.2-0.2-0.3
				c-0.1-0.1-0.2-0.2-0.3-0.3c-0.1-0.1-0.2-0.2-0.4-0.3c-0.1-0.1-0.3-0.2-0.5-0.2c-0.2-0.1-0.4-0.1-0.6-0.1c-0.1,0-0.2,0-0.2,0
				c-0.1,0-0.1,0.1-0.2,0.1c0,0.1-0.1,0.1-0.1,0.2c0,0.1,0,0.1,0,0.2v6.1c0,0.2,0,0.3,0.1,0.5c0.1,0.1,0.2,0.2,0.3,0.3
				c0.1,0.1,0.2,0.1,0.3,0.1c0.1,0,0.2,0,0.2,0.1c0,0,0.1,0,0.1,0c0,0,0,0,0,0.1c0,0,0,0,0,0.1c0,0,0,0-0.1,0h-3.9c0,0-0.1,0-0.1,0
				s0,0,0-0.1c0,0,0,0,0-0.1c0,0,0,0,0.1,0c0,0,0.1,0,0.2-0.1c0.1,0,0.2-0.1,0.3-0.1c0.1-0.1,0.2-0.2,0.3-0.3
				c0.1-0.1,0.1-0.3,0.1-0.5c0,0,0-0.1,0-0.3c0-0.2,0-0.4,0-0.6c0-0.3,0-0.6,0-0.9c0-0.3,0-0.7,0-1c0-0.3,0-0.7,0-1
				c0-0.3,0-0.6,0-0.9c0-0.3,0-0.5,0-0.7c0-0.2,0-0.3,0-0.4c0-0.1,0-0.2,0-0.3c0-0.1,0-0.2-0.1-0.3c0-0.1-0.1-0.1-0.2-0.2
				c-0.1,0-0.2-0.1-0.3-0.1c-0.2,0-0.4,0-0.6,0.1s-0.3,0.1-0.5,0.2c-0.1,0.1-0.3,0.2-0.4,0.3c-0.1,0.1-0.2,0.2-0.3,0.3
				c-0.1,0.1-0.1,0.2-0.2,0.3c0,0.1-0.1,0.1-0.1,0.2c0,0.1-0.1,0.1-0.1,0.1c-0.1,0-0.1,0-0.1-0.1v-1.7c0-0.1,0-0.1,0.1-0.1h7.1
				C155.8,55.1,155.8,55.1,155.8,55.2z"/>
		</g>
		<g>
			<path class="st2" d="M42.4,85.3c0.3,0.4,0.4,0.8,0.4,1.2c-0.1,0.4-0.3,0.7-0.7,1c-0.2,0.1-0.4,0.2-0.7,0.2c-0.2,0-0.5,0-0.7-0.2
				c-0.2-0.1-0.5-0.3-0.7-0.6l0.3-0.2c0.1,0.2,0.2,0.3,0.3,0.5c0.1,0.2,0.1,0.4,0.1,0.7c0,0.2,0,0.5-0.1,0.7
				c-0.1,0.2-0.3,0.4-0.6,0.6c-0.3,0.2-0.6,0.3-0.8,0.4c-0.3,0-0.5,0-0.7-0.1c-0.2-0.1-0.4-0.2-0.6-0.4c-0.2-0.2-0.3-0.3-0.4-0.5
				l-1.2-1.8c-0.1-0.1-0.1-0.2-0.1-0.3c0-0.1,0.1-0.2,0.2-0.3l4.2-2.9c0.1-0.1,0.2-0.1,0.3-0.1c0.1,0,0.2,0.1,0.3,0.2L42.4,85.3z
				 M39.6,87.1l-1-1.4l0.1,0l-1.7,1.1l0-0.1l1,1.5c0.2,0.2,0.4,0.4,0.6,0.5c0.2,0.1,0.5,0,0.7-0.2c0.2-0.2,0.4-0.3,0.4-0.5
				s0-0.3,0-0.5C39.8,87.4,39.7,87.2,39.6,87.1z M41.6,85.6l-1-1.4l0.2,0l-1.5,1l0-0.1l1,1.4c0.1,0.2,0.3,0.3,0.5,0.3
				c0.2,0.1,0.4,0,0.6-0.1c0.2-0.2,0.3-0.3,0.4-0.5C41.8,86,41.8,85.8,41.6,85.6z"/>
			<path class="st2" d="M44.9,88.5l2,2.2C47,90.8,47,90.9,47,91c0,0.1,0,0.2-0.1,0.3c-0.1,0.1-0.2,0.1-0.3,0.1
				c-0.1,0-0.2-0.1-0.3-0.2l-1.7-1.9l0.2,0l-1.4,1.3l0-0.1l1.5,1.6c0.1,0.1,0.1,0.2,0.1,0.3c0,0.1-0.1,0.2-0.1,0.3
				c-0.1,0.1-0.2,0.1-0.3,0.1c-0.1,0-0.2-0.1-0.3-0.1L42.7,91l0.1,0l-1.5,1.3l0-0.1l1.7,1.9c0.1,0.1,0.1,0.2,0.1,0.3
				c0,0.1,0,0.2-0.1,0.3c-0.1,0.1-0.2,0.1-0.3,0.1c-0.1,0-0.2-0.1-0.3-0.1l-2-2.2c-0.1-0.1-0.1-0.2-0.1-0.3c0-0.1,0.1-0.2,0.1-0.3
				l3.8-3.5c0.1-0.1,0.2-0.1,0.3-0.1C44.7,88.3,44.8,88.4,44.9,88.5z"/>
			<path class="st2" d="M49.4,94.4l-4.4,2.3c-0.1,0-0.2,0.1-0.3,0.1c-0.1,0-0.2,0-0.2-0.1c-0.1-0.1-0.1-0.2-0.1-0.3s0-0.2,0.1-0.3
				c0,0,0.1-0.1,0.1-0.1l5-2.7c0.1,0,0.2-0.1,0.3-0.1c0.1,0,0.2,0,0.2,0.1c0.1,0.1,0.1,0.1,0.1,0.2c0,0.1,0,0.2,0,0.3l-1.7,5.4
				c0,0.1,0,0.1-0.1,0.2c-0.1,0.1-0.2,0.1-0.3,0.2c-0.1,0-0.2,0-0.3-0.1c-0.1-0.1-0.1-0.1-0.1-0.2c0-0.1,0-0.2,0-0.3l1.5-4.8
				L49.4,94.4z M46,96l0.8-0.4l1.9,1.6l-0.4,0.7L46,96z"/>
			<path class="st2" d="M56.8,98.2c0.1,0.1,0.2,0.2,0.2,0.3c0,0.1,0,0.2-0.1,0.3l-1.7,2.8c-0.2,0.4-0.5,0.7-0.9,0.9
				c-0.4,0.2-0.7,0.3-1.1,0.3c-0.4,0-0.8-0.1-1.2-0.4c-0.4-0.2-0.7-0.5-0.9-0.9c-0.2-0.4-0.3-0.7-0.3-1.2c0-0.4,0.1-0.8,0.4-1.2
				l1.7-2.8c0.1-0.1,0.2-0.2,0.3-0.2c0.1,0,0.2,0,0.4,0.1c0.1,0.1,0.2,0.1,0.2,0.3c0,0.1,0,0.2,0,0.3L52,99.6
				c-0.2,0.3-0.2,0.5-0.2,0.8c0,0.3,0.1,0.5,0.2,0.7c0.1,0.2,0.3,0.4,0.5,0.5c0.2,0.1,0.5,0.2,0.7,0.2c0.3,0,0.5,0,0.7-0.2
				c0.2-0.1,0.4-0.3,0.6-0.6l1.7-2.8c0.1-0.1,0.2-0.2,0.3-0.2S56.7,98.1,56.8,98.2z"/>
			<path class="st2" d="M58.5,105.6c-0.1-0.1-0.2-0.1-0.3-0.2c0-0.1,0-0.2,0-0.3l2-4.7l0.8,0.4l-2,4.7c0,0.1-0.1,0.2-0.2,0.2
				C58.7,105.7,58.6,105.7,58.5,105.6z M58.7,100.1c-0.1,0-0.2-0.1-0.2-0.2c0-0.1,0-0.2,0-0.3c0-0.1,0.1-0.2,0.2-0.2
				c0.1,0,0.2,0,0.3,0l3.6,1.5c0.1,0,0.2,0.1,0.2,0.2c0,0.1,0,0.2,0,0.3c0,0.1-0.1,0.2-0.2,0.2c-0.1,0-0.2,0-0.3,0L58.7,100.1z"/>
			<path class="st2" d="M68.3,102.5c0.1,0,0.2,0.1,0.3,0.2c0.1,0.1,0.1,0.2,0,0.3c0,0,0,0.1-0.1,0.1c0,0-0.1,0.1-0.1,0.1l-2.6,2.2
				l0.3-0.5l-0.7,2.5c0,0.1-0.1,0.2-0.2,0.3c-0.1,0.1-0.2,0.1-0.3,0c-0.1,0-0.2-0.1-0.3-0.2c-0.1-0.1-0.1-0.2,0-0.3l0.7-2.5l0,0.3
				l-1.2-2.9c0-0.1,0-0.1,0-0.2c0-0.1,0-0.1,0-0.2c0-0.1,0.1-0.2,0.2-0.3c0.1-0.1,0.2-0.1,0.3,0c0.1,0,0.2,0.1,0.3,0.3l1.1,2.7
				l-0.2-0.1l2.2-1.8C68,102.5,68.1,102.4,68.3,102.5z"/>
			<path class="st2" d="M75.8,103.4c0.3,0,0.6,0.1,0.8,0.3c0.2,0.2,0.4,0.4,0.6,0.7c0.1,0.3,0.2,0.6,0.2,1c0,0.3-0.1,0.7-0.3,0.9
				c-0.2,0.3-0.4,0.5-0.7,0.6c-0.3,0.2-0.5,0.2-0.9,0.2l-1.7-0.1l0.1-0.1l-0.1,2c0,0.1-0.1,0.2-0.1,0.3c-0.1,0.1-0.2,0.1-0.3,0.1
				c-0.1,0-0.2-0.1-0.3-0.1c-0.1-0.1-0.1-0.2-0.1-0.3l0.3-5.1c0-0.1,0.1-0.2,0.1-0.3c0.1-0.1,0.2-0.1,0.3-0.1L75.8,103.4z
				 M75.6,106.3c0.1,0,0.3,0,0.4-0.1c0.1-0.1,0.2-0.2,0.3-0.4c0.1-0.2,0.1-0.3,0.1-0.5c0-0.2,0-0.4-0.1-0.5
				c-0.1-0.2-0.2-0.3-0.3-0.4c-0.1-0.1-0.3-0.2-0.4-0.2l-1.7-0.1l0.1-0.1l-0.1,2.3l-0.1-0.1L75.6,106.3z"/>
			<path class="st2" d="M80.2,109.4c-0.1,0-0.3,0-0.4-0.1c-0.1-0.1-0.2-0.2-0.2-0.3l-0.5-5.1c0-0.1,0-0.2,0.1-0.3
				c0.1-0.1,0.2-0.1,0.3-0.2l2.4-0.2c0.3,0,0.6,0,0.9,0.1s0.5,0.3,0.7,0.6c0.2,0.3,0.3,0.5,0.3,0.9c0,0.2,0,0.4-0.1,0.7
				c-0.1,0.2-0.2,0.4-0.3,0.6c-0.1,0.2-0.3,0.3-0.5,0.4l-0.1-0.2c0.2,0,0.3,0.1,0.5,0.2c0.1,0.1,0.3,0.2,0.3,0.4
				c0.1,0.1,0.1,0.3,0.2,0.5c0,0.2,0.1,0.3,0.1,0.4c0,0.1,0.1,0.2,0.1,0.3c0,0.1,0.1,0.1,0.2,0.2c0.1,0,0.2,0.1,0.2,0.2
				c0,0.1,0,0.2,0,0.3c0,0.1-0.1,0.1-0.2,0.1c-0.1,0-0.2,0-0.2,0c-0.1,0-0.2,0-0.2,0c-0.1,0-0.2-0.1-0.3-0.2s-0.2-0.2-0.3-0.4
				c-0.1-0.2-0.1-0.4-0.2-0.7c0-0.1,0-0.3-0.1-0.4c-0.1-0.1-0.1-0.2-0.2-0.2c-0.1-0.1-0.2-0.1-0.3-0.1c-0.1,0-0.2,0-0.4,0l-1.8,0.2
				l0.1-0.2l0.2,2c0,0.1,0,0.2-0.1,0.3C80.4,109.3,80.3,109.4,80.2,109.4z M80.2,106.3l2-0.2c0.1,0,0.3-0.1,0.4-0.2
				c0.1-0.1,0.2-0.3,0.3-0.4s0.1-0.4,0.1-0.6c0-0.3-0.1-0.5-0.3-0.7c-0.2-0.2-0.4-0.2-0.6-0.2l-2,0.2l0.1-0.2l0.2,2.5L80.2,106.3z"
				/>
			<path class="st2" d="M91.5,104.3c0.1,0.4,0.1,0.8,0.1,1.2c0,0.4-0.2,0.8-0.3,1.1c-0.2,0.3-0.4,0.6-0.7,0.9
				c-0.3,0.2-0.7,0.4-1.1,0.5c-0.4,0.1-0.8,0.1-1.2,0.1c-0.4-0.1-0.7-0.2-1.1-0.4c-0.3-0.2-0.6-0.5-0.8-0.8
				c-0.2-0.3-0.4-0.7-0.5-1.1c-0.1-0.4-0.1-0.8-0.1-1.2c0-0.4,0.2-0.8,0.3-1.1c0.2-0.3,0.4-0.6,0.7-0.9c0.3-0.2,0.7-0.4,1.1-0.5
				c0.4-0.1,0.8-0.1,1.2-0.1c0.4,0.1,0.7,0.2,1.1,0.4c0.3,0.2,0.6,0.5,0.8,0.8S91.4,103.9,91.5,104.3z M90.6,104.5
				c-0.1-0.4-0.3-0.8-0.5-1c-0.2-0.3-0.5-0.5-0.9-0.6c-0.3-0.1-0.7-0.1-1.1,0c-0.4,0.1-0.7,0.3-0.9,0.5c-0.2,0.3-0.4,0.6-0.5,0.9
				c-0.1,0.4-0.1,0.8,0,1.2c0.1,0.4,0.3,0.8,0.5,1c0.2,0.3,0.5,0.5,0.9,0.6c0.3,0.1,0.7,0.1,1.1,0c0.4-0.1,0.7-0.3,0.9-0.5
				c0.2-0.3,0.4-0.6,0.5-0.9C90.7,105.3,90.7,104.9,90.6,104.5z"/>
			<path class="st2" d="M94.7,99.8c0.4-0.2,0.8-0.2,1.1-0.2c0.4,0,0.7,0.1,1,0.3c0.3,0.2,0.6,0.4,0.8,0.7c0.2,0.3,0.4,0.6,0.6,1
				c0.2,0.5,0.3,1,0.3,1.5c0,0.5-0.1,0.9-0.4,1.3c-0.2,0.4-0.6,0.7-1.1,0.9l-1.9,0.8c-0.1,0-0.2,0.1-0.3,0c-0.1,0-0.2-0.1-0.2-0.2
				l-2.1-4.7c-0.1-0.1-0.1-0.2,0-0.3c0-0.1,0.1-0.2,0.2-0.2L94.7,99.8z M96.7,104.6c0.4-0.2,0.6-0.4,0.8-0.7
				c0.2-0.3,0.2-0.6,0.2-0.9c0-0.3-0.1-0.7-0.3-1.1c-0.1-0.3-0.3-0.5-0.4-0.7c-0.2-0.2-0.4-0.4-0.6-0.5c-0.2-0.1-0.4-0.2-0.7-0.2
				c-0.2,0-0.5,0-0.8,0.1l-1.5,0.6l0-0.1l1.8,4.1l-0.1-0.1L96.7,104.6z"/>
			<path class="st2" d="M102.1,95.6c0.1-0.1,0.2-0.1,0.3-0.1c0.1,0,0.2,0.1,0.3,0.2l1.8,2.7c0.2,0.4,0.4,0.8,0.4,1.2
				c0,0.4-0.1,0.8-0.2,1.2c-0.2,0.4-0.5,0.7-0.9,0.9c-0.4,0.2-0.8,0.4-1.2,0.4c-0.4,0-0.8-0.1-1.2-0.3c-0.4-0.2-0.7-0.5-0.9-0.9
				l-1.8-2.7c-0.1-0.1-0.1-0.2-0.1-0.3c0-0.1,0.1-0.2,0.2-0.3c0.1-0.1,0.2-0.1,0.3-0.1c0.1,0,0.2,0.1,0.3,0.2l1.8,2.7
				c0.2,0.3,0.4,0.4,0.6,0.6c0.2,0.1,0.5,0.2,0.7,0.2c0.3,0,0.5-0.1,0.7-0.2c0.2-0.1,0.4-0.3,0.5-0.6c0.1-0.2,0.2-0.5,0.2-0.7
				c0-0.3-0.1-0.5-0.3-0.8l-1.8-2.7c-0.1-0.1-0.1-0.2-0.1-0.3C101.9,95.8,102,95.7,102.1,95.6z"/>
			<path class="st2" d="M107.5,91.6c0.1,0,0.3,0,0.4,0.1c0.1,0.1,0.2,0.2,0.2,0.3c0,0.1,0,0.2-0.1,0.3c-0.1,0.1-0.2,0.1-0.3,0.1
				c-0.2,0-0.4,0.1-0.5,0.2c-0.2,0.1-0.3,0.2-0.5,0.3c-0.2,0.2-0.4,0.4-0.6,0.7c-0.1,0.3-0.2,0.5-0.2,0.8c0,0.3,0,0.5,0.1,0.8
				c0.1,0.3,0.3,0.5,0.5,0.8c0.2,0.3,0.5,0.5,0.8,0.6c0.3,0.1,0.5,0.2,0.8,0.2c0.3,0,0.5,0,0.8-0.1c0.3-0.1,0.5-0.3,0.7-0.5
				c0.1-0.1,0.3-0.3,0.4-0.4c0.1-0.2,0.2-0.3,0.3-0.5c0-0.1,0.1-0.2,0.2-0.2c0.1-0.1,0.2-0.1,0.3,0c0.2,0,0.3,0.1,0.3,0.2
				c0.1,0.1,0.1,0.2,0,0.4c-0.1,0.2-0.1,0.3-0.2,0.5c-0.1,0.2-0.2,0.3-0.3,0.4c-0.1,0.1-0.2,0.3-0.4,0.4c-0.3,0.3-0.6,0.5-1,0.6
				c-0.4,0.1-0.7,0.2-1.1,0.2c-0.4,0-0.8-0.1-1.1-0.3c-0.4-0.2-0.7-0.5-1-0.8c-0.3-0.3-0.5-0.7-0.6-1.1c-0.1-0.4-0.2-0.8-0.2-1.2
				c0-0.4,0.1-0.8,0.3-1.1c0.2-0.4,0.4-0.7,0.8-1c0.2-0.2,0.4-0.3,0.7-0.5C107,91.8,107.2,91.7,107.5,91.6z"/>
			<path class="st2" d="M109.2,90.6c-0.1,0.1-0.2,0.1-0.3,0.2c-0.1,0-0.2,0-0.3-0.1c-0.1-0.1-0.1-0.2-0.1-0.3c0-0.1,0-0.2,0.1-0.3
				l2.5-3c0.1-0.1,0.2-0.1,0.3-0.2s0.2,0,0.3,0.1c0.1,0.1,0.1,0.2,0.1,0.3c0,0.1,0,0.2-0.1,0.3L109.2,90.6z M114.4,92.5
				c-0.1,0.1-0.2,0.2-0.3,0.2c-0.1,0-0.2,0-0.3-0.1l-3.9-3.4l0.6-0.7l3.9,3.4c0.1,0.1,0.1,0.2,0.2,0.3
				C114.5,92.3,114.5,92.4,114.4,92.5z"/>
			<path class="st2" d="M118.5,87.2c-0.2,0.3-0.5,0.6-0.7,0.8c-0.3,0.2-0.6,0.4-1,0.5c-0.1,0-0.1,0-0.2,0c-0.1,0-0.1,0-0.2-0.1
				c-0.1-0.1-0.2-0.1-0.2-0.3c0-0.1,0-0.2,0.1-0.3c0-0.1,0.1-0.1,0.2-0.2c0.3-0.1,0.5-0.2,0.8-0.3c0.2-0.1,0.4-0.3,0.6-0.6
				c0.1-0.2,0.2-0.4,0.2-0.6c0-0.2,0-0.4,0-0.5c0-0.2-0.1-0.3-0.3-0.4c-0.2-0.1-0.3-0.2-0.5-0.1c-0.2,0-0.4,0.1-0.6,0.2
				c-0.2,0.1-0.4,0.3-0.6,0.5c-0.2,0.2-0.4,0.4-0.6,0.5c-0.2,0.1-0.4,0.2-0.6,0.3c-0.2,0.1-0.4,0.1-0.6,0c-0.2,0-0.4-0.1-0.6-0.3
				c-0.3-0.2-0.5-0.4-0.6-0.7c-0.1-0.3-0.1-0.6-0.1-0.9c0.1-0.3,0.2-0.7,0.4-1c0.2-0.3,0.4-0.6,0.7-0.8c0.3-0.2,0.5-0.3,0.8-0.4
				c0.2-0.1,0.3,0,0.4,0c0.1,0.1,0.1,0.1,0.2,0.3c0,0.1,0,0.2,0,0.3c0,0.1-0.1,0.1-0.2,0.1c-0.1,0-0.3,0.1-0.4,0.2
				c-0.1,0.1-0.3,0.2-0.4,0.3c-0.1,0.1-0.3,0.2-0.3,0.4c-0.1,0.2-0.2,0.4-0.3,0.6c0,0.2,0,0.4,0,0.5c0,0.1,0.1,0.3,0.3,0.4
				c0.2,0.1,0.3,0.1,0.5,0.1c0.2,0,0.3-0.1,0.5-0.2c0.2-0.1,0.4-0.3,0.5-0.5c0.2-0.2,0.4-0.4,0.7-0.6c0.2-0.2,0.4-0.3,0.6-0.3
				c0.2-0.1,0.4-0.1,0.6-0.1c0.2,0,0.5,0.1,0.7,0.3c0.3,0.2,0.5,0.4,0.6,0.7c0.1,0.3,0.1,0.6,0.1,1
				C118.8,86.5,118.7,86.9,118.5,87.2z"/>
		</g>
		<g>
			<g>
				<path class="st2" d="M77.6,34.2c1.1,4.6,2.6,9.4,2.9,14.1c0.3,4.6-2,8.4-3.4,12.6c-1.4,4.1-1.1,8.3-0.9,12.5
					c0.2,5,0.4,10,0.6,14.9c0,0.3,0.5,0.3,0.5,0c-0.2-5-0.4-10-0.6-14.9c-0.2-4.9-0.3-9.5,1.5-14.1c1.5-3.9,3.2-7.4,2.8-11.7
					c-0.4-4.6-1.9-9.1-2.9-13.6C78,33.7,77.5,33.8,77.6,34.2L77.6,34.2z"/>
			</g>
			<g>
				<path class="st2" d="M78.1,34.1c-1.5-0.9-3-1.8-4.5-2.6c-0.9-0.5-1.8-1.1-2.8-1.2c-0.8-0.1-1.5,0.1-2.1,0.6
					C67,32,66,33.2,63.8,33.4c-0.3,0-0.3,0.5,0,0.5c2.1-0.1,3.2-1.1,4.8-2.3c2.6-2,6.9,1.6,9.2,3C78.1,34.8,78.4,34.3,78.1,34.1
					L78.1,34.1z"/>
			</g>
			<g>
				<path class="st2" d="M72.9,31.1c-2.1,0.1-3.2,1.9-4.1,3.6c-0.2,0.3,0.3,0.6,0.5,0.3c0.8-1.5,1.8-3.2,3.7-3.3
					C73.2,31.6,73.2,31,72.9,31.1L72.9,31.1z"/>
			</g>
			<g>
				<path class="st2" d="M78.3,34.1c-1.5-3-3.2-5.9-5.4-8.4c-0.8-0.9-1.5-1.2-2.8-1.4c-2-0.3-4-0.5-6-0.8c-0.3,0-0.3,0.5,0,0.5
					c1.6,0.2,3.1,0.4,4.7,0.6c0.8,0.1,1.7,0.1,2.4,0.4c1.1,0.4,1.8,1.5,2.4,2.4c1.6,2.2,3,4.5,4.2,7C78,34.7,78.5,34.4,78.3,34.1
					L78.3,34.1z"/>
			</g>
			<g>
				<path class="st2" d="M72,24.8c-0.1-0.6-0.3-1.3-0.6-1.8c-0.4-0.6-0.9-1.1-1.2-1.8c-0.1-0.3-0.6-0.2-0.5,0.1
					c0.2,0.6,0.5,1,0.9,1.4c0.5,0.7,0.8,1.4,0.9,2.2C71.6,25.3,72.1,25.1,72,24.8L72,24.8z"/>
			</g>
			<g>
				<path class="st2" d="M71.6,23.2c0-0.3,0.4-0.7,0.5-1c0.1-0.2,0.3-0.5,0.3-0.8c0.1-0.5,0.2-1.1,0.1-1.6c-0.1-0.3-0.6-0.2-0.5,0.1
					c0.1,0.7,0,1.4-0.3,2c-0.2,0.4-0.6,0.7-0.6,1.2C71,23.6,71.6,23.6,71.6,23.2L71.6,23.2z"/>
			</g>
			<g>
				<path class="st2" d="M74.8,28.2c-1-0.3-1.9-0.6-2.9-0.8c-0.8-0.2-1.8-0.5-2.6-0.4c-0.3,0-0.3,0.6,0,0.5c0.9-0.1,2,0.3,2.9,0.5
					c0.8,0.2,1.7,0.5,2.5,0.7C75,28.8,75.2,28.3,74.8,28.2L74.8,28.2z"/>
			</g>
			<g>
				<path class="st2" d="M76.3,30.5c0.4-1.2,0.5-2.4,0.3-3.6c-0.2-1.9-1-3.6-0.6-5.5c0.1-0.3-0.4-0.5-0.5-0.1
					c-0.6,3.1,1.2,6,0.3,9.1C75.7,30.7,76.2,30.8,76.3,30.5L76.3,30.5z"/>
			</g>
			<g>
				<path class="st2" d="M76.3,25.9c0.7-1.7,1.8-2.5,3.1-3.7c0.8-0.7,1.2-1.7,1.2-2.7c0-0.3-0.5-0.3-0.5,0c-0.1,1.9-1.5,2.5-2.6,3.7
					c-0.7,0.8-1.2,1.6-1.6,2.6C75.7,26.1,76.2,26.2,76.3,25.9L76.3,25.9z"/>
			</g>
			<g>
				<path class="st2" d="M77.9,23.9c0.8,0,1.5-0.1,2.3-0.2c0.3-0.1,0.2-0.6-0.1-0.5c-0.7,0.1-1.4,0.2-2.1,0.2
					C77.5,23.4,77.5,23.9,77.9,23.9L77.9,23.9z"/>
			</g>
			<g>
				<path class="st2" d="M77.3,32.2c1-1.8,3.2-2.2,4.4-3.9c1.3-1.8,1.7-4.6,2.1-6.7c0.1-0.3-0.4-0.5-0.5-0.1c-0.5,2.5-0.9,5.9-3,7.5
					c-1.2,1-2.6,1.5-3.4,2.9C76.7,32.2,77.1,32.5,77.3,32.2L77.3,32.2z"/>
			</g>
			<g>
				<path class="st2" d="M80.9,29.3c0.6-0.2,1.2-0.1,1.7,0.3c0.3,0.2,0.6,0.5,1,0.6c0.3,0.1,0.5-0.4,0.1-0.5
					c-0.5-0.2-0.9-0.6-1.5-0.8c-0.5-0.2-1.1-0.2-1.6-0.1C80.4,28.9,80.5,29.4,80.9,29.3L80.9,29.3z"/>
			</g>
			<g>
				<path class="st2" d="M82.9,25.8c1.1-0.2,2.4-0.1,3.5-0.6c0.3-0.1,0-0.6-0.3-0.5c-0.6,0.3-1.2,0.2-1.9,0.3
					c-0.5,0.1-1,0.1-1.5,0.2C82.4,25.4,82.6,25.9,82.9,25.8L82.9,25.8z"/>
			</g>
			<g>
				<path class="st2" d="M78.7,36.6c0.7-1.3,1.7-2.4,3-3.2c1.3-0.8,2.9-1,4.3-1.5c2.1-0.8,2.8-2.1,3.4-4.2c0.1-0.3-0.4-0.5-0.5-0.1
					c-0.5,1.9-1.1,3.1-3.1,3.9c-1.1,0.4-2.3,0.6-3.4,1.1c-1.8,0.8-3.2,2.1-4.1,3.8C78.1,36.6,78.5,36.9,78.7,36.6L78.7,36.6z"/>
			</g>
			<g>
				<path class="st2" d="M88.9,29.4c1.8-1.2,3.4-2.6,5-4.1c0.2-0.2-0.1-0.6-0.4-0.4c-1.5,1.5-3.2,2.8-4.9,4
					C88.4,29.1,88.6,29.6,88.9,29.4L88.9,29.4z"/>
			</g>
			<g>
				<path class="st2" d="M87,31.4c1.4,0.1,2.8,0.1,4.3,0c0.6,0,1.3,0,1.7-0.6c0.2-0.3-0.3-0.6-0.5-0.3c-0.3,0.6-2.1,0.4-2.7,0.4
					c-0.9,0-1.8,0-2.8-0.1C86.7,30.9,86.7,31.4,87,31.4L87,31.4z"/>
			</g>
			<g>
				<path class="st2" d="M84.4,32.6c1.8,0.6,3.7,1.3,5.5,1.9c0.3,0.1,0.5-0.4,0.1-0.5c-1.8-0.6-3.7-1.3-5.5-1.9
					C84.2,31.9,84.1,32.5,84.4,32.6L84.4,32.6z"/>
			</g>
			<g>
				<path class="st2" d="M80.2,34.4c1.4-0.2,2.2,0.4,3.2,1.2c0.7,0.4,1.3,0.7,2.1,0.5c0.3-0.1,0.2-0.6-0.1-0.5
					c-1.3,0.3-2.1-0.9-3.1-1.3c-0.7-0.3-1.4-0.4-2.1-0.3C79.9,33.9,79.9,34.4,80.2,34.4L80.2,34.4z"/>
			</g>
			<g>
				<path class="st2" d="M82.8,35.4c0.7,0.5,0.3,1.8,0.2,2.4c0,0.3,0.5,0.5,0.5,0.1c0.1-1,0.5-2.3-0.4-3
					C82.8,34.8,82.6,35.2,82.8,35.4L82.8,35.4z"/>
			</g>
			<path class="st2" d="M63.7,34.2c0,1-0.8,1.8-1.8,1.8c-1,0-1.8-0.8-1.8-1.8c0-1,0.8-1.8,1.8-1.8C62.9,32.4,63.7,33.2,63.7,34.2z"
				/>
			<path class="st2" d="M66.8,35.4c0.5-0.8,1.6-1.1,2.4-0.6c0.8,0.5,1.1,1.6,0.6,2.4c-0.5,0.8-1.6,1.1-2.4,0.6
				C66.5,37.3,66.2,36.2,66.8,35.4z"/>
			<path class="st2" d="M75.4,18.4c0.8-0.2,1.6,0.3,1.7,1.1c0.2,0.8-0.3,1.6-1.1,1.7c-0.8,0.2-1.6-0.3-1.7-1.1
				C74.2,19.3,74.7,18.6,75.4,18.4z"/>
			<path class="st2" d="M83.6,18.7c0.8-0.2,1.6,0.3,1.7,1.1s-0.3,1.6-1.1,1.7c-0.8,0.2-1.6-0.3-1.7-1.1S82.8,18.9,83.6,18.7z"/>
			<path class="st2" d="M86.7,33.9c0.8-0.2,1.6,0.3,1.7,1.1c0.2,0.8-0.3,1.6-1.1,1.7c-0.8,0.2-1.6-0.3-1.7-1.1
				C85.5,34.8,85.9,34.1,86.7,33.9z"/>
			<path class="st2" d="M82.5,37.8c0.8-0.2,1.6,0.3,1.7,1.1c0.2,0.8-0.3,1.6-1.1,1.7c-0.8,0.2-1.6-0.3-1.7-1.1
				C81.2,38.7,81.7,37.9,82.5,37.8z"/>
			<path class="st2" d="M91,33.2c0.8-0.2,1.6,0.3,1.7,1.1c0.2,0.8-0.3,1.6-1.1,1.7c-0.8,0.2-1.6-0.3-1.7-1.1
				C89.7,34.1,90.2,33.4,91,33.2z"/>
			<path class="st2" d="M71.9,17c0.8-0.2,1.6,0.3,1.7,1.1c0.2,0.8-0.3,1.6-1.1,1.7c-0.8,0.2-1.6-0.3-1.7-1.1
				C70.7,17.9,71.1,17.1,71.9,17z"/>
			<path class="st2" d="M67.3,25.8c0.8-0.2,1.6,0.3,1.7,1.1c0.2,0.8-0.3,1.6-1.1,1.7c-0.8,0.2-1.6-0.3-1.7-1.1
				C66.1,26.7,66.6,26,67.3,25.8z"/>
			<path class="st2" d="M60.3,23.3c0-1.1,0.9-2,2-2s2,0.9,2,2c0,1.1-0.9,2-2,2S60.3,24.4,60.3,23.3z"/>
			<circle class="st2" cx="68.4" cy="19.8" r="2"/>
			<path class="st2" d="M78.7,17.3c0-1.1,0.9-2,2-2c1.1,0,2,0.9,2,2c0,1.1-0.9,2-2,2C79.6,19.3,78.7,18.4,78.7,17.3z"/>
			<circle class="st2" cx="95.2" cy="23.7" r="2"/>
			<path class="st2" d="M92.4,29.3c0-1.1,0.9-2,2-2c1.1,0,2,0.9,2,2c0,1.1-0.9,2-2,2C93.3,31.3,92.4,30.4,92.4,29.3z"/>
			<path class="st2" d="M80.2,22.7c0.3-0.4,0.8-0.6,1.2-0.3c0.4,0.3,0.6,0.8,0.3,1.2c-0.3,0.4-0.8,0.6-1.2,0.3
				C80.1,23.6,80,23.1,80.2,22.7z"/>
			<path class="st2" d="M86.6,24.1c0.3-0.4,0.8-0.6,1.2-0.3c0.4,0.3,0.6,0.8,0.3,1.2c-0.3,0.4-0.8,0.6-1.2,0.3
				C86.5,25,86.3,24.5,86.6,24.1z"/>
			<path class="st2" d="M88.4,26.2c0.3-0.4,0.8-0.6,1.2-0.3s0.6,0.8,0.3,1.2c-0.3,0.4-0.8,0.6-1.2,0.3
				C88.2,27.2,88.1,26.6,88.4,26.2z"/>
			<path class="st2" d="M83.8,29.7c0.3-0.4,0.8-0.6,1.2-0.3c0.4,0.3,0.6,0.8,0.3,1.2c-0.3,0.4-0.8,0.6-1.2,0.3
				C83.6,30.7,83.5,30.1,83.8,29.7z"/>
			<g>
				<path class="st2" d="M77.2,80.2c0.5-4.4,3.7-7.5,6.3-10.9c1-1.3,1.8-2.7,2.5-4.2c0.7-1.8,1.3-3.9,2.7-5.2c0.4-0.4,0.1,0-0.1,0.3
					c-0.2,0.5-0.5,0.9-0.7,1.4c-0.3,0.8-0.6,1.5-0.8,2.4c-0.5,2.1-0.6,4.3-1.7,6.2c-1.1,1.9-2.5,3.6-3.9,5.3
					c-1.3,1.6-2.7,3.4-4.4,4.7C76.9,80.1,77,80.3,77.2,80.2c3-2.3,5.4-5.9,7.5-9c1.2-1.6,1.7-3.2,2.1-5.2c0.5-2.5,1.2-4.8,2.6-6.9
					c0.1-0.1-0.1-0.2-0.2-0.2c-1.2,1-2,2.2-2.6,3.6c-1,2.2-1.8,4.3-3.2,6.3c-2.6,3.6-5.9,6.7-6.5,11.3
					C76.9,80.4,77.2,80.4,77.2,80.2L77.2,80.2z"/>
			</g>
			<g>
				<path class="st2" d="M78.5,58.6c0.6-1.8,2.8-1.9,3.9-3.3c0.8-1,1.2-2.3,1.9-3.3c1-1.5,2.4-2.7,3.9-3.6c0.7-0.4,1.3-0.7,2-1
					c0.4-0.2,0.8-0.3,1.2-0.4c0.4-0.1,0.3-0.2-0.3,0.1c-2.6,1.5-3.8,4-5.1,6.5c-0.8,1.6-1.8,3.2-3.5,4c-1.4,0.7-3,0.5-4.3,1.5
					c-0.1,0.1,0,0.3,0.1,0.2c1.3-0.9,2.9-0.8,4.3-1.5c1.1-0.5,1.9-1.4,2.6-2.4c1-1.4,1.5-3,2.4-4.5c1.1-1.8,2.6-3.2,4.5-4.2
					c0.1-0.1,0-0.3-0.1-0.2c-3,0.8-5.7,2.5-7.7,5c-1.1,1.5-1.6,3.6-3.3,4.6c-1.2,0.7-2.4,1.1-2.8,2.5C78.2,58.6,78.4,58.7,78.5,58.6
					L78.5,58.6z"/>
			</g>
			<g>
				<path class="st2" d="M76.8,69.5c-0.2-3.8-2.5-7.3-3.6-10.9c-1.2-3.9-2.2-7.8-3.2-11.7c-0.1-0.2-0.3-0.1-0.4,0
					c-0.5,4.5-1,9.2,0.5,13.6c1.3,3.7,3.9,6.8,6.4,9.7c0.1,0.2,0.4-0.1,0.3-0.3c-2.5-2.9-5-5.9-6.3-9.6c-1.4-3.9-1.2-8.5-0.6-12.6
					c0.1-0.5-0.1-0.4,0,0c0.2,0.5,0.3,1,0.4,1.5c0.2,0.9,0.5,1.8,0.7,2.8c0.5,1.9,1,3.7,1.6,5.6c0.6,1.8,1.2,3.7,1.9,5.4
					c0.9,2.1,1.8,4,2,6.3C76.5,69.8,76.9,69.8,76.8,69.5L76.8,69.5z"/>
			</g>
		</g>
	</g>
</g>
</svg>
