<?xml version="1.0" encoding="utf-8"?>
<!-- Generator: Adobe Illustrator 24.1.1, SVG Export Plug-In . SVG Version: 6.00 Build 0)  -->
<svg version="1.1" id="Layer_1" xmlns="http://www.w3.org/2000/svg" xmlns:xlink="http://www.w3.org/1999/xlink" x="0px" y="0px"
	 viewBox="0 0 117.7 100" style="enable-background:new 0 0 117.7 100;" xml:space="preserve">
<style type="text/css">
	.st0{fill:#E7F3E2;}
	.st1{fill:#3A3A3A;}
	.st2{fill:#3A3A3A;stroke:#000000;stroke-width:0.5106;stroke-miterlimit:10;}
</style>
<g>
	<g>
		<g>
			<path class="st0" d="M35.3,18.3c-3.8-2.1-8.4,1.4-7.5,5.6c1,4.3,6.1,5.5,9.6,3.5c3.4-1.9,6.1-7.5,1.6-9.9c-3.7-2-8.2,1.4-10,4.5
				c-0.9,1.4-0.3,3.2,1.1,4.1c3.2,2.1,7.1,0.9,9.3-1.9c1-1.3,0.2-3.4-1.1-4.1c-1.5-0.9-3.1-0.2-4.1,1.1c0.2-0.2-0.4,0.1-0.2,0
				c-0.4,0.1-0.5,0-0.9-0.3c0.4,1.4,0.7,2.7,1.1,4.1c0.6-0.9,1.2-1.3,2.1-1.9c0.2-0.1,0.3-0.1,0.5-0.1c0.7,0.2,0.3-0.3-1.2-1.7
				c-0.2,0.1-0.4,0.5-0.6,0.6c-0.2,0.2-0.5,0.4-0.8,0.5c-0.1,0-0.6,0-0.5,0c0.2-0.1,0,0.8,0,0.9c-0.3,0.4-0.9,0.4-1.3,0.2
				C35.6,25.4,38.7,20.2,35.3,18.3L35.3,18.3z"/>
		</g>
		<g>
			<path class="st0" d="M66.8,2.2c-0.5,2.2-0.5,4.7,1.2,6.4c1.7,1.7,4.7,2,6.4,0.1C76,7,75.7,4.1,73.9,2.7c-1.1-0.9-2.7-1.1-4-0.4
				c-0.9,0.6-1.8,1.4-2.7,2.1c-1.2,1-1.1,3.2,0,4.2c1.3,1.2,2.9,1,4.2,0c0.7-0.5,1.4-1.1,2.1-1.6c-0.4,0.3-0.9,0.5-1.3,0.8
				c-1,0.2-2-0.1-2.5-0.9c-0.2-0.3-0.3-0.6-0.3-0.9c0,0,0,0.1,0,0.1c0-0.9,0.6-1.7,1.5-2c0.3-0.1,0.6-0.1,0.9,0
				c0.4,0.2,0.5,0.2,0.3,0.1c-0.2-0.1-0.1-0.1,0.2,0.2c-0.2-0.2-0.2-0.2,0,0c0.1,0.1,0.2,0.3,0.2,0.4c-0.1-0.3-0.1-0.3,0-0.1
				c0.1,0.6,0-0.8,0-0.2c0,0.2,0,0.2,0-0.1c0-0.2,0.1-0.3,0.1-0.5c0.4-1.5-0.5-3.3-2.1-3.7C69-0.2,67.2,0.6,66.8,2.2L66.8,2.2z"/>
		</g>
		<g>
			<path class="st0" d="M62.2,31.4c1.5,3,6.1,2.5,7.5-0.3c0.5-0.9,0.6-1.9,0.3-2.9c-0.3-1.2-1.4-2.1-2.6-2.5c-1.8-0.5-4,0.2-4.8,2
				c-0.4,0.7-0.5,1.5-0.3,2.3c0.2,0.7,0.7,1.5,1.4,1.8c1.3,0.7,3.4,0.4,4.1-1.1c0-0.1,0.1-0.1,0.1-0.2c-0.2,0.2-0.3,0.4-0.5,0.6
				c0.1-0.1,0.1-0.2,0.2-0.2c-0.2,0.2-0.4,0.3-0.6,0.5c0.1-0.1,0.2-0.1,0.3-0.2c-0.2,0.1-0.5,0.2-0.7,0.3c0.1,0,0.2-0.1,0.3-0.1
				c-0.3,0-0.5,0.1-0.8,0.1c0.1,0,0.2,0,0.3,0c-0.3,0-0.5-0.1-0.8-0.1c0.1,0,0.2,0,0.3,0.1c-0.2-0.1-0.5-0.2-0.7-0.3
				c0.1,0,0.1,0.1,0.2,0.1c-0.2-0.2-0.4-0.3-0.6-0.5c0.1,0,0.1,0.1,0.2,0.1c-0.3-0.4-0.5-0.9-0.8-1.3c0,0.1,0,0.1,0,0.2
				c0-0.3-0.1-0.5-0.1-0.8c0,0.1,0,0.2,0,0.3c0-0.3,0.1-0.5,0.1-0.8c0,0.1,0,0.2-0.1,0.2c0.1-0.2,0.2-0.5,0.3-0.7
				c0,0.1-0.1,0.1-0.1,0.2c0.2-0.2,0.3-0.4,0.5-0.6c-0.1,0.1-0.2,0.2-0.2,0.3c0.2-0.2,0.4-0.3,0.6-0.5c-0.1,0.1-0.2,0.2-0.4,0.2
				c0.2-0.1,0.5-0.2,0.7-0.3c-0.1,0.1-0.3,0.1-0.4,0.1c0.3,0,0.5-0.1,0.8-0.1c-0.1,0-0.3,0-0.4,0c0.3,0,0.5,0.1,0.8,0.1
				c-0.1,0-0.2,0-0.2-0.1c0.2,0.1,0.5,0.2,0.7,0.3c-0.1,0-0.1-0.1-0.2-0.1c0.2,0.2,0.4,0.3,0.6,0.5c-0.1-0.1-0.1-0.1-0.2-0.2
				c0.2,0.2,0.3,0.4,0.5,0.6c0,0-0.1-0.1-0.1-0.2c-0.7-1.4-2.8-1.9-4.1-1.1C61.9,28.2,61.5,29.9,62.2,31.4L62.2,31.4z"/>
		</g>
		<g>
			<path class="st0" d="M48.7,8.3c3.9,0,3.9-6,0-6C44.9,2.3,44.9,8.3,48.7,8.3L48.7,8.3z"/>
		</g>
		<g>
			<path class="st0" d="M37.3,48.5c1.4,0.6,2.9,0.8,4.3-0.1c0.6-0.4,1.2-0.9,1.6-1.5c0.4-0.7,0.5-1.3,0.6-2.1c0.1-1-0.7-2.1-1.5-2.6
				c-2.6-1.6-6.4-0.1-7.1,2.9c-0.4,1.5,0.5,3.3,2.1,3.7c1.5,0.3,3.3-0.5,3.7-2.1c0-0.1,0.2-0.5,0,0c-0.1,0.3-0.1,0.3,0,0.1
				c-0.1,0.1-0.2,0.3-0.3,0.4c0.3-0.3-0.6,0.4-0.3,0.2c0.3-0.2,0.3,0-0.3,0.1c0.1,0,0.2,0,0.2-0.1c0.5-0.2-0.6,0.1-0.4,0.1
				c0.3,0-0.8-0.2-0.4-0.1c0.5,0.1-0.7-0.4-0.3-0.1c-0.5-0.9-1-1.7-1.5-2.6c0.1-0.6,0.1-1,0.6-1.4c-0.3,0.3,0.6-0.4,0.2-0.1
				c0.2-0.1,0.3-0.1,0.5-0.2c-0.3,0.1-0.2,0.1,0.4,0c0,0-0.1,0-0.1,0c0.4,0,0.7,0.1,1,0.3c-0.7-0.3-1.5-0.5-2.3-0.3
				c-0.7,0.2-1.5,0.7-1.8,1.4C35.5,45.7,35.7,47.8,37.3,48.5L37.3,48.5z"/>
		</g>
		<g>
			<path class="st0" d="M94.2,33.9c-0.3,1.5,0,2.9,0.9,4.1c0.4,0.5,0.8,1,1.4,1.3c0.7,0.4,1.4,0.6,2.3,0.6c0.7,0.1,1.6-0.4,2.1-0.9
				c0.5-0.5,0.9-1.4,0.9-2.1c0-0.8-0.3-1.6-0.9-2.1c-0.6-0.6-1.3-0.8-2.1-0.9c0,0-0.1,0-0.1,0c0.3,0,0.5,0.1,0.8,0.1
				c-0.2,0-0.3-0.1-0.5-0.1c0.2,0.1,0.5,0.2,0.7,0.3c-0.1-0.1-0.3-0.2-0.4-0.3c0.2,0.2,0.4,0.3,0.6,0.5c-0.1-0.1-0.2-0.2-0.3-0.3
				c0.2,0.2,0.3,0.4,0.5,0.6c-0.1-0.1-0.2-0.3-0.2-0.4c0.1,0.2,0.2,0.5,0.3,0.7c-0.1-0.2-0.1-0.3-0.1-0.5c0,0.3,0.1,0.5,0.1,0.8
				c0-0.2,0-0.3,0-0.5c0,0.3-0.1,0.5-0.1,0.8c0,0,0-0.1,0-0.1c0.1-0.8,0.1-1.6-0.3-2.3c-0.4-0.6-1.1-1.2-1.8-1.4
				C96.4,31.4,94.5,32.2,94.2,33.9L94.2,33.9z"/>
		</g>
		<g>
			<path class="st0" d="M69.4,46.3c3.9,0,3.9-6,0-6C65.6,40.3,65.6,46.3,69.4,46.3L69.4,46.3z"/>
		</g>
		<g>
			<path class="st0" d="M89.3,17.8c-0.2,0.2-0.4,0.4-0.7,0.7c-0.3,0.3-0.5,0.6-0.6,1c-0.2,0.4-0.3,0.7-0.3,1.2
				c0,0.4,0.1,0.8,0.3,1.2c0.1,0.4,0.3,0.7,0.6,1c0.6,0.5,1.3,0.9,2.1,0.9c0.8,0,1.5-0.3,2.1-0.9c0.2-0.2,0.4-0.4,0.7-0.7
				c0.3-0.3,0.5-0.6,0.6-1c0.2-0.4,0.3-0.7,0.3-1.2c0-0.4-0.1-0.8-0.3-1.2c-0.1-0.4-0.3-0.7-0.6-1c-0.6-0.5-1.3-0.9-2.1-0.9
				C90.6,17,89.9,17.2,89.3,17.8L89.3,17.8z"/>
		</g>
		<g>
			<path class="st0" d="M18.2,36.7c0.2-0.2,0.4-0.4,0.7-0.7c0.3-0.3,0.5-0.6,0.6-1c0.2-0.4,0.3-0.7,0.3-1.2c0-0.4-0.1-0.8-0.3-1.2
				c-0.1-0.4-0.3-0.7-0.6-1c-0.6-0.5-1.3-0.9-2.1-0.9c-0.8,0-1.5,0.3-2.1,0.9c-0.2,0.2-0.4,0.4-0.7,0.7c-0.3,0.3-0.5,0.6-0.6,1
				c-0.2,0.4-0.3,0.7-0.3,1.2c0,0.4,0.1,0.8,0.3,1.2c0.1,0.4,0.3,0.7,0.6,1c0.6,0.5,1.3,0.9,2.1,0.9C16.9,37.6,17.6,37.3,18.2,36.7
				L18.2,36.7z"/>
		</g>
	</g>
	<g>
		<g>
			<g>
				<path class="st1" d="M22.8,28.2c4.1,2.6,9.4,2.5,14.2,2.4c5.6-0.1,11.2-0.9,16.7-2.1c10.7-2.2,21.1-5.5,30.7-10.8
					c0.3-0.2,0-0.6-0.3-0.5c-9.1,5-19,8.3-29.1,10.5c-5.3,1.2-10.7,2-16.2,2.3c-5.1,0.2-11.1,0.5-15.7-2.3
					C22.7,27.5,22.5,28,22.8,28.2L22.8,28.2z"/>
			</g>
			<g>
				<path class="st1" d="M35.2,27.8c-1.8,1.1-3.8-4.7-4-5.6c-0.7-2.8-0.4-5.8,0.5-8.6c0.4-1.3,1-2.5,1.7-3.7
					c0.2-0.3,1.3-2.4,1.2-2.4c0.3,0,1.1,1.4,1.2,1.6c1.6,2.4,2.9,5.1,3.4,8C39.9,21.4,38.3,25.1,35.2,27.8c-0.4,0.3,0.1,0.8,0.4,0.5
					c4.1-3.5,5.3-8.4,3.7-13.5C38.4,12,36.9,9.3,35,7c-0.1-0.1-0.4-0.1-0.5,0c-3,4.1-5.1,9-4.3,14.1c0.3,1.6,2.4,9,5.2,7.2
					C35.9,28.1,35.5,27.6,35.2,27.8z"/>
			</g>
			<g>
				<path class="st1" d="M73,21.2c-1.8,1.1-3.8-4.7-4-5.6c-0.7-2.8-0.4-5.8,0.5-8.6c0.4-1.3,1-2.5,1.7-3.7C71.4,3.1,72.5,1,72.4,1
					c0.3,0,1.1,1.4,1.2,1.6c1.6,2.4,2.9,5.1,3.4,8C77.7,14.8,76.1,18.5,73,21.2c-0.4,0.3,0.1,0.8,0.4,0.5c4.1-3.5,5.3-8.4,3.7-13.5
					c-0.9-2.8-2.4-5.5-4.3-7.8c-0.1-0.1-0.4-0.1-0.5,0c-3,4.1-5.1,9-4.3,14.1c0.3,1.6,2.4,9,5.2,7.2C73.7,21.5,73.3,21,73,21.2z"/>
			</g>
			<g>
				<g>
					<path class="st1" d="M39.5,22.7c-0.7,2.6,5,2.7,6.4,2.6c4.7-0.3,8.6-3.3,11.4-7c0.1-0.1,0.1-0.4-0.1-0.4
						C50.9,15.1,42.7,15.6,39.5,22.7c-0.1,0.3,0.4,0.5,0.5,0.2c2.7-6.1,9-6.9,14.9-5.2c0.4,0.1,1.6,0.3,1.9,0.6c0.2,0.3,0,0-0.4,0.4
						c-0.8,0.6-1.5,1.7-2.2,2.4c-2.1,1.9-4.7,3.3-7.5,3.6c-0.8,0.1-7.1,0.1-6.5-1.9C40.2,22.5,39.6,22.4,39.5,22.7z"/>
				</g>
				<g>
					<path class="st1" d="M40,23.8c2.4-2.2,5.9-4.5,9.2-4.7c2.6-0.2,5.2-0.5,7.9-0.7c0.4,0,0.3-0.6,0-0.5c-3,0.2-6.2,0.3-9.1,0.8
						c-1.5,0.2-2.9,1.1-4.2,1.8c-1.5,0.8-2.9,1.8-4.2,3C39.4,23.7,39.8,24.1,40,23.8L40,23.8z"/>
				</g>
			</g>
			<g>
				<path class="st1" d="M85.2,17.5c-0.6-0.1-0.7-1.1-0.7-1.6c0-0.3,0.1-0.6,0.1-1c0.1-0.6,0.3-1.2,0.5-1.8c0.6-1.9,1.6-3.5,2.9-5
					c2.9-3,6.8-4.6,10.8-5.3c-0.1-0.1-0.3-0.2-0.4-0.3c-0.1,2.5-0.8,5.2-1.8,7.5C94.5,14.8,90.5,17.7,85.2,17.5
					c-0.5,0-0.5,0.6-0.1,0.6c5.3,0.3,9.5-2.5,11.8-7.2c1.2-2.6,2-5.5,2.2-8.4c0-0.2-0.2-0.3-0.4-0.3C93.6,3.2,88.6,5.4,85.8,10
					c-0.8,1.4-3.8,7.6-0.8,8.1C85.5,18.2,85.6,17.6,85.2,17.5z"/>
			</g>
			<g>
				<path class="st1" d="M98.6,2.4c-1.6,2.8-3.4,5.4-5,8.2c-1.8,3-6.2,5.4-9.4,6.5c-0.2,0.1-0.1,0.4,0.1,0.3c1.8-0.7,3.4-1.6,5-2.6
					c1.4-0.9,3-1.8,4-3.2c0.9-1.2,1.6-2.7,2.5-4c1.1-1.7,2.2-3.4,3.2-5.1C99,2.4,98.7,2.3,98.6,2.4L98.6,2.4z"/>
			</g>
			<g>
				<path class="st1" d="M32.5,30.6c1.2-0.4,1.9-1.6,2.4-2.7c1-2.3,1.6-4.9,2.1-7.3c0.4-2.2,0-3.8-0.4-5.9c-0.5-2.5-0.9-5-1.5-7.4
					c-0.1-0.3-0.6-0.2-0.5,0.2c0.4,1.9,0.8,3.8,1.2,5.7c0.4,2,1.3,4.3,1,6.3c-0.3,1.9-0.8,3.9-1.3,5.7c-0.5,1.6-1.2,4.3-3,5
					C32,30.2,32.1,30.7,32.5,30.6L32.5,30.6z"/>
			</g>
			<g>
				<path class="st1" d="M70.3,24c1.2-0.4,1.9-1.6,2.4-2.7c1-2.3,1.6-4.9,2.1-7.3c0.4-2.2,0-3.8-0.4-5.9c-0.5-2.5-0.9-5-1.5-7.4
					c-0.1-0.3-0.6-0.2-0.5,0.2c0.4,1.9,0.8,3.8,1.2,5.7c0.4,2,1.3,4.3,1,6.3c-0.3,1.9-0.8,3.9-1.3,5.7c-0.5,1.6-1.2,4.3-3,5
					C69.8,23.6,70,24.1,70.3,24L70.3,24z"/>
			</g>
			<g>
				<path class="st1" d="M45.3,30.1c-3.1,0.6,0,6.9,0.9,8.3c2.8,4.6,7.9,6.9,13.1,7.8c0.2,0,0.4-0.1,0.4-0.3c-0.2-2.9-1-5.9-2.2-8.5
					C55,32.6,50.7,29.9,45.3,30.1c-0.3,0-0.3,0.7,0.1,0.6c5.5-0.3,9.7,2.8,11.8,7.8c1,2.3,1.6,4.9,1.8,7.4c0.1-0.1,0.3-0.2,0.4-0.3
					c-4.1-0.8-8.1-2.3-11-5.4c-1.3-1.4-2.3-3-2.9-4.9c-0.3-1-1.6-4.3,0-4.6C45.9,30.7,45.7,30.1,45.3,30.1z"/>
			</g>
			<g>
				<path class="st1" d="M68.8,25.2c-2.7,0.5-0.1,5.9,0.6,7.1c2.5,4.2,7.1,6.3,11.7,7.2c0.2,0,0.4-0.1,0.4-0.3
					C81.1,32,76.8,24.8,68.8,25.2c-0.3,0-0.3,0.6,0.1,0.6c6.8-0.3,10.5,5,11.7,11c0.1,0.6,0.4,1.5,0.3,2.1c-0.1,0.5,0.2,0.1-0.1,0.1
					c-0.1-0.3-0.4-0.4-0.7-0.3c-0.4-0.1-0.8-0.2-1.2-0.3c-0.8-0.2-1.5-0.5-2.2-0.8c-2.6-1.1-5.1-2.9-6.6-5.4
					c-0.5-0.8-3.1-6.1-1.1-6.5C69.4,25.7,69.2,25.1,68.8,25.2z"/>
			</g>
			<g>
				<path class="st1" d="M39,30.6c1.4,0,2.8,0,4.2,0.3c2.4,0.4,4.7,1.9,6.7,3.3c1.2,0.8,2.6,1.6,3.4,2.7c0.6,0.9,1.1,1.9,1.7,2.8
					c1.3,2.1,2.7,4.2,4,6.4c0.2,0.3,0.6,0,0.5-0.3c-1.5-2.5-3.1-4.9-4.6-7.4c-0.6-0.9-1-1.9-1.8-2.6c-0.9-0.8-1.9-1.5-2.9-2.1
					c-2-1.3-4.3-2.8-6.7-3.3c-1.5-0.3-3-0.3-4.5-0.3C38.6,30.1,38.6,30.6,39,30.6L39,30.6z"/>
			</g>
			<g>
				<path class="st1" d="M36.2,27.6c1.8-1.7,3.3-4.2,5.7-5.1c0.3-0.1,0.2-0.7-0.2-0.5c-2.4,1-4,3.5-5.9,5.2
					C35.6,27.5,36,27.9,36.2,27.6L36.2,27.6z"/>
			</g>
			<g>
				<path class="st1" d="M81.3,39c-0.5-0.2-1.3-1.3-1.6-1.7c-1.1-1.1-2.1-2.3-3.2-3.5c-2.2-2.4-4.3-4.8-6.4-7.2
					c-1.3-1.5-2.6-3.1-4.6-3.7c-3.8-1.3-6.7,1.5-8.6,4.4c-0.2,0.3,0.3,0.6,0.5,0.3c2.4-3.7,6.3-6.1,10.2-2.9c1.5,1.2,2.8,3,4.1,4.4
					c2.1,2.3,4.2,4.7,6.3,7c0.8,0.8,1.5,1.7,2.3,2.5c0.3,0.3,0.6,0.8,1.1,0.9C81.5,39.6,81.6,39.1,81.3,39L81.3,39z"/>
			</g>
			<g>
				<path class="st1" d="M33,38.3c-0.4,0.4-1,0.4-1.4,0.1c-0.4-0.4-0.4-1-0.1-1.4c0.4-0.4,1-0.4,1.4-0.1
					C33.3,37.3,33.3,37.9,33,38.3c-0.3,0.3,0.2,0.8,0.5,0.4c0.6-0.7,0.6-1.7-0.1-2.3c-0.6-0.6-1.7-0.6-2.3,0.1
					c-0.6,0.6-0.6,1.7,0.1,2.3c0.7,0.6,1.7,0.5,2.3-0.1C33.7,38.5,33.2,38,33,38.3z"/>
			</g>
			<g>
				<path class="st1" d="M39.8,39.7c0-1,1.5-1.1,1.5-0.1C41.4,40.7,39.9,40.7,39.8,39.7c0-0.4-0.7-0.4-0.6,0
					c0.1,0.8,0.7,1.4,1.5,1.4c0.8,0,1.4-0.7,1.4-1.5c0-0.8-0.7-1.4-1.4-1.4c-0.8,0-1.4,0.7-1.4,1.5C39.1,40.2,39.8,40.2,39.8,39.7z"
					/>
			</g>
			<g>
				<path class="st1" d="M49.3,9.5c0,0.8-1.1,0.8-1.2,0C48.1,8.8,49.3,8.8,49.3,9.5c0,0.4,0.7,0.4,0.6,0c-0.1-0.7-0.6-1.2-1.3-1.2
					c-0.7,0-1.2,0.6-1.2,1.3c0,0.7,0.6,1.2,1.2,1.2c0.7,0,1.2-0.6,1.2-1.3C50,9.1,49.3,9.1,49.3,9.5z"/>
			</g>
			<g>
				<path class="st1" d="M64.9,33.8c0,1.2-1.9,1.3-1.9,0.1C63,32.7,64.8,32.6,64.9,33.8c0,0.4,0.7,0.4,0.6,0
					c-0.1-0.9-0.8-1.6-1.7-1.5c-0.9,0-1.6,0.8-1.5,1.7c0,0.8,0.8,1.5,1.6,1.5c0.9,0,1.6-0.8,1.6-1.7C65.6,33.4,64.9,33.4,64.9,33.8z
					"/>
			</g>
			<g>
				<path class="st1" d="M70.1,38.6c0-1,1.5-1.1,1.5-0.1C71.7,39.5,70.2,39.6,70.1,38.6c0-0.4-0.7-0.4-0.6,0
					c0.1,0.8,0.7,1.4,1.5,1.4c0.8,0,1.4-0.7,1.4-1.5c0-0.8-0.7-1.4-1.4-1.4c-0.8,0-1.4,0.7-1.4,1.5C69.5,39,70.1,39,70.1,38.6z"/>
			</g>
			<g>
				<path class="st1" d="M64.8,11.5c0,1.7-2.6,1.8-2.6,0.1C62.1,9.9,64.6,9.8,64.8,11.5c0,0.4,0.7,0.4,0.6,0c-0.1-1.1-0.9-1.9-2-1.9
					c-1.1,0-1.9,1-1.9,2c0,1,0.9,1.9,2,1.9c1.2,0,2-0.9,2-2C65.4,11.1,64.8,11.1,64.8,11.5z"/>
			</g>
			<g>
				<path class="st1" d="M44.2,9.4c0,0.3-0.4,0.3-0.4,0C43.7,9.1,44.2,9.1,44.2,9.4c0,0.4,0.7,0.4,0.6,0c0-0.5-0.4-0.9-0.9-0.8
					c-0.5,0-0.9,0.4-0.8,0.9c0,0.5,0.4,0.8,0.9,0.8c0.5,0,0.9-0.4,0.9-0.9C44.9,8.9,44.2,9,44.2,9.4z"/>
			</g>
			<g>
				<path class="st1" d="M85.3,1.7c0,1.5-2.2,1.6-2.3,0.1C83,0.4,85.2,0.3,85.3,1.7c0,0.4,0.7,0.4,0.6,0c-0.1-1-0.8-1.8-1.9-1.7
					c-1,0-1.8,0.9-1.7,1.9c0,0.9,0.8,1.7,1.8,1.7c1,0,1.8-0.9,1.8-1.9C85.9,1.3,85.3,1.3,85.3,1.7z"/>
			</g>
			<g>
				<path class="st1" d="M87.5,22.5c0,0.5-0.8,0.6-0.8,0C86.7,22,87.5,22,87.5,22.5c0,0.4,0.7,0.4,0.6,0c-0.1-0.6-0.5-1-1.1-1
					c-0.6,0-1,0.5-1,1.1c0,0.6,0.5,1,1.1,1c0.6,0,1-0.5,1.1-1.1C88.2,22.1,87.6,22.1,87.5,22.5z"/>
			</g>
			<g>
				<path class="st1" d="M102.6,13.5c0,1-1.5,1.1-1.5,0.1C101,12.6,102.5,12.5,102.6,13.5c0,0.4,0.7,0.4,0.6,0
					c-0.1-0.8-0.7-1.4-1.5-1.4c-0.8,0-1.4,0.7-1.4,1.5c0,0.8,0.7,1.4,1.4,1.4c0.8,0,1.4-0.7,1.4-1.5
					C103.2,13.1,102.6,13.1,102.6,13.5z"/>
			</g>
		</g>
		<g>
			<path class="st2" d="M2.4,56.1l0.6,0c1.7,0,2.6-0.1,2.8-0.1c2.4,0,4.1,0.5,5.3,1.6s1.8,2.6,1.8,4.7c0,1.3-0.3,2.5-0.9,3.4
				c-0.6,1-1.4,1.7-2.5,2.3c-1.1,0.5-2.4,0.8-3.9,0.8c-0.2,0-0.6,0-1.2,0c-0.7,0-1.1,0-1.4,0c-1.2,0-2.2,0-2.8,0.1v-0.4
				c0.4,0,0.7-0.1,0.9-0.1c0.2-0.1,0.3-0.2,0.4-0.4c0.1-0.2,0.1-0.5,0.1-1v-9c0-0.5,0-0.8-0.1-1c-0.1-0.2-0.2-0.3-0.4-0.4
				c-0.2-0.1-0.5-0.1-0.9-0.1V56C1,56.1,1.8,56.1,2.4,56.1z M4.6,67.9c0.1,0.2,0.2,0.4,0.4,0.5c0.2,0.1,0.5,0.1,0.9,0.1
				c1,0,1.8-0.2,2.4-0.7c0.6-0.5,1-1.2,1.3-2c0.3-0.9,0.4-2,0.4-3.4c0-1.4-0.1-2.5-0.4-3.4c-0.3-0.9-0.7-1.5-1.3-2
				c-0.6-0.4-1.4-0.7-2.3-0.7c-0.4,0-0.7,0-0.8,0.1c-0.2,0.1-0.3,0.2-0.4,0.5c-0.1,0.2-0.1,0.5-0.1,1v9C4.5,67.4,4.5,67.7,4.6,67.9z
				"/>
			<path class="st2" d="M28.1,66.1c0,1.1,0,2,0.1,2.7c-0.8,0-2.2-0.1-4.1-0.1c-2.6,0-4.6,0-5.9,0.1v-0.4c0.4,0,0.7-0.1,0.9-0.1
				c0.2-0.1,0.3-0.2,0.4-0.4c0.1-0.2,0.1-0.5,0.1-1v-9c0-0.5,0-0.8-0.1-1c-0.1-0.2-0.2-0.3-0.4-0.4c-0.2-0.1-0.5-0.1-0.9-0.1V56
				c1.3,0,3.3,0.1,5.9,0.1c1.8,0,3,0,3.8-0.1c-0.1,1-0.1,1.9-0.1,2.7c0,0.5,0,0.9,0.1,1.2h-0.4c-0.1-0.9-0.3-1.6-0.6-2.1
				c-0.3-0.5-0.6-0.9-1-1.1c-0.4-0.2-0.9-0.3-1.4-0.3h-0.7c-0.4,0-0.6,0-0.8,0.1c-0.2,0.1-0.3,0.2-0.3,0.4c-0.1,0.2-0.1,0.5-0.1,0.8
				v4.5H23c0.6,0,1.1-0.2,1.5-0.7c0.3-0.5,0.6-1,0.7-1.7h0.4c0,0.6-0.1,1.2-0.1,1.7l0,0.9c0,0.6,0,1.5,0.1,2.6h-0.4
				c-0.2-1.6-1-2.4-2.2-2.4h-0.6v4.6c0,0.4,0,0.7,0.1,0.8c0.1,0.2,0.2,0.3,0.3,0.4c0.2,0.1,0.4,0.1,0.8,0.1h0.9
				c0.8,0,1.5-0.3,2.1-0.9c0.5-0.6,0.9-1.6,1.1-3h0.4C28.1,65,28.1,65.5,28.1,66.1z"/>
			<path class="st2" d="M38.4,56.5c-0.2,0.1-0.3,0.2-0.4,0.4c-0.1,0.2-0.1,0.5-0.1,1v9.2c0,0.4,0,0.7,0.1,0.8
				c0.1,0.2,0.2,0.3,0.3,0.4c0.2,0.1,0.4,0.1,0.7,0.1h0.9c0.5,0,1-0.2,1.5-0.5c0.5-0.3,0.8-0.8,1.1-1.4c0.3-0.6,0.5-1.3,0.6-2.1h0.4
				c0,0.4-0.1,0.9-0.1,1.6c0,1.2,0,2.1,0.1,2.9c-0.8,0-2.2-0.1-4.1-0.1c-2.6,0-4.6,0-5.9,0.1v-0.4c0.4,0,0.7-0.1,0.9-0.1
				c0.2-0.1,0.3-0.2,0.4-0.4c0.1-0.2,0.1-0.5,0.1-1v-9c0-0.5,0-0.8-0.1-1c-0.1-0.2-0.2-0.3-0.4-0.4c-0.2-0.1-0.5-0.1-0.9-0.1V56
				c0.6,0,1.6,0.1,2.8,0.1c1.2,0,2.2,0,2.8-0.1v0.4C39,56.4,38.6,56.5,38.4,56.5z"/>
			<path class="st2" d="M53.5,56.5c-0.2,0.1-0.3,0.2-0.4,0.4c-0.1,0.2-0.1,0.5-0.1,1v9c0,0.5,0,0.8,0.1,1c0.1,0.2,0.2,0.3,0.4,0.4
				c0.2,0.1,0.5,0.1,0.9,0.1v0.4c-0.6,0-1.5-0.1-2.7-0.1c-1.3,0-2.2,0-2.8,0.1v-0.4c0.4,0,0.7-0.1,0.9-0.1c0.2-0.1,0.3-0.2,0.4-0.4
				c0.1-0.2,0.1-0.5,0.1-1v-9c0-0.5,0-0.8-0.1-1c-0.1-0.2-0.2-0.3-0.4-0.4c-0.2-0.1-0.5-0.1-0.9-0.1V56c0.6,0,1.6,0.1,2.8,0.1
				c1.2,0,2.1,0,2.7-0.1v0.4C54,56.4,53.7,56.5,53.5,56.5z"/>
			<path class="st2" d="M70.1,68c-0.1-0.2-0.2-0.3-0.3-0.3c-0.1,0-0.2,0.1-0.4,0.2c-0.4,0.2-0.7,0.5-1,0.6c-0.3,0.2-0.7,0.3-1,0.4
				c-0.4,0.1-0.8,0.2-1.3,0.2c-1.3,0-2.4-0.3-3.4-0.8c-1-0.5-1.7-1.3-2.2-2.3c-0.5-1-0.8-2.2-0.8-3.5c0-1.3,0.3-2.5,0.8-3.5
				s1.3-1.8,2.3-2.4c1-0.6,2.1-0.8,3.3-0.8c0.7,0,1.3,0.1,1.8,0.3c0.5,0.2,1,0.5,1.5,0.9c0.1,0.1,0.3,0.2,0.4,0.2
				c0.2,0,0.4-0.4,0.5-1.1h0.4c0,0.8-0.1,2.3-0.1,4.4h-0.4c-0.1-0.6-0.2-1.1-0.3-1.5c-0.1-0.4-0.2-0.7-0.4-1
				c-0.2-0.3-0.4-0.6-0.7-0.8c-0.3-0.3-0.7-0.5-1.1-0.7c-0.4-0.1-0.8-0.2-1.2-0.2c-0.8,0-1.5,0.3-2,0.9c-0.5,0.6-0.9,1.3-1.2,2.3
				c-0.2,0.9-0.4,2-0.4,3.1c0,1.1,0.1,2.2,0.4,3.1c0.3,0.9,0.7,1.7,1.2,2.2c0.6,0.6,1.2,0.8,2.1,0.8c0.4,0,0.8-0.1,1.2-0.2
				c0.4-0.2,0.7-0.4,1-0.7c0.3-0.2,0.5-0.5,0.7-0.8c0.2-0.3,0.3-0.7,0.4-1.1c0.1-0.4,0.2-0.9,0.2-1.6h0.4c0,2.2,0,3.7,0.1,4.6h-0.4
				C70.2,68.5,70.1,68.2,70.1,68z"/>
			<path class="st2" d="M87.3,68.2c0.2,0.2,0.4,0.3,0.6,0.3v0.4c-0.7,0-1.6-0.1-2.7-0.1c-1.2,0-2.1,0-2.7,0.1v-0.4
				c0.5,0,0.8-0.1,1-0.2c0.2-0.1,0.3-0.3,0.3-0.5c0-0.2-0.1-0.5-0.2-0.9l-1.1-3h-3.9L78,65.2c-0.3,0.8-0.5,1.5-0.5,2
				c0,0.4,0.1,0.8,0.4,0.9c0.3,0.2,0.7,0.3,1.2,0.3v0.4c-0.8,0-1.6-0.1-2.2-0.1c-0.6,0-1,0-1.4,0.1v-0.4c0.6-0.1,1.1-0.7,1.6-1.9
				L81.1,56c0.2,0,0.4,0,0.6,0c0.2,0,0.4,0,0.6,0l4.4,11.3C86.9,67.7,87.1,68,87.3,68.2z M80.4,58.7l-1.9,4.9h3.7L80.4,58.7z"/>
			<path class="st2" d="M91.2,59.1c0-0.8,0-1.8-0.1-3.1c1.1,0,3,0.1,5.6,0.1c2.6,0,4.5,0,5.6-0.1c-0.1,1.2-0.1,2.2-0.1,3.1
				c0,0.5,0,1,0.1,1.4h-0.4c-0.2-1-0.4-1.8-0.7-2.4c-0.3-0.6-0.6-1-1-1.3c-0.4-0.3-0.9-0.4-1.5-0.4h-0.4v10.3c0,0.5,0.1,0.9,0.2,1.1
				c0.1,0.2,0.3,0.4,0.5,0.5c0.3,0.1,0.7,0.1,1.2,0.1v0.4c-1.5,0-2.7-0.1-3.4-0.1c-0.8,0-1.9,0-3.3,0.1v-0.4c0.6,0,1,0,1.2-0.1
				s0.4-0.2,0.5-0.5c0.1-0.2,0.1-0.6,0.1-1.1V56.4h-0.4c-0.6,0-1.1,0.1-1.5,0.4c-0.4,0.3-0.7,0.7-1,1.3c-0.3,0.6-0.5,1.4-0.7,2.4
				h-0.4C91.2,60.1,91.2,59.6,91.2,59.1z"/>
			<path class="st2" d="M117.3,66.1c0,1.1,0,2,0.1,2.7c-0.8,0-2.2-0.1-4.1-0.1c-2.6,0-4.6,0-5.9,0.1v-0.4c0.4,0,0.7-0.1,0.9-0.1
				c0.2-0.1,0.3-0.2,0.4-0.4c0.1-0.2,0.1-0.5,0.1-1v-9c0-0.5,0-0.8-0.1-1c-0.1-0.2-0.2-0.3-0.4-0.4c-0.2-0.1-0.5-0.1-0.9-0.1V56
				c1.3,0,3.3,0.1,5.9,0.1c1.8,0,3,0,3.8-0.1c-0.1,1-0.1,1.9-0.1,2.7c0,0.5,0,0.9,0.1,1.2h-0.4c-0.1-0.9-0.3-1.6-0.6-2.1
				c-0.3-0.5-0.6-0.9-1-1.1c-0.4-0.2-0.9-0.3-1.4-0.3h-0.7c-0.4,0-0.6,0-0.8,0.1c-0.2,0.1-0.3,0.2-0.3,0.4c-0.1,0.2-0.1,0.5-0.1,0.8
				v4.5h0.6c0.6,0,1.1-0.2,1.5-0.7c0.3-0.5,0.6-1,0.7-1.7h0.4c0,0.6-0.1,1.2-0.1,1.7l0,0.9c0,0.6,0,1.5,0.1,2.6h-0.4
				c-0.2-1.6-1-2.4-2.2-2.4h-0.6v4.6c0,0.4,0,0.7,0.1,0.8c0.1,0.2,0.2,0.3,0.3,0.4c0.2,0.1,0.4,0.1,0.8,0.1h0.9
				c0.8,0,1.5-0.3,2.1-0.9c0.5-0.6,0.9-1.6,1.1-3h0.4C117.3,65,117.3,65.5,117.3,66.1z"/>
		</g>
		<g>
			<path class="st1" d="M19.3,85.5c-0.1,0.1-0.1,0.2-0.2,0.3c0,0.1,0,0.3,0,0.6v4.2c0,0-0.1,0-0.2,0c-0.1,0-0.2,0-0.2,0l-3.2-4.1
				v2.9c0,0.3,0,0.5,0,0.6c0,0.1,0.1,0.2,0.2,0.3c0.1,0.1,0.3,0.1,0.5,0.1v0.1c-0.2,0-0.5,0-0.8,0c-0.3,0-0.5,0-0.6,0v-0.1
				c0.2,0,0.3-0.1,0.4-0.1c0.1-0.1,0.1-0.2,0.2-0.3c0-0.1,0-0.3,0-0.6v-3.3c0-0.2,0-0.3,0-0.4c0-0.1-0.1-0.1-0.2-0.2
				c-0.1,0-0.2-0.1-0.4-0.1v-0.1c0.2,0,0.4,0,0.6,0c0.2,0,0.5,0,0.6,0l2.9,3.5v-2.3c0-0.3,0-0.5,0-0.6c0-0.1-0.1-0.2-0.2-0.3
				c-0.1-0.1-0.3-0.1-0.5-0.1v-0.1c0.2,0,0.5,0,0.8,0c0.3,0,0.5,0,0.6,0v0.1C19.4,85.4,19.3,85.5,19.3,85.5z"/>
			<path class="st1" d="M25.2,90.3c0.1,0.1,0.2,0.1,0.2,0.1v0.1c-0.3,0-0.7,0-1.1,0c-0.5,0-0.9,0-1.1,0v-0.1c0.2,0,0.3,0,0.4-0.1
				s0.1-0.1,0.1-0.2c0-0.1,0-0.2-0.1-0.4l-0.4-1.2h-1.6l-0.2,0.5c-0.1,0.3-0.2,0.6-0.2,0.8c0,0.2,0.1,0.3,0.2,0.4
				c0.1,0.1,0.3,0.1,0.5,0.1v0.1c-0.3,0-0.6,0-0.9,0c-0.2,0-0.4,0-0.6,0v-0.1c0.2,0,0.5-0.3,0.6-0.8l1.7-4.4c0.1,0,0.2,0,0.3,0
				c0.1,0,0.2,0,0.3,0l1.8,4.7C25.1,90.1,25.2,90.2,25.2,90.3z M22.4,86.4l-0.8,2h1.5L22.4,86.4z"/>
			<path class="st1" d="M25.9,86.5c0-0.3,0-0.8-0.1-1.3c0.5,0,1.2,0,2.3,0s1.8,0,2.3,0c0,0.5-0.1,0.9-0.1,1.3c0,0.2,0,0.4,0,0.6
				h-0.2c-0.1-0.4-0.2-0.7-0.3-1c-0.1-0.2-0.3-0.4-0.4-0.5c-0.2-0.1-0.4-0.2-0.6-0.2h-0.2v4.2c0,0.2,0,0.4,0.1,0.5
				c0,0.1,0.1,0.2,0.2,0.2c0.1,0,0.3,0.1,0.5,0.1v0.1c-0.6,0-1.1,0-1.4,0c-0.3,0-0.8,0-1.4,0v-0.1c0.2,0,0.4,0,0.5-0.1
				c0.1,0,0.2-0.1,0.2-0.2c0-0.1,0.1-0.2,0.1-0.5v-4.2h-0.2c-0.2,0-0.4,0.1-0.6,0.2c-0.2,0.1-0.3,0.3-0.4,0.5
				c-0.1,0.2-0.2,0.6-0.3,1h-0.2C25.9,86.9,25.9,86.7,25.9,86.5z"/>
			<path class="st1" d="M36,85.5c-0.1,0.1-0.1,0.2-0.2,0.3c0,0.1,0,0.3,0,0.6v2c0,0.7-0.1,1.2-0.3,1.6c-0.1,0.2-0.3,0.4-0.6,0.5
				c-0.3,0.1-0.6,0.2-0.9,0.2c-0.6,0-1-0.1-1.3-0.4c-0.2-0.1-0.3-0.3-0.4-0.4c-0.1-0.2-0.1-0.4-0.2-0.6c0-0.2,0-0.5,0-0.8v-2.3
				c0-0.2,0-0.3,0-0.4c0-0.1-0.1-0.1-0.2-0.2c-0.1,0-0.2-0.1-0.4-0.1v-0.1c0.3,0,0.6,0,1.2,0c0.5,0,0.9,0,1.2,0v0.1
				c-0.2,0-0.3,0-0.4,0.1c-0.1,0-0.1,0.1-0.2,0.2c0,0.1,0,0.2,0,0.4v2.8c0,0.3,0,0.6,0.1,0.9c0.1,0.2,0.2,0.4,0.3,0.5
				c0.1,0.1,0.4,0.2,0.6,0.2c0.5,0,0.8-0.2,1-0.5c0.2-0.3,0.3-0.8,0.3-1.4v-2c0-0.3,0-0.5-0.1-0.6c0-0.1-0.1-0.2-0.2-0.3
				c-0.1-0.1-0.3-0.1-0.5-0.1v-0.1c0.2,0,0.5,0,0.8,0c0.3,0,0.5,0,0.6,0v0.1C36.2,85.4,36.1,85.5,36,85.5z"/>
			<path class="st1" d="M42.1,90.5c-0.2,0.1-0.3,0.1-0.6,0.1c-0.3,0-0.5-0.1-0.7-0.2c-0.2-0.1-0.3-0.3-0.3-0.6l-0.1-0.7
				c0-0.2-0.1-0.4-0.1-0.6c0-0.1-0.1-0.3-0.2-0.3C40,88.1,39.9,88,39.7,88h-0.5v1.7c0,0.2,0,0.3,0,0.4c0,0.1,0.1,0.1,0.2,0.2
				c0.1,0,0.2,0.1,0.4,0.1v0.1c-0.3,0-0.6,0-1.1,0c-0.5,0-0.9,0-1.2,0v-0.1c0.2,0,0.3,0,0.4-0.1c0.1,0,0.1-0.1,0.2-0.2
				c0-0.1,0-0.2,0-0.4v-3.7c0-0.2,0-0.3,0-0.4c0-0.1-0.1-0.1-0.2-0.2c-0.1,0-0.2-0.1-0.4-0.1v-0.1c0.3,0,0.6,0,1.1,0
				c0.2,0,0.4,0,0.7,0c0.2,0,0.4,0,0.5,0c0.7,0,1.2,0.1,1.5,0.3c0.3,0.2,0.5,0.5,0.5,1c0,0.2-0.1,0.4-0.2,0.6
				c-0.1,0.2-0.3,0.4-0.5,0.5c-0.2,0.1-0.6,0.2-1,0.3h0c0.3,0,0.5,0.1,0.7,0.2c0.2,0.1,0.3,0.2,0.5,0.3c0.1,0.1,0.2,0.3,0.2,0.5
				l0.2,0.8c0,0.2,0.1,0.3,0.1,0.4c0.1,0.1,0.1,0.1,0.2,0.1c0.1,0,0.1,0,0.2,0c0,0,0.1-0.1,0.1-0.1l0.1,0.1
				C42.4,90.4,42.3,90.5,42.1,90.5z M40.2,87.7c0.2-0.1,0.3-0.2,0.3-0.4c0.1-0.2,0.1-0.4,0.1-0.6c0-0.4-0.1-0.7-0.2-0.9
				c-0.1-0.2-0.4-0.3-0.7-0.3c-0.1,0-0.2,0-0.3,0.1c-0.1,0-0.1,0.1-0.1,0.2c0,0.1,0,0.2,0,0.4v1.8h0.3
				C39.9,87.9,40.1,87.8,40.2,87.7z"/>
			<path class="st1" d="M47.5,89.4c0,0.5,0,0.8,0.1,1.1c-0.3,0-0.9,0-1.7,0c-1.1,0-1.9,0-2.4,0v-0.1c0.2,0,0.3,0,0.4-0.1
				c0.1,0,0.1-0.1,0.2-0.2c0-0.1,0-0.2,0-0.4v-3.7c0-0.2,0-0.3,0-0.4c0-0.1-0.1-0.1-0.2-0.2c-0.1,0-0.2-0.1-0.4-0.1v-0.1
				c0.5,0,1.3,0,2.4,0c0.7,0,1.2,0,1.6,0c0,0.4-0.1,0.8-0.1,1.1c0,0.2,0,0.4,0,0.5h-0.2c-0.1-0.4-0.1-0.6-0.2-0.9
				c-0.1-0.2-0.2-0.4-0.4-0.4c-0.2-0.1-0.4-0.1-0.6-0.1h-0.3c-0.2,0-0.3,0-0.3,0c-0.1,0-0.1,0.1-0.1,0.1c0,0.1,0,0.2,0,0.3v1.8h0.2
				c0.3,0,0.5-0.1,0.6-0.3c0.1-0.2,0.2-0.4,0.3-0.7h0.2c0,0.2,0,0.5,0,0.7l0,0.4c0,0.3,0,0.6,0,1.1h-0.2c-0.1-0.7-0.4-1-0.9-1h-0.2
				v1.9c0,0.2,0,0.3,0,0.3c0,0.1,0.1,0.1,0.1,0.1c0.1,0,0.2,0,0.3,0H46c0.3,0,0.6-0.1,0.8-0.4c0.2-0.2,0.4-0.6,0.5-1.2h0.2
				C47.5,88.9,47.5,89.2,47.5,89.4z"/>
			<path class="st1" d="M53.1,89.7c0,0.2,0,0.3,0.1,0.4c0,0.1,0.1,0.2,0.2,0.2c0.1,0,0.3,0,0.5,0.1v0.2c-0.6,0-1.1,0-1.4,0
				c-0.1,0-0.5,0-1.2,0v-0.1c0.2,0,0.3,0,0.4-0.1c0.1,0,0.1-0.1,0.2-0.2c0-0.1,0-0.2,0-0.4v-3.7c0-0.2,0-0.3,0-0.4
				c0-0.1-0.1-0.1-0.2-0.2c-0.1,0-0.2-0.1-0.4-0.1v-0.1c0.2,0,0.6,0,1.1,0c0.2,0,0.4,0,0.7,0c0.2,0,0.4,0,0.5,0
				c0.5,0,0.8,0.1,1.1,0.2c0.3,0.1,0.5,0.3,0.7,0.5c0.2,0.2,0.2,0.5,0.2,0.8c0,0.3-0.1,0.5-0.2,0.8s-0.4,0.5-0.7,0.6
				s-0.8,0.3-1.3,0.3h-0.4V89.7z M54.2,87.9c0.2-0.3,0.2-0.6,0.2-1c0-0.5-0.1-0.8-0.2-1.1c-0.1-0.2-0.4-0.3-0.7-0.3
				c-0.1,0-0.2,0-0.3,0.1c-0.1,0-0.1,0.1-0.1,0.2s0,0.2,0,0.4v2.2h0.3C53.8,88.3,54.1,88.1,54.2,87.9z"/>
			<path class="st1" d="M61.4,90.5c-0.2,0.1-0.3,0.1-0.6,0.1c-0.3,0-0.5-0.1-0.7-0.2c-0.2-0.1-0.3-0.3-0.3-0.6l-0.1-0.7
				c0-0.2-0.1-0.4-0.1-0.6c0-0.1-0.1-0.3-0.2-0.3C59.3,88.1,59.2,88,59,88h-0.5v1.7c0,0.2,0,0.3,0,0.4c0,0.1,0.1,0.1,0.2,0.2
				c0.1,0,0.2,0.1,0.4,0.1v0.1c-0.3,0-0.6,0-1.1,0c-0.5,0-0.9,0-1.2,0v-0.1c0.2,0,0.3,0,0.4-0.1c0.1,0,0.1-0.1,0.2-0.2
				c0-0.1,0-0.2,0-0.4v-3.7c0-0.2,0-0.3,0-0.4c0-0.1-0.1-0.1-0.2-0.2c-0.1,0-0.2-0.1-0.4-0.1v-0.1c0.3,0,0.6,0,1.1,0
				c0.2,0,0.4,0,0.7,0c0.2,0,0.4,0,0.5,0c0.7,0,1.2,0.1,1.5,0.3c0.3,0.2,0.5,0.5,0.5,1c0,0.2-0.1,0.4-0.2,0.6
				c-0.1,0.2-0.3,0.4-0.5,0.5c-0.2,0.1-0.6,0.2-1,0.3h0c0.3,0,0.5,0.1,0.7,0.2c0.2,0.1,0.3,0.2,0.5,0.3c0.1,0.1,0.2,0.3,0.2,0.5
				l0.2,0.8c0,0.2,0.1,0.3,0.1,0.4c0.1,0.1,0.1,0.1,0.2,0.1c0.1,0,0.1,0,0.2,0c0,0,0.1-0.1,0.1-0.1l0.1,0.1
				C61.7,90.4,61.6,90.5,61.4,90.5z M59.5,87.7c0.2-0.1,0.3-0.2,0.3-0.4c0.1-0.2,0.1-0.4,0.1-0.6c0-0.4-0.1-0.7-0.2-0.9
				c-0.1-0.2-0.4-0.3-0.7-0.3c-0.1,0-0.2,0-0.3,0.1c-0.1,0-0.1,0.1-0.1,0.2c0,0.1,0,0.2,0,0.4v1.8h0.3
				C59.2,87.9,59.4,87.8,59.5,87.7z"/>
			<path class="st1" d="M66.8,85.5c0.4,0.2,0.7,0.5,0.9,0.9s0.3,0.9,0.3,1.4c0,0.5-0.1,1-0.3,1.5c-0.2,0.4-0.5,0.7-0.9,1
				c-0.4,0.2-0.9,0.3-1.4,0.3c-0.5,0-1-0.1-1.4-0.3c-0.4-0.2-0.7-0.5-0.9-0.9c-0.2-0.4-0.3-0.9-0.3-1.4c0-0.5,0.1-1,0.3-1.5
				c0.2-0.4,0.5-0.7,0.9-1c0.4-0.2,0.9-0.3,1.4-0.3C65.9,85.2,66.4,85.3,66.8,85.5z M64.7,85.6c-0.2,0.2-0.4,0.5-0.5,0.9
				C64.1,87,64,87.4,64,87.9c0,0.5,0.1,1,0.2,1.4c0.1,0.4,0.3,0.7,0.5,0.9c0.2,0.2,0.5,0.3,0.7,0.3c0.3,0,0.5-0.1,0.7-0.3
				c0.2-0.2,0.4-0.5,0.5-0.9c0.1-0.4,0.2-0.8,0.2-1.4c0-0.5-0.1-1-0.2-1.4c-0.1-0.4-0.3-0.7-0.5-0.9c-0.2-0.2-0.5-0.3-0.7-0.3
				C65.1,85.3,64.9,85.4,64.7,85.6z"/>
			<path class="st1" d="M70.2,85.3l0.2,0c0.7,0,1.1,0,1.2,0c1,0,1.7,0.2,2.2,0.7c0.5,0.4,0.7,1.1,0.7,1.9c0,0.5-0.1,1-0.4,1.4
				c-0.2,0.4-0.6,0.7-1,0.9c-0.4,0.2-1,0.3-1.6,0.3c-0.1,0-0.2,0-0.5,0c-0.3,0-0.5,0-0.6,0c-0.5,0-0.9,0-1.1,0v-0.1
				c0.2,0,0.3,0,0.4-0.1c0.1,0,0.1-0.1,0.2-0.2c0-0.1,0-0.2,0-0.4v-3.7c0-0.2,0-0.3,0-0.4c0-0.1-0.1-0.1-0.2-0.2
				c-0.1,0-0.2-0.1-0.4-0.1v-0.1C69.6,85.3,69.9,85.3,70.2,85.3z M71.1,90.2c0,0.1,0.1,0.2,0.2,0.2c0.1,0,0.2,0.1,0.4,0.1
				c0.4,0,0.7-0.1,1-0.3c0.2-0.2,0.4-0.5,0.5-0.8c0.1-0.4,0.2-0.8,0.2-1.4c0-0.6-0.1-1-0.2-1.4c-0.1-0.4-0.3-0.6-0.5-0.8
				c-0.2-0.2-0.6-0.3-1-0.3c-0.2,0-0.3,0-0.3,0.1c-0.1,0-0.1,0.1-0.2,0.2c0,0.1,0,0.2,0,0.4v3.7C71,89.9,71,90.1,71.1,90.2z"/>
			<path class="st1" d="M80.1,85.5c-0.1,0.1-0.1,0.2-0.2,0.3c0,0.1,0,0.3,0,0.6v2c0,0.7-0.1,1.2-0.3,1.6c-0.1,0.2-0.3,0.4-0.6,0.5
				c-0.3,0.1-0.6,0.2-0.9,0.2c-0.6,0-1-0.1-1.3-0.4c-0.2-0.1-0.3-0.3-0.4-0.4c-0.1-0.2-0.1-0.4-0.2-0.6c0-0.2,0-0.5,0-0.8v-2.3
				c0-0.2,0-0.3,0-0.4c0-0.1-0.1-0.1-0.2-0.2c-0.1,0-0.2-0.1-0.4-0.1v-0.1c0.3,0,0.6,0,1.2,0c0.5,0,0.9,0,1.2,0v0.1
				c-0.2,0-0.3,0-0.4,0.1c-0.1,0-0.1,0.1-0.2,0.2c0,0.1,0,0.2,0,0.4v2.8c0,0.3,0,0.6,0.1,0.9c0.1,0.2,0.2,0.4,0.3,0.5
				c0.1,0.1,0.4,0.2,0.6,0.2c0.5,0,0.8-0.2,1-0.5c0.2-0.3,0.3-0.8,0.3-1.4v-2c0-0.3,0-0.5-0.1-0.6c0-0.1-0.1-0.2-0.2-0.3
				c-0.1-0.1-0.3-0.1-0.5-0.1v-0.1c0.2,0,0.5,0,0.8,0c0.3,0,0.5,0,0.6,0v0.1C80.3,85.4,80.2,85.5,80.1,85.5z"/>
			<path class="st1" d="M85.9,90.2c0-0.1-0.1-0.1-0.1-0.1c0,0-0.1,0-0.2,0.1c-0.1,0.1-0.3,0.2-0.4,0.3c-0.1,0.1-0.3,0.1-0.4,0.2
				c-0.2,0-0.3,0.1-0.5,0.1c-0.5,0-1-0.1-1.4-0.3c-0.4-0.2-0.7-0.5-0.9-0.9c-0.2-0.4-0.3-0.9-0.3-1.4c0-0.5,0.1-1,0.3-1.5
				c0.2-0.4,0.5-0.7,0.9-1c0.4-0.2,0.9-0.3,1.4-0.3c0.3,0,0.5,0,0.8,0.1c0.2,0.1,0.4,0.2,0.6,0.4c0.1,0,0.1,0.1,0.1,0.1
				c0.1,0,0.2-0.1,0.2-0.4h0.2c0,0.3,0,0.9,0,1.8H86c0-0.2-0.1-0.5-0.1-0.6c0-0.2-0.1-0.3-0.2-0.4c-0.1-0.1-0.2-0.2-0.3-0.3
				c-0.1-0.1-0.3-0.2-0.4-0.3c-0.2-0.1-0.3-0.1-0.5-0.1c-0.3,0-0.6,0.1-0.8,0.4c-0.2,0.2-0.4,0.5-0.5,0.9C83,87,83,87.5,83,87.9
				c0,0.5,0.1,0.9,0.2,1.3c0.1,0.4,0.3,0.7,0.5,0.9c0.2,0.2,0.5,0.3,0.8,0.3c0.2,0,0.3,0,0.5-0.1c0.2-0.1,0.3-0.2,0.4-0.3
				c0.1-0.1,0.2-0.2,0.3-0.3c0.1-0.1,0.1-0.3,0.2-0.4c0-0.2,0.1-0.4,0.1-0.7h0.2c0,0.9,0,1.5,0,1.9H86C86,90.4,85.9,90.3,85.9,90.2z
				"/>
			<path class="st1" d="M87.6,86.5c0-0.3,0-0.8-0.1-1.3c0.5,0,1.2,0,2.3,0c1.1,0,1.8,0,2.3,0c0,0.5-0.1,0.9-0.1,1.3
				c0,0.2,0,0.4,0,0.6h-0.2c-0.1-0.4-0.2-0.7-0.3-1c-0.1-0.2-0.3-0.4-0.4-0.5c-0.2-0.1-0.4-0.2-0.6-0.2h-0.2v4.2
				c0,0.2,0,0.4,0.1,0.5c0,0.1,0.1,0.2,0.2,0.2c0.1,0,0.3,0.1,0.5,0.1v0.1c-0.6,0-1.1,0-1.4,0c-0.3,0-0.8,0-1.4,0v-0.1
				c0.2,0,0.4,0,0.5-0.1c0.1,0,0.2-0.1,0.2-0.2c0-0.1,0.1-0.2,0.1-0.5v-4.2H89c-0.2,0-0.4,0.1-0.6,0.2c-0.2,0.1-0.3,0.3-0.4,0.5
				c-0.1,0.2-0.2,0.6-0.3,1h-0.2C87.5,86.9,87.6,86.7,87.6,86.5z"/>
			<path class="st1" d="M94,89.9c0.2,0.3,0.5,0.5,1,0.5c0.2,0,0.3,0,0.5-0.1c0.1-0.1,0.2-0.2,0.3-0.3c0.1-0.1,0.1-0.3,0.1-0.5
				c0-0.2,0-0.4-0.1-0.5c-0.1-0.2-0.2-0.3-0.4-0.4c-0.2-0.1-0.4-0.3-0.6-0.4c-0.3-0.2-0.5-0.4-0.7-0.5s-0.3-0.3-0.4-0.5
				c-0.1-0.2-0.2-0.4-0.2-0.7c0-0.3,0.1-0.6,0.2-0.8c0.2-0.2,0.4-0.4,0.6-0.5c0.3-0.1,0.5-0.1,0.8-0.1c0.2,0,0.3,0,0.5,0
				c0.1,0,0.2,0.1,0.3,0.1c0.1,0,0.2,0.1,0.3,0.2c0.1,0.1,0.2,0.1,0.3,0.1c0,0,0.1,0,0.1-0.1c0-0.1,0-0.1,0.1-0.2h0.2
				c0,0.3,0,0.9,0,1.7h-0.2c0-0.3-0.1-0.5-0.2-0.8c-0.1-0.2-0.2-0.4-0.4-0.6c-0.2-0.2-0.4-0.2-0.7-0.2c-0.2,0-0.3,0-0.4,0.1
				c-0.1,0.1-0.2,0.1-0.3,0.3c-0.1,0.1-0.1,0.2-0.1,0.4c0,0.2,0.1,0.4,0.2,0.6c0.1,0.2,0.3,0.3,0.6,0.5c0.2,0.2,0.4,0.3,0.5,0.3
				c0.3,0.2,0.5,0.4,0.7,0.5c0.2,0.1,0.3,0.3,0.4,0.5c0.1,0.2,0.2,0.4,0.2,0.7c0,0.3-0.1,0.6-0.2,0.8c-0.2,0.2-0.4,0.4-0.7,0.5
				c-0.3,0.1-0.6,0.2-0.9,0.2c-0.3,0-0.5,0-0.7-0.1c-0.2,0-0.4-0.1-0.5-0.2c-0.1-0.1-0.2-0.1-0.3-0.1c0,0-0.1,0-0.1,0.1
				c0,0.1,0,0.1-0.1,0.2h-0.2c0-0.3,0-1,0-2h0.2C93.7,89.1,93.8,89.6,94,89.9z"/>
		</g>
		<g>
			<path class="st1" d="M32.8,95.6c-0.1,0-0.1,0.1-0.1,0.1c0,0.1,0,0.2,0,0.3v3.1c0,0.2,0,0.3,0,0.3s0.1,0.1,0.1,0.1
				c0.1,0,0.2,0,0.3,0v0.1c-0.2,0-0.5,0-1,0c-0.4,0-0.8,0-1,0v-0.1c0.1,0,0.2,0,0.3,0c0.1,0,0.1-0.1,0.1-0.1c0-0.1,0-0.2,0-0.3v-1.5
				h-1.7v1.5c0,0.2,0,0.3,0,0.3c0,0.1,0.1,0.1,0.1,0.1c0.1,0,0.2,0,0.3,0v0.1c-0.2,0-0.5,0-1,0c-0.5,0-0.8,0-1,0v-0.1
				c0.1,0,0.2,0,0.3,0c0.1,0,0.1-0.1,0.1-0.1c0-0.1,0-0.2,0-0.3v-3.1c0-0.2,0-0.3,0-0.3c0-0.1-0.1-0.1-0.1-0.1c-0.1,0-0.2,0-0.3,0
				v-0.1c0.2,0,0.5,0,1,0c0.4,0,0.7,0,1,0v0.1c-0.1,0-0.2,0-0.3,0c-0.1,0-0.1,0.1-0.1,0.1c0,0.1,0,0.2,0,0.3v1.5h1.7v-1.5
				c0-0.2,0-0.3,0-0.3c0-0.1-0.1-0.1-0.1-0.1c-0.1,0-0.2,0-0.3,0v-0.1c0.2,0,0.6,0,1,0c0.4,0,0.7,0,1,0v0.1
				C33,95.6,32.9,95.6,32.8,95.6z"/>
			<path class="st1" d="M37.6,99c0,0.4,0,0.7,0,1c-0.3,0-0.8,0-1.4,0c-0.9,0-1.6,0-2.1,0v-0.1c0.1,0,0.2,0,0.3,0
				c0.1,0,0.1-0.1,0.1-0.1c0-0.1,0-0.2,0-0.3v-3.1c0-0.2,0-0.3,0-0.3c0-0.1-0.1-0.1-0.1-0.1c-0.1,0-0.2,0-0.3,0v-0.1
				c0.5,0,1.1,0,2.1,0c0.6,0,1.1,0,1.3,0c0,0.3,0,0.7,0,0.9c0,0.2,0,0.3,0,0.4h-0.1c0-0.3-0.1-0.5-0.2-0.7c-0.1-0.2-0.2-0.3-0.3-0.4
				s-0.3-0.1-0.5-0.1h-0.3c-0.1,0-0.2,0-0.3,0c-0.1,0-0.1,0.1-0.1,0.1c0,0.1,0,0.2,0,0.3v1.6h0.2c0.2,0,0.4-0.1,0.5-0.2
				c0.1-0.2,0.2-0.4,0.2-0.6h0.1c0,0.2,0,0.4,0,0.6l0,0.3c0,0.2,0,0.5,0,0.9h-0.1c-0.1-0.6-0.3-0.8-0.8-0.8h-0.2v1.6
				c0,0.1,0,0.2,0,0.3c0,0.1,0.1,0.1,0.1,0.1s0.2,0,0.3,0h0.3c0.3,0,0.5-0.1,0.7-0.3c0.2-0.2,0.3-0.6,0.4-1h0.1
				C37.6,98.6,37.6,98.7,37.6,99z"/>
			<path class="st1" d="M42.7,99.9c-0.1,0.1-0.3,0.1-0.5,0.1c-0.2,0-0.4-0.1-0.6-0.2c-0.1-0.1-0.2-0.3-0.3-0.5l-0.1-0.6
				c0-0.2-0.1-0.4-0.1-0.5c0-0.1-0.1-0.2-0.2-0.3c-0.1-0.1-0.2-0.1-0.3-0.1h-0.4v1.5c0,0.2,0,0.3,0,0.3c0,0.1,0.1,0.1,0.1,0.1
				c0.1,0,0.2,0,0.3,0v0.1c-0.2,0-0.5,0-1,0c-0.5,0-0.8,0-1,0v-0.1c0.1,0,0.2,0,0.3,0c0.1,0,0.1-0.1,0.1-0.1s0-0.2,0-0.3v-3.1
				c0-0.2,0-0.3,0-0.3c0-0.1-0.1-0.1-0.1-0.1c-0.1,0-0.2,0-0.3,0v-0.1c0.2,0,0.5,0,1,0c0.2,0,0.4,0,0.6,0c0.2,0,0.3,0,0.4,0
				c0.6,0,1,0.1,1.3,0.3c0.3,0.2,0.4,0.5,0.4,0.8c0,0.2,0,0.4-0.1,0.5c-0.1,0.2-0.2,0.3-0.5,0.4c-0.2,0.1-0.5,0.2-0.8,0.2h0
				c0.3,0,0.5,0.1,0.6,0.1s0.3,0.2,0.4,0.3c0.1,0.1,0.2,0.3,0.2,0.4l0.1,0.7c0,0.2,0.1,0.3,0.1,0.4c0,0.1,0.1,0.1,0.2,0.1
				c0,0,0.1,0,0.1,0c0,0,0.1-0.1,0.1-0.1l0.1,0.1C43,99.8,42.8,99.9,42.7,99.9z M41.1,97.5c0.1-0.1,0.2-0.2,0.3-0.4
				c0.1-0.2,0.1-0.3,0.1-0.5c0-0.3-0.1-0.6-0.2-0.8s-0.3-0.3-0.6-0.3c-0.1,0-0.2,0-0.3,0c-0.1,0-0.1,0.1-0.1,0.2c0,0.1,0,0.2,0,0.3
				v1.6h0.3C40.8,97.7,41,97.6,41.1,97.5z"/>
			<path class="st1" d="M47,97.8c0.2,0.1,0.4,0.2,0.5,0.4c0.1,0.2,0.2,0.3,0.2,0.5c0,0.3-0.1,0.5-0.2,0.7c-0.1,0.2-0.3,0.3-0.6,0.4
				c-0.3,0.1-0.6,0.1-0.9,0.1c-0.1,0-0.2,0-0.5,0c-0.2,0-0.4,0-0.7,0c-0.4,0-0.8,0-1,0v-0.1c0.1,0,0.2,0,0.3,0
				c0.1,0,0.1-0.1,0.1-0.1s0-0.2,0-0.3v-3.1c0-0.2,0-0.3,0-0.3c0-0.1-0.1-0.1-0.1-0.1c-0.1,0-0.2,0-0.3,0v-0.1c0.2,0,0.5,0,1,0
				c0.2,0,0.4,0,0.6,0c0.2,0,0.3,0,0.4,0c0.3,0,0.6,0,0.9,0.1s0.4,0.2,0.5,0.3c0.1,0.1,0.2,0.3,0.2,0.5c0,0.2,0,0.3-0.1,0.5
				c-0.1,0.2-0.2,0.3-0.4,0.4c-0.2,0.1-0.4,0.2-0.7,0.3v0C46.4,97.6,46.7,97.7,47,97.8z M46.1,97.3c0.1-0.2,0.2-0.4,0.2-0.7
				c0-0.3,0-0.6-0.1-0.7s-0.3-0.2-0.5-0.2c-0.1,0-0.2,0-0.3,0c-0.1,0-0.1,0.1-0.1,0.2c0,0.1,0,0.2,0,0.3v1.4h0.3
				C45.8,97.5,46,97.4,46.1,97.3z M45.3,99.6c0,0.1,0.1,0.1,0.1,0.1c0.1,0,0.2,0,0.3,0c0.6,0,0.9-0.4,0.9-1.1c0-0.3-0.1-0.6-0.3-0.8
				c-0.2-0.2-0.4-0.3-0.8-0.3h-0.3v1.6C45.3,99.4,45.3,99.5,45.3,99.6z"/>
			<path class="st1" d="M52.4,99.7c0.1,0.1,0.1,0.1,0.2,0.1v0.1c-0.3,0-0.6,0-1,0c-0.4,0-0.8,0-1,0v-0.1c0.2,0,0.3,0,0.3-0.1
				c0.1,0,0.1-0.1,0.1-0.2c0-0.1,0-0.2-0.1-0.3l-0.4-1h-1.4l-0.2,0.4C49,98.9,49,99.2,49,99.4c0,0.2,0,0.3,0.1,0.3
				c0.1,0.1,0.2,0.1,0.4,0.1v0.1c-0.3,0-0.5,0-0.8,0c-0.2,0-0.4,0-0.5,0v-0.1c0.2,0,0.4-0.3,0.5-0.7l1.4-3.7c0.1,0,0.1,0,0.2,0
				c0.1,0,0.2,0,0.2,0l1.5,4C52.3,99.5,52.3,99.6,52.4,99.7z M50,96.4l-0.7,1.7h1.3L50,96.4z"/>
			<path class="st1" d="M55,95.6c-0.1,0-0.1,0.1-0.1,0.1c0,0.1,0,0.2,0,0.3v3.2c0,0.1,0,0.2,0,0.3c0,0.1,0.1,0.1,0.1,0.1
				c0.1,0,0.1,0,0.3,0h0.3c0.2,0,0.4-0.1,0.5-0.2c0.2-0.1,0.3-0.3,0.4-0.5c0.1-0.2,0.2-0.5,0.2-0.7h0.1c0,0.1,0,0.3,0,0.6
				c0,0.4,0,0.7,0,1c-0.3,0-0.8,0-1.4,0c-0.9,0-1.6,0-2.1,0v-0.1c0.1,0,0.2,0,0.3,0c0.1,0,0.1-0.1,0.1-0.1c0-0.1,0-0.2,0-0.3v-3.1
				c0-0.2,0-0.3,0-0.3c0-0.1-0.1-0.1-0.1-0.1c-0.1,0-0.2,0-0.3,0v-0.1c0.2,0,0.5,0,1,0c0.4,0,0.8,0,1,0v0.1
				C55.1,95.6,55,95.6,55,95.6z"/>
			<path class="st1" d="M64.1,95.6c-0.1,0-0.1,0.1-0.1,0.1c0,0.1,0,0.2,0,0.3v3.1c0,0.2,0,0.3,0,0.3s0.1,0.1,0.1,0.1
				c0.1,0,0.2,0,0.3,0v0.1c-0.2,0-0.5,0-1,0c-0.4,0-0.8,0-1,0v-0.1c0.1,0,0.2,0,0.3,0c0.1,0,0.1-0.1,0.1-0.1c0-0.1,0-0.2,0-0.3v-1.5
				h-1.7v1.5c0,0.2,0,0.3,0,0.3c0,0.1,0.1,0.1,0.1,0.1c0.1,0,0.2,0,0.3,0v0.1c-0.2,0-0.5,0-1,0c-0.5,0-0.8,0-1,0v-0.1
				c0.1,0,0.2,0,0.3,0c0.1,0,0.1-0.1,0.1-0.1s0-0.2,0-0.3v-3.1c0-0.2,0-0.3,0-0.3c0-0.1-0.1-0.1-0.1-0.1c-0.1,0-0.2,0-0.3,0v-0.1
				c0.2,0,0.5,0,1,0c0.4,0,0.7,0,1,0v0.1c-0.1,0-0.2,0-0.3,0c-0.1,0-0.1,0.1-0.1,0.1c0,0.1,0,0.2,0,0.3v1.5H63v-1.5
				c0-0.2,0-0.3,0-0.3c0-0.1-0.1-0.1-0.1-0.1c-0.1,0-0.2,0-0.3,0v-0.1c0.2,0,0.6,0,1,0c0.4,0,0.7,0,1,0v0.1
				C64.3,95.6,64.2,95.6,64.1,95.6z"/>
			<path class="st1" d="M68.9,95.6c0.3,0.2,0.6,0.4,0.8,0.8c0.2,0.3,0.3,0.8,0.3,1.2c0,0.5-0.1,0.9-0.3,1.2
				c-0.2,0.4-0.5,0.6-0.8,0.8c-0.3,0.2-0.7,0.3-1.2,0.3c-0.4,0-0.8-0.1-1.2-0.3s-0.6-0.4-0.8-0.8c-0.2-0.3-0.3-0.8-0.3-1.2
				c0-0.5,0.1-0.9,0.3-1.2c0.2-0.4,0.5-0.6,0.8-0.8c0.3-0.2,0.7-0.3,1.2-0.3C68.2,95.3,68.6,95.4,68.9,95.6z M67.1,95.7
				c-0.2,0.2-0.3,0.5-0.4,0.8c-0.1,0.3-0.1,0.7-0.1,1.2c0,0.4,0.1,0.8,0.2,1.2c0.1,0.3,0.3,0.6,0.4,0.8c0.2,0.2,0.4,0.3,0.6,0.3
				c0.2,0,0.4-0.1,0.6-0.3c0.2-0.2,0.3-0.5,0.4-0.8c0.1-0.3,0.1-0.7,0.1-1.2c0-0.4-0.1-0.8-0.2-1.2c-0.1-0.3-0.3-0.6-0.4-0.8
				c-0.2-0.2-0.4-0.3-0.6-0.3C67.5,95.5,67.3,95.6,67.1,95.7z"/>
			<path class="st1" d="M74.8,95.7c-0.1,0.1-0.1,0.1-0.1,0.2c0,0.1,0,0.3,0,0.5v1.7c0,0.6-0.1,1-0.3,1.3c-0.1,0.2-0.3,0.3-0.5,0.4
				c-0.2,0.1-0.5,0.2-0.8,0.2c-0.5,0-0.9-0.1-1.1-0.3c-0.1-0.1-0.2-0.2-0.3-0.4c-0.1-0.1-0.1-0.3-0.1-0.5c0-0.2,0-0.4,0-0.7v-2
				c0-0.2,0-0.3,0-0.3c0-0.1-0.1-0.1-0.1-0.1c-0.1,0-0.2,0-0.3,0v-0.1c0.2,0,0.5,0,1,0c0.4,0,0.8,0,1,0v0.1c-0.2,0-0.3,0-0.3,0
				s-0.1,0.1-0.1,0.1c0,0.1,0,0.2,0,0.3v2.4c0,0.3,0,0.5,0.1,0.7c0.1,0.2,0.1,0.3,0.3,0.4c0.1,0.1,0.3,0.1,0.5,0.1
				c0.4,0,0.7-0.1,0.9-0.4c0.2-0.3,0.3-0.7,0.3-1.2v-1.7c0-0.2,0-0.4,0-0.5c0-0.1-0.1-0.2-0.2-0.3c-0.1-0.1-0.2-0.1-0.4-0.1v-0.1
				c0.2,0,0.4,0,0.7,0c0.2,0,0.4,0,0.5,0v0.1C74.9,95.6,74.8,95.6,74.8,95.7z"/>
			<path class="st1" d="M76.6,99.4c0.2,0.3,0.5,0.4,0.8,0.4c0.1,0,0.3,0,0.4-0.1c0.1-0.1,0.2-0.1,0.3-0.2c0.1-0.1,0.1-0.2,0.1-0.4
				c0-0.2,0-0.3-0.1-0.4c-0.1-0.1-0.2-0.3-0.3-0.4c-0.1-0.1-0.3-0.2-0.5-0.4c-0.3-0.2-0.5-0.3-0.6-0.4c-0.1-0.1-0.3-0.3-0.4-0.4
				c-0.1-0.2-0.1-0.4-0.1-0.6c0-0.3,0.1-0.5,0.2-0.6c0.1-0.2,0.3-0.3,0.5-0.4c0.2-0.1,0.4-0.1,0.7-0.1c0.2,0,0.3,0,0.4,0
				c0.1,0,0.2,0.1,0.3,0.1c0.1,0,0.2,0.1,0.2,0.1c0.1,0.1,0.2,0.1,0.2,0.1c0,0,0.1,0,0.1-0.1c0,0,0-0.1,0-0.2H79c0,0.3,0,0.8,0,1.4
				h-0.1c0-0.2-0.1-0.4-0.2-0.7c-0.1-0.2-0.2-0.4-0.4-0.5c-0.2-0.1-0.3-0.2-0.6-0.2c-0.1,0-0.3,0-0.4,0.1c-0.1,0.1-0.2,0.1-0.2,0.2
				c-0.1,0.1-0.1,0.2-0.1,0.3c0,0.2,0.1,0.4,0.2,0.5c0.1,0.1,0.3,0.3,0.5,0.4c0.2,0.1,0.3,0.2,0.4,0.3c0.2,0.2,0.4,0.3,0.6,0.4
				c0.1,0.1,0.3,0.3,0.4,0.4c0.1,0.2,0.1,0.4,0.1,0.6c0,0.3-0.1,0.5-0.2,0.7s-0.3,0.3-0.6,0.4c-0.2,0.1-0.5,0.1-0.8,0.1
				c-0.2,0-0.4,0-0.6-0.1s-0.3-0.1-0.4-0.2c-0.1-0.1-0.2-0.1-0.2-0.1c0,0-0.1,0-0.1,0.1c0,0,0,0.1,0,0.2h-0.1c0-0.3,0-0.8,0-1.7h0.1
				C76.4,98.7,76.5,99.1,76.6,99.4z"/>
			<path class="st1" d="M83.8,99c0,0.4,0,0.7,0,1c-0.3,0-0.8,0-1.4,0c-0.9,0-1.6,0-2.1,0v-0.1c0.1,0,0.2,0,0.3,0
				c0.1,0,0.1-0.1,0.1-0.1c0-0.1,0-0.2,0-0.3v-3.1c0-0.2,0-0.3,0-0.3c0-0.1-0.1-0.1-0.1-0.1c-0.1,0-0.2,0-0.3,0v-0.1
				c0.5,0,1.1,0,2.1,0c0.6,0,1.1,0,1.3,0c0,0.3,0,0.7,0,0.9c0,0.2,0,0.3,0,0.4h-0.1c0-0.3-0.1-0.5-0.2-0.7c-0.1-0.2-0.2-0.3-0.3-0.4
				c-0.1-0.1-0.3-0.1-0.5-0.1h-0.3c-0.1,0-0.2,0-0.3,0c-0.1,0-0.1,0.1-0.1,0.1c0,0.1,0,0.2,0,0.3v1.6H82c0.2,0,0.4-0.1,0.5-0.2
				c0.1-0.2,0.2-0.4,0.2-0.6h0.1c0,0.2,0,0.4,0,0.6l0,0.3c0,0.2,0,0.5,0,0.9h-0.1c-0.1-0.6-0.3-0.8-0.8-0.8h-0.2v1.6
				c0,0.1,0,0.2,0,0.3c0,0.1,0.1,0.1,0.1,0.1c0.1,0,0.2,0,0.3,0h0.3c0.3,0,0.5-0.1,0.7-0.3c0.2-0.2,0.3-0.6,0.4-1h0.1
				C83.8,98.6,83.8,98.7,83.8,99z"/>
		</g>
		<g>
			<rect x="49" y="77.7" class="st1" width="16.8" height="1.7"/>
		</g>
	</g>
</g>
</svg>
