<?xml version="1.0" encoding="utf-8"?>
<!-- Generator: Adobe Illustrator 24.1.1, SVG Export Plug-In . SVG Version: 6.00 Build 0)  -->
<svg version="1.1" id="Layer_1" xmlns="http://www.w3.org/2000/svg" xmlns:xlink="http://www.w3.org/1999/xlink" x="0px" y="0px"
	 viewBox="0 0 118.5 120" style="enable-background:new 0 0 118.5 120;" xml:space="preserve">
<style type="text/css">
	.st0{fill:#F9E1E4;}
	.st1{fill:#3A3A3A;}
</style>
<g>
	<path class="st0" d="M88.7,14.2c-4.5-1-9-1.6-13.5-2.1c-5.2-0.6-10.4-1.5-15.6-1.6c-3.8-0.1-7.2,0.7-10.5,2.1
		c-2.8-0.1-5.7,0.1-8.4,0.7c0,0,0,0,0,0c-5.1-0.3-10,1.7-13.6,5.2c-3.5,3.3-6.1,7.3-8.7,11.4c-2.3,3.5-5.2,6.7-7.5,10.3
		C9,43,7.8,45.9,7.2,48.9C7.1,49.3,7,49.6,6.9,50c-2.5,8.9-2,18.5,1.7,27c3,6.8,7.6,12.5,13.3,16.8c7.1,15.1,23.6,23.9,40.2,19.9
		c1.9-0.5,3.7-1,5.5-1.8c15.2,0.9,25.3-9.9,31.9-22.4c2.9-3.2,5.5-6.6,7.7-10.1c9.4-14.7,16.7-34.7,6.1-50.7
		C107.6,20.3,98.1,16.3,88.7,14.2z"/>
	<g>
		<g>
			<g>
				<path class="st1" d="M60.8,98.2c0.9-1.6,1.2-3.4,1.4-5.2c0.3-2.1,0.5-4.2,0.7-6.3c0.4-4.5,0.5-8.9,0.4-13.4
					c-0.3-8.7-1.7-17.3-4.9-25.4c-0.1-0.4-0.7-0.2-0.6,0.2c3.1,7.9,4.5,16.3,4.9,24.7c0.2,4.1,0,8.3-0.2,12.4
					c-0.2,2.1-0.4,4.2-0.6,6.3c-0.3,2.2-0.4,4.4-1.5,6.3C60,98.3,60.6,98.6,60.8,98.2L60.8,98.2z"/>
			</g>
			<g>
				<path class="st1" d="M63.1,77.1c-6.1-2.5-10.3-8.7-10.7-15.2c-0.2,0.1-0.3,0.2-0.5,0.3c5.6,2.4,9.9,8.6,10.8,14.5
					c0.1,0.4,0.6,0.2,0.6-0.2c-0.9-6-5.4-12.5-11.1-14.9c-0.2-0.1-0.5,0-0.5,0.3c0.5,6.9,4.8,13.2,11.2,15.8
					C63.3,77.9,63.4,77.3,63.1,77.1L63.1,77.1z"/>
			</g>
			<g>
				<path class="st1" d="M62.8,91.7C63,85,67.3,79,73.3,76.2c-0.2-0.1-0.3-0.2-0.5-0.3c-0.2,6-4.6,12.3-9.8,15.2
					c-0.3,0.2,0,0.7,0.3,0.5c5.4-3,9.8-9.5,10.1-15.7c0-0.2-0.3-0.3-0.5-0.3c-6.2,2.8-10.6,9.1-10.8,16
					C62.2,92.1,62.8,92.1,62.8,91.7L62.8,91.7z"/>
			</g>
			<g>
				<path class="st1" d="M62.7,86.2c-4.4-1.5-7.5-5.6-8.2-10.2c-0.1,0.1-0.2,0.2-0.4,0.4c4,1.4,7.2,5.5,8.1,9.6
					c0.1,0.4,0.7,0.2,0.6-0.2c-1-4.3-4.4-8.5-8.6-10c-0.2-0.1-0.4,0.2-0.4,0.4c0.7,4.8,4,9,8.6,10.6C62.9,86.9,63,86.3,62.7,86.2
					L62.7,86.2z"/>
			</g>
			<g>
				<path class="st1" d="M56.4,47.7c-1.5-1.2-3-2.5-4.3-4c-1.5-1.8-2.5-4-3.5-6.1c-0.8-2-1.5-4-1.9-6.1c-0.2-1-0.6-3.1,0.5-3.8
					c1-0.7,2.2,0.2,3.2-0.2c0.3-0.1,0.5-0.3,0.7-0.4c0.6-0.4,0.8-0.7,1.7-0.8c0.9-0.1,0.8,0.1,1.4,0.3c0.3,0.1,0.6,0.1,0.9,0.1
					c0.8,0,1.6-0.4,2.4-0.7c1.2-0.4,2.5-0.5,3.8-0.2c2.6,0.6,3.2,3.1,3.7,5.4c0.5,2.4,0.6,4.9,0.2,7.4c-0.7,4.5-3.2,8.6-7,11
					c-0.3,0.2,0,0.7,0.3,0.5c3.7-2.3,6.2-6.2,7.1-10.4c0.5-2.4,0.6-5,0.2-7.5c-0.3-2-0.7-4.8-2.4-6.2c-1.6-1.3-3.9-1.3-5.8-0.8
					c-0.6,0.2-1.1,0.4-1.7,0.6c-1,0.2-1.6-0.1-2.4-0.5c-0.8-0.3-1.5,0.1-2.1,0.5c-0.8,0.6-1,1-2.3,0.9c-0.5,0-0.9-0.3-1.3-0.2
					c-0.6,0.1-1.1,0.5-1.5,1c-1.1,1.7-0.2,4.5,0.3,6.2c0.8,2.8,1.9,5.6,3.4,8.1c1.5,2.4,3.6,4.3,5.8,6.1
					C56.3,48.3,56.7,47.9,56.4,47.7L56.4,47.7z"/>
			</g>
			<g>
				<path class="st1" d="M65.7,29.5c0.9-0.6,2.1-0.6,2.9,0.1c0.5,0.4,0.8,1.1,1.2,1.6c0.6,0.8,1.3,1.1,2.3,1.3c0.7,0.1,1.4-0.1,2,0
					c1,0.2,1.7,1.2,2.2,2c0.9,1.4,1.3,3.1,0.7,4.8c-1.1,2.7-3.7,4.9-6.1,6.5c-2.4,1.6-5.6,3.6-8.6,3.6c-0.4,0-0.4,0.6,0,0.6
					c3.4,0.1,7.1-2.3,9.8-4.3c2.4-1.8,5.6-4.5,5.8-7.7c0.1-1.6-0.5-3.1-1.4-4.3c-0.8-1.1-1.5-1.8-2.9-1.8c-1.5,0-2.6-0.1-3.5-1.4
					c-0.4-0.6-0.7-1.2-1.3-1.6c-1-0.7-2.3-0.6-3.4,0.1C65.1,29.2,65.4,29.7,65.7,29.5L65.7,29.5z"/>
			</g>
			<g>
				<path class="st1" d="M75,42.5c-0.5,1.2,0.1,2.3,1,3c1,0.9,2.4,1.5,1.2,3c-0.3,0.4-0.4,0.7-0.6,1.2c-0.8,1.9-3.9,2.4-5.7,2.4
					c-2.3,0-4.5-0.6-6.7-1.2c-0.4-0.1-0.5,0.5-0.2,0.6c3.9,1.1,8.9,2.3,12.4-0.5c0.8-0.7,0.5-0.9,1-1.8c0.3-0.6,1-1,1.1-1.8
					c0.2-2.2-4-2.3-2.9-4.9C75.8,42.3,75.2,42.1,75,42.5L75,42.5z"/>
			</g>
			<g>
				<path class="st1" d="M62.1,50.1c0.7,0.6,1.5,1,2.4,1.4c0.4,0.1,0.5-0.4,0.2-0.6c-0.8-0.3-1.5-0.7-2.1-1.2
					C62.2,49.5,61.8,49.9,62.1,50.1L62.1,50.1z"/>
			</g>
			<g>
				<path class="st1" d="M72.4,52.4c-0.6,0.5-0.9,1.1-1.1,1.9c0.1-0.1,0.2-0.1,0.4-0.2c-0.7-0.1-1.1,0.2-1.4,0.8
					c-0.1,0.3-0.1,0.6-0.2,0.9c-0.4,1-1,1.2-1.9,1.2c-0.8,0-1.7-0.5-2.4-0.8c-2.6-1.4-4.8-3.5-6.2-6.1c-0.2-0.3-0.7,0-0.5,0.3
					c1.5,2.7,3.7,4.9,6.4,6.3c1,0.5,2.3,1.2,3.5,0.9c0.5-0.1,1-0.4,1.3-0.8c0.4-0.5,0.5-2.3,1.3-2.2c0.2,0,0.3,0,0.4-0.2
					c0.1-0.6,0.5-1.2,0.9-1.6C73.2,52.5,72.7,52.1,72.4,52.4L72.4,52.4z"/>
			</g>
			<g>
				<path class="st1" d="M49.1,48c-0.8,0.2-1.8,0.4-2.1,1.3c-0.3,0.7-0.1,1.6-0.3,2.4c-0.1,0.5-0.3,0.9-0.6,1.4
					c-0.1,0.3-0.4,0.6-0.7,0.7c-0.2,0.2-0.5,0.2-0.8,0.1c-0.6,0.2-1,0.6-0.8,1.3c0.3,1,1.7,1.5,2.6,1.8c2.5,0.7,6,0.6,8.4-0.5
					c2.6-1.1,3.6-3.5,4.6-6c0.1-0.4-0.4-0.5-0.6-0.2c-0.9,2.4-2,4.8-4.5,5.7c-1.9,0.7-4.1,0.8-6.1,0.6c-0.7-0.1-4.5-0.6-3.1-2.1
					c-0.1,0.1,0.8-0.3,0.8-0.2c0.2-0.1,0.4-0.3,0.6-0.5c0.5-0.6,0.8-1.4,0.9-2.1c0.1-0.5,0.1-0.9,0.2-1.4c0.3-1.3,0.7-1.4,1.8-1.6
					C49.6,48.5,49.5,47.9,49.1,48L49.1,48z"/>
			</g>
			<g>
				<path class="st1" d="M46,29.3c0.4,2.6-4,2.1-5.4,3.2c-1.2,0.9-0.9,1.9-0.7,3.2c0.2,1.2-0.2,2.1-1.2,2.8
					c-0.2,0.2-0.5,0.3-0.7,0.5c-0.3,0.3-0.4,0.6-0.3,1c0.1,1.4,1.4,3,2.3,3.9c2.5,2.4,5.9,3.7,9.2,4.6c1.9,0.5,3.8,0.9,5.8,1.1
					c1.4,0.1,3.3,0.6,4.4-0.5c0.3-0.3-0.2-0.7-0.4-0.4c-0.8,0.8-2.2,0.5-3.2,0.4c-1-0.1-2-0.2-3-0.4c-1.8-0.3-3.6-0.8-5.4-1.4
					c-3.1-1.1-6.5-2.6-8.2-5.5c-0.2-0.3-0.5-0.7-0.6-1.1c-0.2-0.7,0.1-1.1,0.5-1.6c0.4-0.4,0.8-0.6,1.1-1.1c0.3-0.4,0.4-1,0.5-1.5
					c0.1-1.1-0.7-2.2,0.2-3.3c1.5-1.7,6.4-0.5,5.9-4.1C46.5,28.8,45.9,29,46,29.3L46,29.3z"/>
			</g>
			<g>
				<path class="st1" d="M55.9,47.6c1.2,0.4,2.6-2.4,3-3.2c-0.2,0-0.4,0-0.6-0.1c0.9,2.6,4.5,1,6,0.1c0.3-0.2,0-0.7-0.3-0.5
					c-0.7,0.4-1.4,0.9-2.2,1.1c-0.9,0.2-2.5,0.2-2.9-0.8c-0.1-0.2-0.4-0.3-0.6-0.1c-0.3,0.5-1.7,3.2-2.3,2.9
					C55.6,46.9,55.5,47.5,55.9,47.6L55.9,47.6z"/>
			</g>
			<g>
				<path class="st1" d="M55.5,47.8c0.4,0.4,0.4,0.9,0.1,1.5c-0.2,0.2-0.1,0.4,0.1,0.5c1.5,0.5,1.6,2.2,1.7,3.5c0,0.4,0.6,0.4,0.6,0
					c-0.1-1.7-0.4-3.4-2.2-4.1c0,0.2,0.1,0.3,0.1,0.5c0.8-0.6,0.4-1.5-0.1-2.2C55.8,47.1,55.3,47.4,55.5,47.8L55.5,47.8z"/>
			</g>
			<g>
				<path class="st1" d="M58.5,53c0.2-0.5,1.6-0.2,2,0c0.3,0.2,0.5,0.3,0.8,0.5c0.2,0.1,0.4,0,0.4-0.2c0.2-1.2,1.1-1.7,2.1-2
					c0.4-0.1,0.2-0.7-0.2-0.6c0.3-0.1,0.6-0.8,0.8-1c0.4-0.4,0.7-0.7,1.1-1c-0.1,0-0.3-0.1-0.4-0.1c0.1,0.1,0.1,0.2,0.2,0.3
					c0.1,0.1,0.3,0.2,0.4,0.1c0.6-0.3,0.9-0.7,1.2-1.2c-0.2-0.1-0.4-0.2-0.6-0.2c-0.2,0.2-0.4,0.4-0.6,0.6c-0.4,0.2,0,0.7,0.3,0.5
					c0.5-0.2,0.7-0.5,0.9-1c0.1-0.3-0.4-0.5-0.6-0.2c-0.2,0.5-0.5,0.8-1,1c0.1,0,0.3,0.1,0.4,0.1c-0.1-0.1-0.1-0.2-0.2-0.3
					c-0.1-0.1-0.3-0.2-0.4-0.1c-0.7,0.5-2,1.5-2.1,2.5c0,0.4,0.1,0.7,0.6,0.6c-0.1-0.2-0.1-0.4-0.2-0.6c-1.2,0.4-2.3,1-2.5,2.4
					c0.1-0.1,0.3-0.1,0.4-0.2c-1.1-0.6-2.8-1.8-3.7-0.2C57.8,53,58.3,53.3,58.5,53L58.5,53z"/>
			</g>
			<g>
				<path class="st1" d="M74.6,33.6c0.1,5.1-3.7,8.7-7.2,11.9c-0.3,0.3,0.1,0.7,0.4,0.4c3.6-3.3,7.5-7.1,7.4-12.3
					C75.2,33.2,74.6,33.2,74.6,33.6L74.6,33.6z"/>
			</g>
			<g>
				<path class="st1" d="M67.4,45.5c-1.5,0.8-3.2,0.9-4.8,0.3c-0.4-0.1-0.5,0.5-0.2,0.6c1.8,0.6,3.6,0.5,5.3-0.4
					C68.1,45.8,67.8,45.3,67.4,45.5L67.4,45.5z"/>
			</g>
			<g>
				<path class="st1" d="M67.1,45.9c-0.5,1.3-1.4,2.4-2.3,3.5c-0.2,0.3,0.2,0.7,0.4,0.4c1-1.2,1.9-2.3,2.4-3.8
					C67.8,45.7,67.2,45.5,67.1,45.9L67.1,45.9z"/>
			</g>
			<g>
				<path class="st1" d="M54.5,26.6c4.2,6,3.8,13.5,3.3,20.5c0,0.4,0.6,0.4,0.6,0c0.5-7.1,0.9-14.7-3.4-20.8
					C54.8,26,54.3,26.3,54.5,26.6L54.5,26.6z"/>
			</g>
			<g>
				<path class="st1" d="M38.9,37.5c3.4,5.8,9.6,8.7,15.9,10.2c0.4,0.1,0.5-0.5,0.2-0.6c-6.2-1.4-12.2-4.3-15.5-9.9
					C39.3,36.9,38.7,37.2,38.9,37.5L38.9,37.5z"/>
			</g>
			<g>
				<path class="st1" d="M46,54.2c3.9,1.8,8.4,1.4,11.9-1.1c0.3-0.2,0-0.7-0.3-0.5c-3.3,2.4-7.6,2.8-11.3,1.1
					C46,53.5,45.7,54,46,54.2L46,54.2z"/>
			</g>
			<g>
				<path class="st1" d="M64.4,50.1c2.1,0.6,4.3,0.9,6.4,1.2c1.9,0.2,3.8,0.2,5.6-0.6c0.4-0.2,0-0.7-0.3-0.5
					c-1.8,0.8-3.8,0.7-5.7,0.5c-2-0.2-3.9-0.5-5.8-1.1C64.2,49.4,64.1,50,64.4,50.1L64.4,50.1z"/>
			</g>
			<g>
				<path class="st1" d="M57.6,48.5c-0.1-0.4-0.1-0.4-0.4-0.6c-0.2-0.2-0.5,0-0.5,0.3c0.2,1.1,0.7,1.9,1.6,2.5
					c0.2,0.1,0.5-0.1,0.4-0.3c-0.3-0.7-0.6-1.2-1.1-1.7c-0.2-0.2-0.5,0-0.5,0.2c0,0.9,0.4,1.6,1,2.3c0.2,0.2,0.5,0,0.5-0.2
					c0-0.7-0.2-1-0.9-1.2c-0.2-0.1-0.4,0.2-0.4,0.4c0,0.1,0.5,1.2,0.4,1.3c0.2,0,0.3,0.1,0.5,0.1c-0.3-0.6-0.5-1.3-0.8-1.9
					c-0.1-0.4-0.7-0.2-0.6,0.2c0.2,0.8,0.6,1.4,1.2,1.9c0.3,0.3,0.7-0.1,0.4-0.4c-0.7-0.8-1.2-1.6-1.7-2.5c-0.1,0.2-0.2,0.3-0.3,0.5
					c2.1-0.1-0.4-2.4-0.5-0.6c-0.1,1.7,2.8-0.2,0.9-0.8c-1.6-0.5-1,2.6,0.4,1.3c0.4-0.4,0.7-1.5,0.2-1.9c-0.7-0.5-1,0.4-1,0.9
					c0,0.2,0.3,0.4,0.5,0.3c0.7-0.4,1.1-0.9,1.3-1.7c0.1-0.3-0.2-0.5-0.4-0.3c-0.6,0.3-1,0.7-1.2,1.3c-0.1,0.2,0.1,0.6,0.4,0.4
					c0.6-0.4,1-0.9,1.3-1.5c0.1-0.2-0.2-0.6-0.4-0.4c-0.5,0.4-1.9,1.9-0.8,2.5c1.1,0.6,1.8-1.8,1.8-2.4c0-0.3-0.3-0.5-0.5-0.3
					c-0.8,0.7-1.1,1.5-1.1,2.6c0,0.2,0.2,0.4,0.5,0.3c0.6-0.4,1.6-1.6,0.8-2.3c-0.9-0.7-1.9,0.9-2.2,1.5c-0.1,0.2,0.1,0.5,0.3,0.4
					c1-0.3,1.7-0.9,2.1-1.9c0.1-0.3-0.2-0.4-0.4-0.3c-0.9,0.5-1.6,1.1-2,2.1c-0.1,0.3,0.1,0.6,0.4,0.4c0.8-0.5,1.3-1.1,1.7-2
					c0.1-0.3-0.2-0.5-0.4-0.3c-0.6,0.3-1.1,0.7-1.6,1c0.1,0.1,0.3,0.2,0.4,0.3c0.1-0.3,0.3-0.5,0.4-0.8c-0.2-0.1-0.3-0.2-0.5-0.4
					c-0.4,0.8-0.7,2.4,0.6,2.5c1,0.1,1.5-1.2,1-1.9c-0.1-0.1-0.2-0.2-0.3-0.1c-0.8,0-2,1.5-1.3,2.2c1.1,1.1,2.6-1.6,2.9-2.3
					c0.1-0.3-0.1-0.6-0.4-0.4c-0.9,0.6-1.5,1.4-1.7,2.5c0,0.2,0.1,0.4,0.3,0.4c1.3-0.1,2.4-1.9,3.2-2.8c0.2-0.2-0.1-0.7-0.4-0.5
					c-0.9,0.6-1.5,1.4-1.9,2.4c-0.1,0.1,0.1,0.3,0.2,0.4c1.2,0.3,2.4-1.7,3-2.5c0.2-0.3-0.2-0.6-0.5-0.4c-0.7,0.7-1.3,1.4-1.9,2.2
					c-0.2,0.3,0.2,0.6,0.4,0.4c0.9-0.6,1.7-1.3,2.2-2.2c0.2-0.2-0.2-0.6-0.4-0.4c-0.7,0.5-1.3,1-1.8,1.7c-0.3,0.3,0.1,0.7,0.4,0.4
					c0.8-0.7,1.5-1.4,2.1-2.2c0.2-0.2-0.1-0.7-0.4-0.5c-0.6,0.3-1,0.7-1.5,1.2c0.1,0.1,0.3,0.3,0.4,0.4c0.6-0.6,1.2-1.3,1.8-2
					c0.2-0.3-0.1-0.7-0.4-0.4c-0.8,0.6-1.5,1.3-2.2,2.1c-0.3,0.3,0.1,0.7,0.4,0.4c0.6-0.5,1.1-1.1,1.6-1.7c0.3-0.3-0.1-0.7-0.4-0.4
					c-0.7,0.5-1.3,1.1-2,1.6c0.2,0.1,0.3,0.2,0.5,0.4c0.3-0.4,0.5-0.8,0.8-1.2c0.2-0.3-0.2-0.6-0.5-0.4c-0.7,0.7-1.3,1.5-1.8,2.4
					c-0.2,0.3,0.2,0.6,0.5,0.4c0.4-0.5,0.7-0.9,0.8-1.5c0.1-0.2-0.1-0.4-0.3-0.4c-0.7,0.1-1,0.2-1.5,0.8c-0.2,0.3,0,0.6,0.4,0.5
					c0.6-0.3,0.9-0.7,1.1-1.3c0.1-0.2-0.2-0.5-0.4-0.4c-0.6,0.2-0.9,0.5-1.3,0.9c-0.2,0.3,0.1,0.6,0.4,0.5c0.9-0.4,0.5-1.6-0.5-1.4
					c-0.3,0.1-0.3,0.5,0,0.6c0.5,0.2,1,0.2,1.5,0.3c0.4,0,0.4-0.6,0-0.6c-0.5,0-0.9-0.1-1.4-0.3c0,0.2,0,0.4,0,0.6
					c0.4,0,0.7,0,1.1,0.1c0.1-0.2,0.1-0.4,0.2-0.6c-0.2-0.1-0.4-0.2-0.6-0.3c-0.1,0.2-0.2,0.3-0.4,0.5c0.2,0.1,0.3,0.1,0.5,0.2
					c0.1-0.2,0.2-0.4,0.2-0.6c-0.3-0.2-0.6-0.4-0.9-0.6c-0.1,0.1-0.3,0.3-0.4,0.4c1,0.6,2,0.8,3.1,0.5c-0.1-0.2-0.2-0.4-0.2-0.6
					c-0.6,0.4-1,0.8-1.3,1.5c-0.1,0.2,0.1,0.5,0.3,0.4c0.8-0.1,1.2-0.6,1.4-1.3c0.1-0.3-0.2-0.5-0.4-0.3c-0.8,0.4-1.2,1-1.5,1.9
					c-0.1,0.2,0.2,0.4,0.4,0.4c0.7-0.2,1-0.7,0.8-1.4c0-0.2-0.3-0.3-0.4-0.2c-0.8,0.4-1.2,1.1-1.4,1.9c0,0.3,0.2,0.5,0.4,0.3
					c0.5-0.2,0.8-0.5,1.1-1c0.2-0.3-0.2-0.6-0.5-0.4c-0.3,0.3-0.6,0.7-0.9,1c-0.2,0.3,0.2,0.7,0.4,0.4c0.3-0.3,0.6-0.7,0.9-1
					c-0.2-0.1-0.3-0.2-0.5-0.4c-0.2,0.4-0.5,0.7-0.9,0.8c0.1,0.1,0.3,0.2,0.4,0.3c0.1-0.7,0.5-1.2,1.1-1.6c-0.1-0.1-0.3-0.1-0.4-0.2
					c-0.1,0.2-0.3,0.4-0.4,0.6c0.1,0.1,0.2,0.2,0.4,0.4c0.2-0.7,0.6-1.1,1.2-1.5c-0.1-0.1-0.3-0.2-0.4-0.3c-0.3,0.3-0.7,0.6-1,0.9
					c0.1,0.1,0.2,0.3,0.3,0.4c0.3-0.6,0.6-0.9,1.1-1.3c0.3-0.2,0.1-0.6-0.2-0.6c-1,0.2-1.8,0.1-2.6-0.5c-0.3-0.2-0.6,0.2-0.4,0.4
					c0.3,0.5,0.6,0.8,1.2,0.9c0.3,0.1,0.6-0.4,0.2-0.6c-0.2-0.1-0.3-0.1-0.5-0.2c-0.3-0.1-0.6,0.2-0.4,0.5c0.3,0.3,0.5,0.4,0.9,0.5
					c0.4,0.1,0.5-0.5,0.2-0.6c-0.5-0.2-0.9-0.2-1.4-0.1c-0.3,0.1-0.3,0.5,0,0.6c0.5,0.2,1,0.2,1.5,0.3c0-0.2,0-0.4,0-0.6
					c-0.5,0-0.9-0.1-1.4-0.2c0,0.2,0,0.4,0,0.6c0,0.1,0,0.2,0,0.3c0.1,0.2,0.2,0.3,0.4,0.5c0.3-0.4,0.6-0.6,1.1-0.8
					c-0.1-0.1-0.2-0.2-0.4-0.4c-0.3,0.3-0.6,0.6-0.9,0.9c0.1,0.2,0.2,0.3,0.4,0.5c0.3-0.2,0.7-0.4,1-0.6c-0.1-0.1-0.2-0.3-0.3-0.4
					c-0.1,0.5-0.3,0.9-0.7,1.2c0.2,0.1,0.3,0.2,0.5,0.4c0.5-0.8,1.1-1.6,1.7-2.3c-0.2-0.1-0.3-0.2-0.5-0.4c-0.3,0.4-0.5,0.8-0.8,1.2
					c-0.2,0.3,0.2,0.6,0.5,0.4c0.7-0.5,1.3-1.1,2-1.6c-0.1-0.1-0.3-0.3-0.4-0.4c-0.5,0.6-1.1,1.2-1.6,1.7c0.1,0.1,0.3,0.3,0.4,0.4
					c0.7-0.7,1.4-1.4,2.2-2.1c-0.1-0.1-0.3-0.3-0.4-0.4c-0.6,0.7-1.2,1.3-1.8,2c-0.3,0.3,0.1,0.7,0.4,0.4c0.4-0.4,0.9-0.8,1.4-1.1
					c-0.1-0.2-0.2-0.3-0.4-0.5c-0.7,0.8-1.4,1.5-2.1,2.2c0.1,0.1,0.3,0.3,0.4,0.4c0.5-0.6,1.1-1.1,1.7-1.6c-0.1-0.1-0.3-0.3-0.4-0.4
					c-0.5,0.8-1.2,1.5-2,2c0.1,0.1,0.3,0.3,0.4,0.4c0.5-0.8,1.1-1.5,1.8-2.1c-0.2-0.1-0.3-0.2-0.5-0.4c-0.3,0.4-1.7,2.4-2.3,2.3
					c0.1,0.1,0.1,0.2,0.2,0.4c0.3-0.9,0.8-1.5,1.6-2.1c-0.1-0.2-0.2-0.3-0.4-0.5c-0.6,0.7-1.8,2.6-2.8,2.6c0.1,0.1,0.2,0.3,0.3,0.4
					c0.2-1,0.6-1.6,1.4-2.2c-0.1-0.1-0.3-0.3-0.4-0.4c-0.2,0.4-0.4,0.8-0.6,1.1c-0.6,0.8-2.6,1.5-1.3-0.8c0.2-0.3-0.3-0.6-0.5-0.4
					c-0.3,0.3-0.5,0.7-0.6,1.1c-0.1,0.2,0.2,0.5,0.4,0.3c0.5-0.4,1-0.7,1.6-1c-0.1-0.1-0.3-0.2-0.4-0.3c-0.3,0.7-0.7,1.2-1.4,1.6
					c0.1,0.1,0.3,0.3,0.4,0.4c0.4-0.9,0.9-1.5,1.8-1.9c-0.1-0.1-0.3-0.2-0.4-0.3c-0.3,0.8-0.9,1.2-1.7,1.5c0.1,0.1,0.2,0.3,0.3,0.4
					c0.1-0.3,0.3-0.6,0.5-0.9c0.7-0.8,0.7-0.5,0,0.8c0.2,0.1,0.3,0.2,0.5,0.3c-0.1-0.9,0.2-1.6,0.9-2.1c-0.2-0.1-0.3-0.2-0.5-0.3
					c-0.1,0.5-0.2,1-0.4,1.4c-0.7,1.2-0.3-0.4,0.3-0.8c-0.1-0.1-0.3-0.3-0.4-0.4c-0.3,0.5-0.6,0.9-1.1,1.3c0.1,0.1,0.3,0.3,0.4,0.4
					c0.2-0.5,0.6-0.9,1-1.1c-0.1-0.1-0.3-0.2-0.4-0.3c-0.1,0.6-0.4,1.1-1,1.3c0.2,0.1,0.3,0.2,0.5,0.3c-0.2,0.2-0.4,0.4-0.6,0.6
					c-0.2,0-0.4,0.2-0.3,0.5c0.5,1,1.1,1.8,1.8,2.7c0.1-0.1,0.3-0.3,0.4-0.4c-0.5-0.5-0.8-1-1-1.7c-0.2,0.1-0.4,0.1-0.6,0.2
					c0.3,0.6,0.5,1.3,0.8,1.9c0.1,0.2,0.3,0.3,0.5,0.1c0.5-0.5,0-1.4-0.2-1.9c-0.1,0.1-0.2,0.2-0.4,0.4c0.1,0.2,0.3,0.4,0.4,0.6
					c0.2-0.1,0.3-0.1,0.5-0.2c-0.5-0.5-0.8-1.1-0.9-1.8c-0.2,0.1-0.3,0.1-0.5,0.2c0.4,0.4,0.7,0.9,0.9,1.4c0.1-0.1,0.3-0.2,0.4-0.3
					c-0.8-0.5-1.2-1.2-1.3-2.1c-0.2,0.1-0.3,0.2-0.5,0.3c0.1,0.1,0.1,0.2,0.2,0.4C57.1,49.1,57.7,48.9,57.6,48.5L57.6,48.5z"/>
			</g>
			<g>
				<path class="st1" d="M61.1,47.6c-1.9,0-0.1,4,1.1,3c1.2-1-2-2.7-2.2-0.6c-0.1,2.1,3.1,1.5,1.9,0.1c-0.4-0.4-1.4-0.9-1.9-0.4
					c-0.8,0.8,0.5,1.8,1.1,2.1c0.2,0.1,0.4,0,0.4-0.2c0.3-0.7-1.2-2.2-1.9-1.9c-0.9,0.4,0.4,1.9,0.9,2.1c0.9,0.5,1.4-0.3,1.1-1.1
					c-0.2-0.6-1.4-1.8-1.8-0.8c-0.3,0.7,0.6,2.4,1.5,1.9c0.9-0.5,0.4-2.4-0.6-2.4c-0.9,0-1,1.5-0.6,2.1c0.6,0.8,2.1,0.5,2.2-0.6
					c0.1-1.3-1.6-0.9-1.7,0.1c-0.1,0.5,0.1,1,0.6,1.1c0.6,0.1,1-0.5,1.2-1c0.1-0.3-0.1-0.5-0.4-0.4c-0.5,0.2-0.8,0.5-1.1,1
					c-0.1,0.2,0,0.5,0.3,0.5c1-0.1,1.8-0.7,2-1.7c0.1-0.2-0.2-0.5-0.4-0.3c-0.4,0.3-0.8,0.5-1.3,0.7c0.1,0.1,0.3,0.2,0.4,0.3
					c0.2-1,0.8-1.7,0.6-2.7c0-0.2-0.4-0.3-0.5-0.1c-0.5,0.5-0.9,1.4-0.4,2.1c0.1,0.1,0.2,0.2,0.3,0.1c0.9-0.2,2-2.1,0.9-2.8
					c-1.4-0.9-2.4,1.6-2.6,2.6c-0.1,0.3,0.3,0.5,0.5,0.3c1.1-1,1.9-2.1,2.3-3.6c0.1-0.3-0.2-0.4-0.4-0.3c-1.3,0.6-2.4,1.6-3.1,2.9
					c-0.1,0.3,0.1,0.6,0.4,0.4c0.8-0.4,1.3-1,1.6-1.9c0.1-0.2-0.2-0.5-0.4-0.4c-1.1,0.4-1.8,1.1-2.3,2.2c-0.1,0.2,0.2,0.4,0.4,0.4
					c0.9-0.3,1.5-0.9,1.7-1.8c0.1-0.2-0.1-0.4-0.4-0.4c-1.1,0.2-1.8,0.9-2.1,2c-0.1,0.2,0.1,0.4,0.3,0.4c1.2-0.1,1.9-1.3,2.6-2.1
					c-0.2-0.1-0.3-0.1-0.5-0.2c0,1.1,1.4,1,1.8,0.2c0.7-1.3-1-0.9-1.6-0.6c-0.1,0.1-0.2,0.3-0.1,0.4c0.5,0.8,1.8,1.1,2.3,0
					c0.5-1-1.1-1.3-1.7-0.9c-0.8,0.6,0.4,1.4,1,1.5c0.8,0.2,2.3-0.5,1.4-1.5c-0.5-0.6-2.5-0.8-2.7,0.2c-0.3,1.1,1.8,1.2,2.4,1
					c0.9-0.4,1.3-1.5,0.3-1.9c-0.8-0.3-2.7-0.4-2.6,1c0.1,1.5,2.5,1.5,3.3,0.6c1.2-1.4-1.6-1.6-2.3-1.5c-0.2,0-0.4,0.3-0.2,0.5
					c0.8,0.6,1.6,0.7,2.5,0.3c0.3-0.1,0.2-0.5-0.1-0.6c-0.4-0.1-0.8-0.2-1.2-0.3c-0.4-0.1-0.5,0.5-0.2,0.6c0.5,0.1,0.9,0.2,1.4,0.3
					c0.4,0.1,0.5-0.5,0.2-0.6c-0.5-0.1-0.9-0.3-1.4-0.4c-0.1,0.2-0.1,0.4-0.2,0.6c0.5,0.1,1,0.2,1.5,0.2c0.4,0,0.4-0.6,0-0.6
					c-0.8,0-1.6,0-2.3-0.1c0,0.2,0.1,0.4,0.1,0.6c0.8-0.1,1.5-0.1,2.3,0c0-0.2,0-0.4,0-0.6c-0.2,0.1-0.4,0.1-0.6,0.2
					c-0.4,0.1-0.2,0.7,0.2,0.6c0.2-0.1,0.4-0.1,0.6-0.2c0.2-0.1,0.3-0.5,0-0.6c-0.9-0.1-1.7-0.1-2.6,0c-0.3,0.1-0.2,0.6,0.1,0.6
					c0.8,0,1.6,0,2.3,0.1c0-0.2,0-0.4,0-0.6c-0.5,0-0.9,0-1.4-0.1c-0.4-0.1-0.5,0.5-0.2,0.6c0.5,0.1,0.9,0.3,1.4,0.4
					c0.1-0.2,0.1-0.4,0.2-0.6c-0.5-0.1-0.9-0.2-1.4-0.3c-0.1,0.2-0.1,0.4-0.2,0.6c0.4,0.1,0.8,0.2,1.2,0.3c0-0.2,0-0.4-0.1-0.6
					c-0.6,0.3-1.2,0.2-1.8-0.2c-0.1,0.2-0.1,0.3-0.2,0.5c0.3,0,0.8-0.2,1.1,0c0.5,0,0.5,0.1,0,0.5c-0.5,0.8-0.7,0.5-0.5-0.8
					c0.3,0,0.5,0.1,0.8,0.1c-0.2,0.3-0.5,0.7-0.7,1c-0.4-0.7-0.5-0.8-0.2-0.2c0.5,0.7,0,0.7-1.2,0c0,0.1-0.1,0.3-0.1,0.4
					c0.7-0.3,0.7-0.3,0.1-0.1c0-0.2-0.3-0.4-0.5-0.2c-0.5,0.6-1.3,1.9-2.2,2c0.1,0.1,0.2,0.3,0.3,0.4c0.3-0.9,0.8-1.4,1.7-1.5
					c-0.1-0.1-0.2-0.2-0.4-0.4c-0.2,0.7-0.5,1.1-1.2,1.4c0.1,0.1,0.2,0.2,0.4,0.4c0.3-0.9,1-1.5,1.8-1.8c-0.1-0.1-0.2-0.2-0.4-0.4
					c-0.2,0.7-0.7,1.2-1.3,1.5c0.1,0.1,0.3,0.3,0.4,0.4c0.7-1.2,1.6-2.1,2.9-2.7c-0.1-0.1-0.3-0.2-0.4-0.3c-0.4,1.3-1.1,2.4-2.2,3.3
					c0.2,0.1,0.3,0.2,0.5,0.3c0.1-0.4,0.2-1.1,0.5-1.4c0.2-0.5,0.6-0.5,1.3-0.2c-0.6,1.2-0.6,1.1-0.2-0.2c-0.2,0-0.3-0.1-0.5-0.1
					c0.1,0.8-0.5,1.6-0.6,2.4c-0.1,0.3,0.2,0.4,0.4,0.3c0.5-0.2,0.9-0.4,1.3-0.7c-0.1-0.1-0.3-0.2-0.4-0.3c-0.2,0.7-0.7,1.2-1.4,1.3
					c0.1,0.2,0.2,0.3,0.3,0.5c0.2-0.4,0.4-0.7,0.8-0.8c-0.1-0.1-0.3-0.3-0.4-0.4c-0.1,0.4-0.3,0.4-0.7,0.1c-0.9-0.2-0.8-0.3,0.1-0.3
					c-0.2,0.1-0.3,0.2-0.5,0.3c0.3-0.4,0.3-0.4,0.2,0c0,0.4-0.1,0.4-0.3,0.1c-0.3-0.2-0.5-0.5-0.6-0.9c0.1,0,1.1,1,1,1.2
					c0.1-0.1,0.3-0.1,0.4-0.2c-0.4-0.1-0.6-0.5-0.6-1.1c0.4-0.6,0.6-0.8,0.4-0.5c0,0.2-0.7-1.4-0.3-1.4
					C61.5,48.2,61.5,47.6,61.1,47.6L61.1,47.6z"/>
			</g>
			<g>
				<path class="st1" d="M61.4,50c0.2-0.2,0.4-0.5,0.6-0.7c0.2-0.3-0.2-0.7-0.4-0.4c-0.4,0.5-1.8,2.5-0.6,2.9c1.4,0.5,2.1-2,2.1-2.9
					c0-0.2-0.2-0.3-0.4-0.3c-1,0.2-2.6,2.8-1.6,3.6c1.2,1,2.3-2.3,2.3-3c0-0.2-0.3-0.4-0.5-0.3c-0.8,0.6-1.4,1.3-1.9,2.2
					c-0.2,0.4-0.9,1.4-0.4,1.8c1,0.8,2.7-1.8,2.7-2.6c0-0.1-0.1-0.2-0.1-0.3c-0.7-0.4-1.6,0.6-2,1.1c-0.2,0.3,0.2,0.6,0.5,0.4
					c0.8-0.7,1.5-1.4,2.1-2.2c0.3-0.4,0.8-0.8,0.7-1.3c0-0.1-0.1-0.2-0.2-0.3c-0.6-0.3-1.6,0.5-2.1,0.8c-0.3,0.2,0,0.7,0.3,0.5
					c0.7-0.4,2-0.9,2.1-1.7c0-0.1,0-0.2-0.1-0.3c-0.8-0.6-2.1,0.1-2.8,0.4c0.1,0.2,0.2,0.4,0.2,0.6c0.5-0.3,0.9-0.6,1.3-1
					c0.2-0.2,0-0.5-0.2-0.5c-0.5,0-0.4,0-0.8,0.1c-0.3,0.1-0.3,0.6,0.1,0.6c1,0.1,2.1,0.1,3.1,0.2c0-0.2,0-0.4,0-0.6
					c-0.2,0-0.5,0-0.7,0c0,0.2,0,0.4,0,0.6c0.7,0,1.4-0.1,2.2-0.3c-0.1-0.2-0.1-0.4-0.2-0.6c-0.5,0.2-1,0.3-1.4,0.5
					c0.1,0.2,0.2,0.4,0.2,0.6c0.4-0.2,0.8-0.4,1.2-0.6c-0.1-0.2-0.2-0.3-0.4-0.5c-0.6,0.5-1.2,1-1.8,1.5c-0.3,0.2,0.1,0.6,0.4,0.5
					c0.7-0.3,1.1-0.8,1.5-1.4c0.2-0.3-0.2-0.6-0.5-0.4c-0.7,0.7-1.3,1.5-1.8,2.4c-0.2,0.3,0.2,0.6,0.5,0.4c0.6-0.6,1.2-1.2,1.6-1.9
					c0.2-0.3-0.2-0.6-0.4-0.4c-0.9,0.6-1.7,1.3-2.4,2.1c-0.2,0.3,0.1,0.7,0.4,0.4c0.5-0.4,2.1-1.6,1.6-2.4c-0.1-0.2-0.3-0.2-0.5-0.1
					c-0.8,0.7-1.5,1.5-2.1,2.4c-0.1,0.2,0.2,0.6,0.4,0.4c0.8-0.6,1.5-1.4,1.9-2.3c0.1-0.2-0.1-0.6-0.4-0.4c-0.9,0.7-1.7,1.5-2.4,2.4
					c-0.2,0.3,0.2,0.6,0.5,0.4c0.7-0.6,1.3-1.3,1.9-2c0.2-0.3-0.2-0.6-0.4-0.4c-1,0.6-1.7,1.4-2.3,2.4c-0.2,0.3,0.2,0.6,0.5,0.4
					c1-0.9,2-1.8,2.9-2.8c-0.2-0.1-0.3-0.2-0.5-0.4c-0.2,0.5-0.5,1-0.7,1.5c-0.1,0.2,0.2,0.6,0.4,0.4c0.7-0.6,1.4-1.2,1.9-1.9
					c0.2-0.3-0.3-0.6-0.5-0.4c-0.3,0.4-0.6,0.9-0.9,1.3c-0.1,0.2,0.1,0.5,0.3,0.4c0.6-0.2,1.1-0.5,1.4-1.1c0.1-0.2-0.2-0.6-0.4-0.4
					c-0.5,0.3-0.8,0.7-1.2,1.2c-0.2,0.2,0.2,0.6,0.4,0.4c0.5-0.3,0.8-0.7,1.1-1.1c0.2-0.2-0.2-0.6-0.4-0.4c-0.5,0.3-0.9,0.6-1.4,0.9
					c0.1,0.1,0.3,0.3,0.4,0.4c0.1-0.2,0.2-0.4,0.4-0.6c0.2-0.3,0-0.7-0.4-0.5c-0.5,0.3-0.9,0.5-1.3,0.8c-0.3,0.2,0,0.8,0.3,0.5
					c0.4-0.3,0.8-0.6,1.3-0.8c-0.1-0.2-0.2-0.3-0.4-0.5c-0.3,0.4-0.3,0.3-0.5,0.7c-0.1,0.2,0.1,0.6,0.4,0.4c0.5-0.3,0.9-0.6,1.4-0.9
					c-0.1-0.1-0.3-0.3-0.4-0.4c-0.2,0.4-0.5,0.7-0.9,0.9c0.1,0.1,0.3,0.3,0.4,0.4c0.3-0.4,0.6-0.7,1-1c-0.1-0.1-0.3-0.3-0.4-0.4
					c-0.2,0.4-0.5,0.7-1,0.8c0.1,0.1,0.2,0.3,0.3,0.4c0.2-0.4,0.5-0.8,0.8-1.2c-0.2-0.1-0.3-0.2-0.5-0.4c-0.5,0.7-1,1.2-1.7,1.7
					c0.1,0.1,0.3,0.3,0.4,0.4c0.2-0.5,0.5-1,0.7-1.5c0.1-0.3-0.2-0.6-0.5-0.4c-0.9,1-1.9,1.9-2.9,2.8c0.2,0.1,0.3,0.2,0.5,0.4
					c0.6-0.9,1.2-1.6,2.1-2.2c-0.1-0.1-0.3-0.3-0.4-0.4c-0.5,0.7-1.1,1.4-1.8,1.9c0.2,0.1,0.3,0.2,0.5,0.4c0.6-0.9,1.3-1.6,2.1-2.2
					c-0.1-0.1-0.3-0.3-0.4-0.4c-0.4,0.8-1,1.5-1.7,2.1c0.1,0.1,0.3,0.3,0.4,0.4c0.5-0.9,1.2-1.6,2-2.3c-0.2,0-0.3,0-0.5-0.1
					c0.2,0.3-1.2,1.4-1.5,1.7c0.1,0.1,0.3,0.3,0.4,0.4c0.6-0.8,1.4-1.5,2.3-2c-0.1-0.1-0.3-0.3-0.4-0.4c-0.4,0.7-1,1.2-1.5,1.8
					c0.2,0.1,0.3,0.2,0.5,0.4c0.5-0.8,1.1-1.6,1.7-2.3c-0.2-0.1-0.3-0.2-0.5-0.4c-0.3,0.6-0.7,0.9-1.2,1.2c0.1,0.2,0.2,0.3,0.4,0.5
					c0.6-0.5,1.2-1,1.8-1.5c0.3-0.2-0.1-0.6-0.4-0.5c-0.4,0.2-0.8,0.4-1.2,0.6c-0.3,0.2-0.1,0.7,0.2,0.6c0.5-0.2,1-0.3,1.4-0.5
					c0.4-0.1,0.2-0.7-0.2-0.6c-0.7,0.2-1.3,0.2-2,0.2c-0.4,0-0.4,0.6,0,0.6c0.2,0,0.5,0,0.7,0c0.4,0,0.4-0.6,0-0.6
					c-1-0.1-2.1-0.1-3.1-0.2c0,0.2,0.1,0.4,0.1,0.6c0.2,0,0.5-0.1,0.7-0.1c-0.1-0.2-0.1-0.3-0.2-0.5c-0.4,0.4-0.7,0.7-1.2,0.9
					c-0.3,0.2-0.1,0.7,0.2,0.6c0.3-0.1,1.6-0.7,1.7-0.5c0.1,0.2-1.2,0.9-1.4,1c0.1,0.2,0.2,0.3,0.3,0.5c0.3-0.2,0.7-0.5,1.1-0.7
					c0.3-0.4,0.3-0.3,0,0.1c-0.2,0.3-0.4,0.5-0.6,0.7c-0.6,0.7-1.2,1.3-1.8,1.9c0.2,0.1,0.3,0.2,0.5,0.4c0.3-0.4,1.3-1.3,0.7-0.2
					c-0.1,0.2-1.1,1.4-1.2,0.8c0-0.2,0.5-1,0.7-1.2c0.4-0.6,0.8-1,1.3-1.4c-0.2-0.1-0.3-0.2-0.5-0.3c0,0.3-0.7,2.6-1.1,2
					c-0.4-0.5,0.6-1.9,1.2-2c-0.1-0.1-0.3-0.2-0.4-0.3c0,0.5,0,1.5-0.6,1.8c-0.2,0.4-0.4,0.3-0.6-0.2c0.2-0.5,0.4-0.8,0.7-1.2
					c-0.1-0.1-0.3-0.3-0.4-0.4c-0.2,0.2-0.4,0.5-0.6,0.7C60.8,49.8,61.2,50.3,61.4,50L61.4,50z"/>
			</g>
			<g>
				<path class="st1" d="M61.2,85.6c0-0.7,0-1.4,0.1-2.1c0-0.1-0.2-0.2-0.2-0.1c-0.1,0.7-0.2,1.4-0.1,2.1
					C61,85.7,61.2,85.7,61.2,85.6L61.2,85.6z"/>
			</g>
			<g>
				<path class="st1" d="M60.2,85.2c0.3-1.3,0.4-2.7,0.5-4c0-0.1-0.2-0.1-0.2,0c0,1.3-0.2,2.7-0.5,4C59.9,85.3,60.1,85.3,60.2,85.2
					L60.2,85.2z"/>
			</g>
			<g>
				<path class="st1" d="M59.3,84.8c0.1-1.6,0.3-3.2,0.4-4.8c0-0.1-0.2-0.1-0.2,0c-0.1,1.6-0.3,3.2-0.4,4.8
					C59.1,85,59.3,85,59.3,84.8L59.3,84.8z"/>
			</g>
			<g>
				<path class="st1" d="M58.5,84.2c0-1.6,0.1-3.3,0.3-4.9c0-0.1-0.2-0.1-0.2,0c-0.2,1.6-0.3,3.3-0.3,4.9
					C58.3,84.3,58.5,84.3,58.5,84.2L58.5,84.2z"/>
			</g>
			<g>
				<path class="st1" d="M57.4,83.2c0.2-1,0.2-2.1,0.6-3c0.2-0.7,0.4-1.2,0.3-1.9c0-0.1-0.2-0.1-0.2,0.1c0.1,0.9-0.2,1.5-0.4,2.4
					c-0.2,0.8-0.3,1.7-0.4,2.5C57.2,83.2,57.4,83.3,57.4,83.2L57.4,83.2z"/>
			</g>
			<g>
				<path class="st1" d="M56.7,81.9c0.1-1.4,0.3-2.8,0.4-4.3c0-0.1-0.2-0.1-0.2,0c-0.1,1.4-0.3,2.8-0.4,4.3
					C56.5,82.1,56.7,82.1,56.7,81.9L56.7,81.9z"/>
			</g>
			<g>
				<path class="st1" d="M55.7,80.7c0.1-1.2,0.3-2.5,0.5-3.7c0-0.1-0.2-0.2-0.2-0.1c-0.3,1.2-0.5,2.5-0.6,3.7
					C55.5,80.8,55.7,80.8,55.7,80.7L55.7,80.7z"/>
			</g>
			<g>
				<path class="st1" d="M55,78.7c0-0.5,0.1-1.1,0.3-1.6c0-0.1-0.1-0.2-0.2-0.1c-0.2,0.5-0.3,1.1-0.3,1.6C54.8,78.9,55,78.9,55,78.7
					L55,78.7z"/>
			</g>
		</g>
		<g>
			<path class="st1" d="M48.3,7.9L47,8.2l-4.1-3.5L44.2,9l-1.3,0.4L41.1,3l1.3-0.4l4.1,3.6l-1.2-4.4l1.3-0.4L48.3,7.9z"/>
			<path class="st1" d="M54.1,5.6L51.5,6l-0.3,1.4l-1.4,0.2l1.5-6.8l1.5-0.2l3.3,6.2l-1.4,0.2L54.1,5.6z M53.7,4.7L52.3,2l-0.6,2.9
				L53.7,4.7z"/>
			<path class="st1" d="M62.2,0l0,1l-1.8,0l0,5.6l-1.3,0l0-5.6l-1.8,0l0-1.1L62.2,0z"/>
			<path class="st1" d="M66,0.3l-0.5,3.9c-0.1,0.5,0,0.9,0.2,1.2c0.2,0.3,0.5,0.5,0.9,0.5c0.4,0.1,0.8,0,1-0.3
				c0.3-0.2,0.4-0.6,0.5-1.1l0.5-3.9l1.3,0.2l-0.5,3.9c-0.1,0.6-0.2,1.1-0.5,1.5c-0.3,0.4-0.6,0.7-1.1,0.8c-0.4,0.2-0.9,0.2-1.4,0.1
				c-0.8-0.1-1.4-0.4-1.8-0.9c-0.4-0.5-0.6-1.2-0.5-2.2l0.5-3.9L66,0.3z"/>
			<path class="st1" d="M74.5,8.6l-0.9-2.9l-0.6-0.1l-0.6,2.5l-1.3-0.3l1.6-6.4l2.4,0.6c0.7,0.2,1.3,0.5,1.6,1
				c0.3,0.5,0.4,1,0.2,1.6c-0.1,0.5-0.4,0.9-0.7,1.1C75.9,5.9,75.5,6,75,6l0.9,3L74.5,8.6z M73.3,4.7L74.3,5c0.7,0.2,1.2,0,1.3-0.7
				c0.1-0.3,0.1-0.6-0.1-0.8c-0.1-0.2-0.4-0.4-0.8-0.5l-1.1-0.3L73.3,4.7z"/>
			<path class="st1" d="M80.8,4.8l-0.6,1.6l2.2,0.8L82,8.2l-2.2-0.8L79.2,9l2.5,0.9l-0.4,1l-3.7-1.4L80,3.4l3.7,1.4l-0.4,1L80.8,4.8
				z"/>
			<path class="st1" d="M93.9,10.3L90.4,16l-1.1-0.7l1.5-2.5l-2.4-1.5l-1.5,2.5l-1.1-0.7l3.5-5.6l1.1,0.7l-1.4,2.3l2.4,1.5l1.4-2.3
				L93.9,10.3z"/>
			<path class="st1" d="M96,18.7L94,17l-1.2,0.7l-1.1-0.9l6.1-3.5l1.2,1l-2.3,6.6L95.5,20L96,18.7z M96.4,17.7l1-2.8l-2.5,1.5
				L96.4,17.7z"/>
			<path class="st1" d="M103.5,18.5l-2.9,2.6c-0.4,0.3-0.6,0.7-0.6,1c0,0.3,0.1,0.7,0.4,1c0.3,0.3,0.6,0.5,0.9,0.5
				c0.3,0,0.7-0.2,1.1-0.5l2.9-2.6l0.9,1l-2.9,2.6c-0.5,0.4-0.9,0.7-1.4,0.8c-0.5,0.1-0.9,0.1-1.3-0.1c-0.4-0.2-0.8-0.4-1.2-0.8
				c-0.5-0.6-0.8-1.2-0.8-1.9c0-0.7,0.4-1.3,1.1-1.9l2.9-2.6L103.5,18.5z"/>
			<path class="st1" d="M105.7,30.6c-0.3,0-0.7,0-1-0.2c-0.3-0.2-0.6-0.5-0.9-0.8c-0.3-0.4-0.4-0.8-0.5-1.2
				c-0.1-0.4-0.1-0.8,0.1-1.1c0.1-0.4,0.3-0.7,0.6-0.9l0.8,1.2c-0.2,0.2-0.3,0.4-0.4,0.6c0,0.3,0,0.5,0.2,0.8
				c0.2,0.2,0.3,0.4,0.5,0.4c0.2,0,0.4,0,0.6-0.1c0.2-0.1,0.3-0.3,0.3-0.4c0-0.2,0-0.4,0-0.6c0-0.2-0.1-0.5-0.2-0.8
				c-0.1-0.4-0.2-0.8-0.2-1.1c0-0.3,0-0.6,0.1-0.9c0.1-0.3,0.3-0.6,0.7-0.8c0.5-0.3,1-0.4,1.5-0.3c0.5,0.1,1,0.5,1.3,1
				c0.4,0.6,0.6,1.1,0.5,1.7s-0.3,1-0.7,1.4l-0.8-1.2c0.2-0.2,0.3-0.4,0.3-0.6c0-0.2,0-0.4-0.2-0.7c-0.1-0.2-0.3-0.3-0.5-0.4
				c-0.2,0-0.4,0-0.6,0.1c-0.2,0.1-0.3,0.3-0.3,0.4c0,0.2,0,0.3,0,0.5c0,0.2,0.1,0.4,0.2,0.8c0.1,0.4,0.2,0.8,0.3,1.1
				c0,0.3,0,0.6-0.1,0.9c-0.1,0.3-0.3,0.6-0.7,0.8C106.4,30.4,106.1,30.6,105.7,30.6z"/>
			<path class="st1" d="M111.7,31.4l-1.5,0.8l1.1,2.1l-0.9,0.5l-1.1-2.1l-1.6,0.9l1.3,2.3l-0.9,0.5l-1.9-3.5l5.8-3.2l1.9,3.5
				l-0.9,0.5L111.7,31.4z"/>
		</g>
		<g>
			<path class="st1" d="M68.3,115.7c-0.3-0.2-0.5-0.6-0.5-1c-0.1-0.5,0-1,0.3-1.4c0.3-0.4,0.8-0.6,1.5-0.8l2.8-0.5l1.2,6.5l-2.7,0.5
				c-0.7,0.1-1.2,0.1-1.6-0.1c-0.4-0.2-0.7-0.6-0.8-1.1c-0.1-0.4,0-0.8,0.1-1.1c0.2-0.3,0.4-0.5,0.7-0.7
				C68.9,116,68.6,115.9,68.3,115.7z M69.3,113.9c-0.2,0.2-0.2,0.4-0.2,0.7c0.1,0.3,0.2,0.5,0.4,0.6c0.2,0.1,0.5,0.1,0.8,0.1
				l1.2-0.2l-0.3-1.8l-1.2,0.2C69.7,113.6,69.4,113.7,69.3,113.9z M71.8,116l-1.2,0.2c-0.3,0.1-0.6,0.2-0.7,0.4
				c-0.1,0.2-0.2,0.4-0.1,0.7c0.1,0.3,0.2,0.5,0.4,0.6c0.2,0.1,0.5,0.1,0.8,0.1l1.2-0.2L71.8,116z"/>
			<path class="st1" d="M64.6,118.8l-0.1-1.7l-2.3,0.2l-0.1-1l2.3-0.2l-0.1-1.8l-2.6,0.2l-0.1-1.1l3.9-0.3l0.4,6.6l-3.9,0.3l-0.1-1
				L64.6,118.8z"/>
			<path class="st1" d="M55.7,114.5l2.6,0.2l0.5-1.3l1.4,0.1l-2.8,6.4l-1.5-0.1l-2-6.7l1.4,0.1L55.7,114.5z M56,115.6l0.8,2.8
				l1.1-2.7L56,115.6z"/>
			<path class="st1" d="M49.8,119.1l0.8-3.8c0.1-0.5,0.1-0.9-0.1-1.2c-0.2-0.3-0.5-0.5-0.9-0.6c-0.4-0.1-0.8,0-1,0.2
				c-0.3,0.2-0.5,0.6-0.6,1.1l-0.8,3.8l-1.3-0.3l0.8-3.8c0.1-0.6,0.3-1.1,0.6-1.5c0.3-0.4,0.7-0.6,1.1-0.7c0.4-0.1,0.9-0.1,1.4,0
				c0.8,0.2,1.4,0.5,1.7,1.1c0.4,0.6,0.5,1.3,0.3,2.2l-0.8,3.8L49.8,119.1z"/>
			<path class="st1" d="M38.8,116.1l0.3-1l1.7,0.6l1.8-5.3l1.3,0.4l-1.8,5.3l1.7,0.6l-0.3,1L38.8,116.1z"/>
			<path class="st1" d="M31.7,113l3.9-2.9l1-2.1l1.2,0.6l-1,2.1l0.2,4.9l-1.4-0.7l0-3.2l-2.5,2L31.7,113z"/>
			<path class="st1" d="M28,105.7l1.4-2l1.1,0.8l-3.9,5.4l-2-1.4c-0.6-0.5-1-1-1.1-1.5c-0.1-0.5,0-1.1,0.4-1.6
				c0.4-0.5,0.8-0.8,1.4-0.9c0.6-0.1,1.1,0.1,1.7,0.6L28,105.7z M25.1,106.2c-0.2,0.3-0.3,0.5-0.2,0.8c0,0.2,0.2,0.5,0.6,0.7
				l0.8,0.6l1.2-1.6l-0.8-0.6C26,105.6,25.5,105.6,25.1,106.2z"/>
			<path class="st1" d="M22.8,98.2l-0.6,2.9l0.4,0.4l1.8-1.9l1,0.9l-4.5,4.8l-1.8-1.7c-0.6-0.5-0.9-1.1-0.9-1.6c0-0.5,0.2-1,0.6-1.5
				c0.3-0.4,0.7-0.6,1.2-0.6c0.4-0.1,0.9,0.1,1.3,0.3l0.6-3.1L22.8,98.2z M22,102.2l-0.8-0.7c-0.6-0.5-1.1-0.5-1.5,0
				c-0.2,0.2-0.3,0.5-0.3,0.7c0,0.3,0.2,0.5,0.4,0.8l0.8,0.7L22,102.2z"/>
			<path class="st1" d="M12.7,96.2c-0.1-0.6,0-1.1,0.2-1.7c0.2-0.6,0.6-1,1.1-1.4c0.5-0.4,1.1-0.7,1.6-0.8c0.6-0.1,1.1,0,1.7,0.2
				c0.5,0.2,1,0.6,1.4,1c0.4,0.5,0.6,1,0.7,1.6c0.1,0.6,0,1.1-0.2,1.7c-0.2,0.6-0.6,1-1.1,1.4c-0.5,0.4-1,0.7-1.6,0.8
				c-0.6,0.1-1.1,0-1.7-0.2c-0.5-0.2-1-0.6-1.4-1C13,97.3,12.7,96.8,12.7,96.2z M15.2,97.7c0.3,0.1,0.7,0.1,1,0.1
				c0.4-0.1,0.7-0.3,1.1-0.5c0.3-0.3,0.6-0.6,0.7-0.9c0.2-0.3,0.2-0.7,0.2-1c0-0.3-0.2-0.7-0.4-1c-0.2-0.3-0.5-0.5-0.8-0.6
				c-0.3-0.1-0.7-0.1-1-0.1c-0.4,0.1-0.7,0.3-1,0.5c-0.3,0.3-0.6,0.6-0.7,0.9c-0.2,0.3-0.2,0.7-0.2,1c0,0.3,0.2,0.7,0.4,1
				C14.6,97.3,14.9,97.5,15.2,97.7z"/>
			<path class="st1" d="M11.4,85.6c0.6,0,1.1,0.1,1.6,0.4c0.5,0.3,0.9,0.8,1.3,1.4l1.2,2l-5.7,3.4l-1.2-2C8.2,90.1,8,89.5,8,88.9
				c0-0.6,0.1-1.1,0.4-1.6c0.3-0.5,0.7-0.9,1.3-1.2C10.2,85.8,10.8,85.6,11.4,85.6z M12,87c-0.5-0.1-1.1,0-1.7,0.3
				c-0.6,0.3-0.9,0.8-1.1,1.3c-0.1,0.5,0,1.1,0.4,1.7l0.5,0.8l3.7-2.2l-0.5-0.8C13,87.5,12.5,87.1,12,87z"/>
			<path class="st1" d="M5.1,84.1l3.6-1.5c0.5-0.2,0.8-0.5,0.9-0.8c0.2-0.3,0.1-0.7,0-1.1c-0.2-0.4-0.4-0.6-0.7-0.8
				c-0.3-0.1-0.7-0.1-1.2,0.1l-3.6,1.5l-0.5-1.2l3.6-1.5c0.6-0.2,1.1-0.3,1.6-0.3c0.5,0,0.9,0.2,1.2,0.5c0.3,0.3,0.6,0.7,0.8,1.2
				c0.3,0.7,0.3,1.4,0.1,2c-0.3,0.6-0.8,1.1-1.7,1.5l-3.6,1.5L5.1,84.1z"/>
			<path class="st1" d="M2,72.5c0.3-0.6,0.8-1.1,1.4-1.5l0.3,1.3c-0.3,0.2-0.5,0.5-0.7,0.9c-0.1,0.3-0.1,0.7,0,1.1
				c0.1,0.3,0.2,0.6,0.5,0.9c0.2,0.2,0.5,0.4,0.9,0.5c0.4,0.1,0.7,0.1,1.2-0.1c0.4-0.1,0.8-0.3,1-0.5c0.3-0.2,0.5-0.5,0.6-0.8
				c0.1-0.3,0.1-0.6,0-1c-0.1-0.4-0.3-0.7-0.6-1S6,72,5.7,71.9l-0.3-1.3c0.8,0,1.4,0.2,1.9,0.6c0.5,0.4,0.9,1,1.1,1.8
				c0.2,0.6,0.2,1.2,0,1.7c-0.2,0.5-0.5,1-0.9,1.4c-0.4,0.4-1,0.7-1.6,0.8c-0.6,0.2-1.2,0.2-1.8,0c-0.6-0.1-1-0.4-1.4-0.8
				c-0.4-0.4-0.7-0.9-0.8-1.5C1.6,73.9,1.7,73.2,2,72.5z"/>
			<path class="st1" d="M0.2,64.4l1-0.1l0.2,1.8L7,65.5l0.2,1.3l-5.5,0.6l0.2,1.8l-1,0.1L0.2,64.4z"/>
			<path class="st1" d="M5.8,57.7c0.3,0.2,0.5,0.4,0.7,0.8c0.2,0.3,0.3,0.7,0.3,1.2c0,0.5-0.1,0.9-0.2,1.3c-0.2,0.4-0.4,0.7-0.7,0.9
				c-0.3,0.2-0.7,0.3-1.1,0.4l0-1.4c0.3,0,0.5-0.1,0.7-0.3c0.2-0.2,0.3-0.4,0.3-0.7c0-0.3-0.1-0.5-0.2-0.6c-0.1-0.1-0.3-0.2-0.6-0.2
				c-0.2,0-0.4,0.1-0.5,0.2c-0.1,0.1-0.2,0.3-0.3,0.4c-0.1,0.2-0.2,0.4-0.3,0.7c-0.1,0.4-0.3,0.7-0.4,1c-0.1,0.3-0.3,0.5-0.6,0.7
				c-0.3,0.2-0.6,0.3-1,0.3c-0.6,0-1-0.2-1.3-0.6C0.2,61.2,0,60.6,0,60c0-0.7,0.2-1.3,0.5-1.7c0.3-0.4,0.8-0.6,1.4-0.7l0,1.4
				c-0.2,0-0.4,0.1-0.6,0.3C1.1,59.5,1,59.7,1,60c0,0.2,0.1,0.4,0.2,0.6s0.3,0.2,0.6,0.2c0.2,0,0.4-0.1,0.5-0.2
				c0.1-0.1,0.2-0.3,0.3-0.4c0.1-0.2,0.2-0.4,0.3-0.7c0.2-0.4,0.3-0.8,0.4-1c0.1-0.3,0.3-0.5,0.6-0.7c0.3-0.2,0.6-0.3,1-0.3
				C5.3,57.5,5.6,57.5,5.8,57.7z"/>
		</g>
		<g>
			<path class="st1" d="M6.1,39.7l-0.6-0.2c5.1-12.8,14.6-23.4,26.8-29.8l0.3,0.6C20.6,16.6,11.2,27.1,6.1,39.7z"/>
		</g>
		<g>
			<path class="st1" d="M83.9,113.7l-0.3-0.6c9.8-4.5,18.1-11.7,24-20.8c6.1-9.3,9.3-20.1,9.3-31.3c0-3.2-0.3-6.4-0.8-9.5l0.6-0.1
				c0.5,3.2,0.8,6.4,0.8,9.6c0,11.3-3.2,22.2-9.4,31.6C102.2,101.8,93.8,109.1,83.9,113.7z"/>
		</g>
	</g>
</g>
</svg>
