<?xml version="1.0" encoding="utf-8"?>
<!-- Generator: Adobe Illustrator 24.1.1, SVG Export Plug-In . SVG Version: 6.00 Build 0)  -->
<svg version="1.1" id="Layer_1" xmlns="http://www.w3.org/2000/svg" xmlns:xlink="http://www.w3.org/1999/xlink" x="0px" y="0px"
	 viewBox="0 0 143.8 120" style="enable-background:new 0 0 143.8 120;" xml:space="preserve">
<style type="text/css">
	.st0{fill:#E7F3E2;}
	.st1{fill:#3A3A3A;}
</style>
<g>
	<path class="st0" d="M26.6,94.7c3.6,2.6,7.5,4.8,11.4,7c4.5,2.5,8.9,5.3,13.5,7.4c3.4,1.5,6.8,2.1,10.3,2.1c2.5,1.2,5.2,2,7.9,2.6
		c0,0,0,0,0,0c4.5,2.2,9.7,2.2,14.3,0.5c4.4-1.7,8.3-4.3,12.2-6.9c3.5-2.3,7.3-4.1,10.7-6.5c2.6-1.8,4.8-4,6.4-6.5
		c0.2-0.3,0.5-0.6,0.7-0.9c5.6-7.1,8.8-15.9,8.7-25c-0.1-7.3-2.1-14.1-5.6-20.2C116.5,32,105,17.8,88.5,15.1
		c-1.9-0.3-3.8-0.5-5.7-0.5c-13.4-6.6-26.6-0.7-37.4,8.1c-3.8,1.8-7.4,3.8-10.8,6.1c-14.1,9.7-28.3,25-24.8,43.5
		C11.7,82,18.9,89.2,26.6,94.7z"/>
	<g>
		<g>
			<g>
				<path class="st1" d="M19.1,113.1c8.7-10.2,8.4-24.4,5.4-36.7c-1.9-7.8-4.9-15.3-7-23.1c-1.2-4.3-1.9-8.9-0.6-13.3
					c1.2-3.9,3.6-7.3,6-10.6c0.4-0.5-0.5-1-0.8-0.5c-3.9,5.3-7.3,10.7-6.8,17.6c0.5,7.6,3.8,15,6,22.2c4.4,14.1,7.7,31.4-2.9,43.7
					C18,112.9,18.7,113.6,19.1,113.1L19.1,113.1z"/>
			</g>
			<g>
				<path class="st1" d="M23.1,29.2c2.7-2.4,14.1-11,8.8-15.6c-1.9-1.7-4.5-0.4-5.7,1.4c-2.6,3.6-2.8,9.3-3.6,13.5
					c-0.1,0.6,0.8,0.8,0.9,0.3c0.5-2.3,0.9-4.5,1.4-6.8c0.2-1.1,0.4-2.2,0.7-3.2c0.2-1,0.6-2,1.2-2.9c4.6-1.2,6.3-0.5,5.2,1.9
					c-0.5,2.3-2.8,4.3-4.4,6c-1.6,1.7-3.3,3.2-5.1,4.8C21.9,28.9,22.6,29.6,23.1,29.2L23.1,29.2z"/>
			</g>
			<g>
				<path class="st1" d="M16.2,41.9c-1.2-2.5-2.3-5.2-4.5-6.9c-1.2-1-3.5-2.2-4.8-0.7c-1.5,1.7,0.6,3.7,1.8,4.8
					c0.9,0.9,1.8,2.1,2.9,2.7c1.3,0.7,2.8,1.1,4.2,1.5c0.6,0.2,0.8-0.7,0.3-0.9c-1.9-0.6-3.7-1.1-5.2-2.5c-0.6-0.6-1.2-1.2-1.8-1.8
					c-0.3-0.3-0.5-0.5-0.8-0.8c-1-0.8-0.9-1.7,0.2-2.9c1.9-0.3,3.9,2.3,4.7,3.6c0.9,1.3,1.5,2.8,2.2,4.2
					C15.7,43,16.5,42.5,16.2,41.9L16.2,41.9z"/>
			</g>
			<g>
				<path class="st1" d="M16.4,42.9c1.5-1.4,10.3-5.9,10.8-2.8c0.4,2.6-4,2.7-5.8,2.8c-0.8,0-1.6,0.1-2.4,0.1c-0.3,0-0.6,0-0.9,0
					c-1-0.2-2,0-3,0.4c0.6,0.1,0.8-0.8,0.3-0.9c0,0-0.1,0-0.1,0c-0.2,0-0.4,0-0.5,0.2c0,0,0,0.1,0,0.1c-0.1,0.2-0.1,0.5,0.2,0.6
					c2.1,1.3,6.7,0.6,9,0.3c1.6-0.2,5.1-1.6,4.9-3.9c-0.2-1.8-3.2-1.6-4.5-1.5c-2.9,0.4-6.4,2-8.6,4C15.2,42.7,15.9,43.3,16.4,42.9
					L16.4,42.9z"/>
			</g>
			<g>
				<path class="st1" d="M19.2,58.8c1-1.4,2.1-2.8,3.3-4c0.8-0.7,1.6-1.4,2.5-2c0.4-0.3,0.7-0.5,1.1-0.7c0.6-0.5,1-0.4,1.3,0.6
					c1,0.5,1.1,1.1,0.1,1.7c-0.3,0.3-0.6,0.6-0.9,0.8c-0.8,0.6-1.6,1.2-2.5,1.6c-1.8,0.9-3.7,1.5-5.6,1.8c-0.6,0.1-0.3,1,0.3,0.9
					c2.9-0.5,5.7-1.5,8.1-3.3c1.2-0.9,3.8-3.3,2.3-5c-1.4-1.6-3.7,0.2-4.9,1c-2.3,1.7-4.3,3.8-5.9,6.2C18,58.8,18.9,59.3,19.2,58.8
					L19.2,58.8z"/>
			</g>
			<g>
				<path class="st1" d="M18.6,58.4c-2-2-4.2-4.2-7.2-4.6c-1.5-0.2-4.1-0.1-4.2,1.8c-0.2,2.1,2.4,3.3,4.1,3.7
					c1.5,0.4,3.2,0.6,4.8,0.6c0.6,0,1.2,0,1.8-0.1c0.1,0,1-0.4,1.1-0.4c0.6,0,0.6-0.9,0-0.9c-1.1-0.1-2.2,0.5-3.4,0.5
					c-1.8-0.1-4.2-0.3-5.9-1.2c-1-0.3-1.3-0.9-0.7-1.8c-0.1-1.2,0.4-1.6,1.5-1.3c1.1,0,2.1,0.4,3.1,0.9c1.6,0.9,2.9,2.2,4.2,3.5
					C18.4,59.5,19.1,58.8,18.6,58.4L18.6,58.4z"/>
			</g>
			<g>
				<path class="st1" d="M22.9,69c-0.4-0.2,3.3-5.4,3.6-5.7c0.7-0.8,1.5-1.5,2.4-2.1c1.1-0.7,4.8-1.9,4.4,1.3
					c-0.2,1.8-4.3,3.9-5.7,4.9c-0.9,0.6-1.9,1.3-3,1.7c-0.7,0.2-1.5,0.2-2.2,0.4c-0.3,0.1-0.4,0.3-0.3,0.6c0,0,0,0.1,0,0.1
					c0,0.2,0.3,0.3,0.5,0.3c0,0,0.1,0,0.1,0c0.6,0,0.6-0.9,0-0.9c0.1,0.1,0.2,0.2,0.4,0.2c-0.1,0.2-0.2,0.4-0.3,0.6
					c1.5-0.5,2.8-0.5,4.3-1.4c1.7-1,3.4-2.2,5-3.4c1.5-1.1,3.8-3.6,1.8-5.4c-1.9-1.8-5.1-0.1-6.6,1.3c-1.2,1.1-2.3,2.4-3.2,3.8
					c-0.7,1.1-1.8,2.7-1.8,4c0,0.2,0.1,0.3,0.2,0.4c0.1,0,0.1,0.1,0.2,0.1C23,70.1,23.4,69.3,22.9,69L22.9,69z"/>
			</g>
			<g>
				<path class="st1" d="M22.2,69.7c-2.7-2.7-7.7-4.5-11.4-5.1c-2-0.3-5.8,0.1-6.2,2.7c-0.3,2.4,3.2,3.7,5.1,4.1
					c3.8,0.9,8.7,0.6,12.3-0.8c0.6-0.2,0.3-1.1-0.3-0.9c-3.4,1.4-12.3,2.7-15-0.6c-1.3-0.6-1.3-1.6,0.1-3.1c1.2-0.6,2.5-0.8,3.7-0.4
					c1.3,0.1,2.5,0.5,3.6,0.9c2.5,0.9,5.4,1.9,7.3,3.8C22,70.8,22.6,70.1,22.2,69.7L22.2,69.7z"/>
			</g>
			<g>
				<path class="st1" d="M25.6,84.4c1.4-2.3,2.5-4.8,3.9-7c0.8-1.3,1.7-2.5,2.8-3.6c0.6-0.6,1.3-1.1,2-1.6c1.6-0.9,2.2-1,3.9-0.2
					c1.3,0,1.8,0.6,1.5,1.6c0.1,0.7,0,1.3-0.6,1.8c-0.5,0.9-1.2,1.5-2,2c-1.1,0.7-2.2,1.3-3.3,2c-2.6,1.5-5.3,2.8-8.1,4.1
					c-0.6,0.3-0.1,1.1,0.5,0.8C29,83.2,45.5,76.8,40,71.2c-2.1-2.1-5.8-0.1-7.6,1.4c-3.6,2.9-5.1,7.5-7.5,11.4
					C24.5,84.5,25.3,84.9,25.6,84.4L25.6,84.4z"/>
			</g>
			<g>
				<path class="st1" d="M25.4,83.4c-3.3-2.5-7.2-5.1-11.3-5.9C11.9,77,7.8,77.1,7,79.9c-1.8,6.3,16.7,4.4,19.4,4.1
					c0.6-0.1,0.6-1,0-0.9c-2.8,0.3-5.6,0.4-8.4,0.3c-1.2,0-2.4-0.1-3.6-0.2c-1.2-0.1-2.3-0.2-3.5-0.4c-1.5,0.1-1.8-0.6-1-2.3
					c-0.5-1.9,0.1-2.7,2-2.3c1,0,2,0.2,2.9,0.5c1.3,0.4,2.6,1,3.8,1.6c2.2,1.1,4.3,2.5,6.3,4C25.4,84.6,25.9,83.8,25.4,83.4
					L25.4,83.4z"/>
			</g>
			<g>
				<path class="st1" d="M25.6,98.5c2.5-1.8,5.1-3.6,7.7-5.3c2.1-1.3,7.2-5,9.8-3.7c2,2.8,1.7,4.7-0.6,5.7c-0.9,0.4-1.8,0.8-2.7,1.1
					c-1.4,0.5-2.8,1-4.3,1.3c-3,0.8-6.3,1.5-9.4,1.1c-0.6-0.1-0.6,0.9,0,0.9c4.9,0.6,10.5-1,15-2.9c2.3-1,5.6-2.8,5-5.8
					c-1.5-8.4-18.7,5-21.1,6.7C24.6,98,25.1,98.9,25.6,98.5L25.6,98.5z"/>
			</g>
			<g>
				<path class="st1" d="M25.6,98.4c-5-3.4-10.1-6.9-15.7-9.2c-2.3-0.9-8.2-3.7-9.7-0.1c-1.5,3.5,5.3,6.1,7.4,7
					c5.9,2.4,11.9,2.2,18,3.1c0.6,0.1,0.9-0.8,0.3-0.9c-4.1-0.7-8.4-0.6-12.5-1.4c-1.8-0.4-3.6-0.9-5.4-1.7
					c-1.2-0.5-4.8-1.7-5.4-2.9c0.3-1.3,0.5-2.7,0.8-4c0.8,0.1,1.6,0.3,2.4,0.5c0.9,0.2,1.8,0.6,2.7,0.9c2.1,0.8,4.1,1.8,6,2.8
					c3.7,2,7.1,4.4,10.6,6.7C25.6,99.5,26.1,98.7,25.6,98.4L25.6,98.4z"/>
			</g>
		</g>
		<g>
			<path class="st1" d="M67.1,18.3c-1.8-1.8-2.8-4.2-2.8-7.3c0-3,0.9-5.4,2.7-7.2c1.8-1.7,4.5-2.7,8-2.7c1,0,2,0.1,2.8,0.2
				c0.5,0.1,1.2,0.3,1.5,0.3c0.4,0.1,1,0.3,1.2,0.4c0.1,0,0.3,0.1,0.5,0.2c0.2,0.1,0.3,0.1,0.4,0.1v3.9c0,0-0.3-0.1-0.9-0.4
				c-0.6-0.2-1-0.4-1.4-0.5c-0.4-0.1-0.9-0.3-1.6-0.4c-0.7-0.1-1.4-0.2-2.1-0.2c-2.2,0-3.9,0.5-5.1,1.6C69,7.5,68.4,9,68.4,11
				c0,2,0.6,3.5,1.9,4.6c1.2,1.1,3,1.6,5.1,1.6c0.7,0,1.4-0.1,2.1-0.2c0.7-0.1,1.3-0.3,1.7-0.4c0.4-0.1,0.9-0.3,1.4-0.5
				c0.5-0.2,0.8-0.3,0.9-0.4v3.9c0,0-0.2,0.1-0.5,0.2c-0.3,0.1-0.6,0.2-0.7,0.2c-0.2,0.1-0.4,0.1-0.8,0.2c-0.4,0.1-0.7,0.2-1,0.3
				c-0.9,0.2-2.3,0.4-3.5,0.4C71.6,20.9,68.9,20,67.1,18.3z"/>
			<path class="st1" d="M78.7,53.6L77.4,50h-7.8l-1.4,3.6h-4.3l8.3-19.3h3.2L83,53.6H78.7z M70.8,46.9h5.5l-2.6-7.2L70.8,46.9z"/>
			<path class="st1" d="M65.3,86.6V67.3h14.4V71H69.2v4h9v3.7h-9v7.8H65.3z"/>
			<path class="st1" d="M65.3,119.6v-19.3h14.4v3.7H69.2v4h9v3.7h-9v4.1h10.6v3.7H65.3z M71,98.5l2.2-4.2h3.7l-2.9,4.2H71z"/>
		</g>
		<g>
			<path class="st1" d="M96.8,8.5c-1.2-0.4-2.1-1-2.6-2c-0.5-1-0.6-2.1-0.2-3.3c0.4-1.2,1-2.1,2-2.7c1-0.5,2.1-0.6,3.3-0.3
				c1.2,0.4,2.1,1,2.6,2c0.5,1,0.6,2.1,0.2,3.3s-1,2.1-2,2.7C99.1,8.8,98,8.9,96.8,8.5z M100.5,5.1c0.2-0.8,0.2-1.6-0.1-2.2
				c-0.3-0.6-0.8-1.1-1.6-1.3c-0.8-0.2-1.5-0.2-2.1,0.2c-0.6,0.4-1,1-1.3,1.8c-0.2,0.8-0.2,1.5,0.1,2.2c0.3,0.6,0.9,1.1,1.6,1.3
				c0.8,0.2,1.4,0.2,2.1-0.2C99.9,6.5,100.3,6,100.5,5.1z"/>
			<path class="st1" d="M109.4,9.9l0,4l-1.5-0.8l0.1-3.5l-1.8-0.9l-1.5,2.8l-1.4-0.7l3.9-7.5l3.3,1.7c0.8,0.4,1.3,1,1.5,1.6
				c0.2,0.7,0.1,1.3-0.2,1.9c-0.2,0.4-0.5,0.8-1,1C110.3,9.8,109.8,9.9,109.4,9.9z M109.7,6.2l-1.9-1l-1.1,2l1.9,1
				c0.3,0.2,0.6,0.2,0.9,0.1c0.3-0.1,0.5-0.3,0.7-0.6c0.1-0.2,0.2-0.4,0.2-0.6c0-0.2,0-0.3-0.1-0.5c-0.1-0.1-0.2-0.2-0.3-0.3
				C109.9,6.3,109.8,6.3,109.7,6.2z"/>
			<path class="st1" d="M114.4,17.6c-1-0.8-1.6-1.7-1.7-2.9c-0.1-1.1,0.2-2.2,1-3.2c0.8-1,1.7-1.6,2.8-1.8c1.1-0.2,2.2,0.1,3.2,0.9
				c0.9,0.7,1.4,1.5,1.6,2.3c0.2,0.8,0.1,1.5-0.2,2.1l-1.3-1c0.1-0.4,0.1-0.8-0.1-1.1c-0.2-0.4-0.5-0.7-0.9-1.1
				c-0.7-0.5-1.3-0.7-2-0.6c-0.7,0.1-1.3,0.5-1.8,1.2c-0.5,0.6-0.7,1.3-0.7,2.1c0.1,0.7,0.4,1.3,1,1.8c0.3,0.2,0.6,0.4,1,0.5
				c0.3,0.1,0.6,0.1,0.8,0.1c0.2,0,0.4-0.1,0.6-0.2c0.2-0.1,0.4-0.2,0.5-0.3c0.1-0.1,0.2-0.2,0.2-0.3l-1.7-1.3l0.9-1.1l3,2.3
				l-0.5,0.7c-0.4,0.6-0.9,1-1.4,1.3c-0.5,0.3-1,0.4-1.5,0.5c-0.5,0-1,0-1.4-0.2C115.2,18.2,114.8,18,114.4,17.6z"/>
			<path class="st1" d="M124.1,24.1l-2.3-2.6l-1.9,0.7l-1.1-1.2l8.5-3.2l1.1,1.2l-4,8.1l-1.1-1.2L124.1,24.1z M124.8,22.6l1.4-2.8
				l-3,1.1L124.8,22.6z"/>
			<path class="st1" d="M133.4,25.7l-2.6,6.8l4.9-3l0.8,1.3l-7.2,4.4l-0.7-1.2l2.6-6.8l-4.9,3l-0.8-1.3l7.2-4.4L133.4,25.7z"/>
			<path class="st1" d="M131.3,39.5l-0.6-1.4l7.7-3.3l0.6,1.4L131.3,39.5z"/>
			<path class="st1" d="M136.8,47.7l0.4,1.6c-0.6,0.1-1.3-0.1-2.1-0.5c-0.4-0.2-0.7-0.5-1-1c-0.3-0.4-0.5-0.9-0.7-1.5
				c-0.3-1.2-0.2-2.3,0.3-3.3c0.6-1,1.5-1.6,2.7-2c1.2-0.3,2.4-0.2,3.3,0.3c1,0.6,1.7,1.5,2,2.7c0.3,1,0.2,1.8-0.1,2.5
				c-0.2,0.5-0.4,0.9-0.8,1.2c-0.3,0.3-0.6,0.6-0.9,0.7l-0.4-1.6c0.3-0.2,0.6-0.5,0.7-1c0.2-0.5,0.2-1,0-1.5
				c-0.2-0.8-0.7-1.4-1.3-1.7c-0.6-0.3-1.4-0.4-2.2-0.2c-0.8,0.2-1.4,0.6-1.8,1.2c-0.4,0.6-0.5,1.3-0.2,2.1
				C135.2,47,135.8,47.6,136.8,47.7z"/>
			<path class="st1" d="M138.6,60.5l0-2l-3.2,0l0-1.6l8.4-0.1l0,3.6c0,0.9-0.2,1.6-0.8,2.1c-0.5,0.5-1.1,0.7-1.8,0.7
				c-0.7,0-1.3-0.2-1.9-0.7C138.9,62.1,138.6,61.4,138.6,60.5z M141.3,61.7c0.2,0,0.4,0,0.6-0.1c0.2-0.1,0.3-0.2,0.3-0.4
				c0.1-0.1,0.1-0.3,0.2-0.4c0-0.1,0-0.2,0-0.4l0-2l-2.3,0l0,2c0,0.4,0.1,0.7,0.3,0.9C140.6,61.6,140.9,61.7,141.3,61.7z"/>
			<path class="st1" d="M137.9,71.5l-3.8,1.2l0.3-1.7l3.4-1l0.3-2l-3.1-0.5l0.3-1.5l8.3,1.3l-0.6,3.6c-0.1,0.9-0.5,1.6-1.1,1.9
				c-0.6,0.4-1.2,0.5-1.9,0.4c-0.5-0.1-0.9-0.3-1.3-0.6C138.3,72.4,138,72,137.9,71.5z M141.5,70.7l0.3-2.1l-2.3-0.4l-0.3,2.1
				c-0.1,0.4,0,0.7,0.2,0.9c0.2,0.2,0.4,0.4,0.8,0.5c0.2,0,0.4,0,0.6,0c0.2-0.1,0.3-0.1,0.4-0.3c0.1-0.1,0.2-0.2,0.2-0.4
				C141.4,70.9,141.5,70.8,141.5,70.7z"/>
			<path class="st1" d="M132.1,78.7c0.4-1.2,1.1-2,2.2-2.5c1-0.5,2.1-0.5,3.4-0.1c1.2,0.4,2.1,1.2,2.5,2.2c0.5,1,0.5,2.1,0.1,3.3
				c-0.4,1.2-1.2,2-2.2,2.5c-1,0.5-2.1,0.5-3.4,0.1c-1.2-0.4-2.1-1.2-2.5-2.2C131.7,81,131.7,79.9,132.1,78.7z M135.3,82.6
				c0.8,0.3,1.5,0.3,2.2,0c0.6-0.3,1.1-0.8,1.4-1.5c0.3-0.8,0.3-1.5-0.1-2.1c-0.3-0.6-0.9-1.1-1.7-1.4c-0.8-0.3-1.5-0.3-2.2,0
				c-0.7,0.3-1.1,0.8-1.4,1.5c-0.3,0.7-0.2,1.4,0.1,2.1C133.9,81.9,134.5,82.4,135.3,82.6z"/>
			<path class="st1" d="M127.8,88.1l1.8-3l7.2,4.3l-1.8,3c-0.6,1-1.4,1.6-2.5,1.9c-1.1,0.2-2.1,0.1-3.2-0.6c-1.1-0.6-1.7-1.5-2-2.5
				C127,90.1,127.2,89.1,127.8,88.1z M133.7,91.6l1-1.7l-4.7-2.8l-1,1.7c-0.3,0.5-0.4,1.2-0.2,1.8c0.2,0.7,0.6,1.2,1.3,1.7
				c0.7,0.4,1.4,0.6,2.1,0.4C132.9,92.6,133.4,92.2,133.7,91.6z"/>
			<path class="st1" d="M123.4,100.5l3.3,2.9l-1,1.2l-3.3-2.9c-1-0.9-1.6-1.8-1.7-2.8c-0.1-0.9,0.2-1.8,1-2.7
				c0.8-0.9,1.6-1.3,2.6-1.3c0.9,0,1.9,0.4,3,1.4l3.3,2.9l-1,1.2l-3.3-2.9c-0.6-0.5-1.2-0.8-1.7-0.9c-0.6-0.1-1.1,0.1-1.6,0.7
				c-0.5,0.5-0.6,1.1-0.5,1.7C122.4,99.5,122.8,100,123.4,100.5z"/>
			<path class="st1" d="M114,107l-1.3,1c-0.3-0.6-0.4-1.3-0.3-2.1c0.1-0.4,0.2-0.9,0.5-1.3c0.3-0.5,0.6-0.8,1.1-1.2
				c1-0.8,2.1-1.1,3.2-0.9c1.1,0.2,2.1,0.7,2.9,1.8c0.8,1,1.1,2.1,1,3.2c-0.1,1.1-0.7,2.1-1.7,2.9c-0.8,0.6-1.6,0.9-2.4,0.9
				c-0.5,0-1-0.1-1.4-0.2c-0.4-0.2-0.8-0.4-1-0.6l1.3-1c0.3,0.2,0.7,0.3,1.2,0.3c0.5,0,0.9-0.2,1.4-0.6c0.7-0.5,1-1.1,1.1-1.8
				c0.1-0.7-0.2-1.4-0.7-2.1c-0.5-0.7-1.1-1.1-1.8-1.2c-0.7-0.1-1.4,0.1-2,0.6C114,105.2,113.7,106.1,114,107z"/>
			<path class="st1" d="M110.4,114.1l2.3-1.2l0.7,1.3l-6,3.2l-0.7-1.3l2.3-1.2l-3.2-6.1l1.4-0.7L110.4,114.1z"/>
			<path class="st1" d="M96.3,115.2c-0.3-0.7-0.3-1.4,0.1-2.1c0.3-0.7,1-1.2,2-1.5c1.1-0.4,2-0.4,2.7,0c0.7,0.4,1.1,0.9,1.3,1.6
				l-1.5,0.5c-0.1-0.3-0.4-0.6-0.7-0.8c-0.4-0.2-0.8-0.2-1.4,0c-0.6,0.2-0.9,0.4-1.1,0.8c-0.2,0.3-0.2,0.6,0,0.9
				c0.2,0.3,0.9,0.4,2,0.3c0.5,0,1-0.1,1.4-0.1c0.5,0,0.9,0.1,1.3,0.4c0.4,0.3,0.7,0.6,0.9,1.1c0.2,0.6,0.2,1.3-0.2,1.9
				c-0.3,0.7-1,1.1-1.8,1.4c-0.9,0.3-1.6,0.3-2.3,0c-0.7-0.3-1.1-0.7-1.4-1.4l1.5-0.5c0.1,0.3,0.3,0.5,0.6,0.6
				c0.3,0.1,0.7,0.1,1.1,0c0.3-0.1,0.6-0.3,0.8-0.5c0.2-0.2,0.3-0.5,0.1-0.8c-0.2-0.4-0.8-0.6-1.9-0.5c-0.4,0-0.7,0-1,0
				c-0.3,0-0.6,0-1-0.1c-0.4-0.1-0.7-0.2-1-0.4C96.7,115.8,96.5,115.5,96.3,115.2z"/>
		</g>
	</g>
</g>
</svg>
