<?xml version="1.0" encoding="utf-8"?>
<!-- Generator: Adobe Illustrator 24.1.1, SVG Export Plug-In . SVG Version: 6.00 Build 0)  -->
<svg version="1.1" id="Layer_1" xmlns="http://www.w3.org/2000/svg" xmlns:xlink="http://www.w3.org/1999/xlink" x="0px" y="0px"
	 viewBox="0 0 120 112.7" style="enable-background:new 0 0 120 112.7;" xml:space="preserve">
<style type="text/css">
	.st0{fill:#E4E5F2;}
	.st1{fill:#3A3A3A;}
</style>
<g>
	<path class="st0" d="M26.1,85.3c3.2,2.3,6.5,4.2,9.9,6.1c3.9,2.2,7.7,4.6,11.7,6.4c2.9,1.3,5.9,1.8,8.9,1.8c2.2,1,4.5,1.8,6.8,2.3
		c0,0,0,0,0,0c3.9,1.9,8.4,1.9,12.4,0.4c3.9-1.5,7.2-3.7,10.6-6c3-2,6.3-3.5,9.3-5.6c2.3-1.6,4.2-3.4,5.6-5.7
		c0.2-0.3,0.4-0.5,0.6-0.8c4.9-6.2,7.7-13.8,7.6-21.7c-0.1-6.4-1.9-12.3-4.8-17.5c-0.6-14.2-10.6-26.5-25-28.9
		c-1.6-0.3-3.3-0.4-4.9-0.4C63.4,9.9,51.9,15,42.6,22.7c-3.3,1.5-6.5,3.3-9.4,5.3C20.9,36.5,8.6,49.8,11.6,65.9
		C13.3,74.2,19.5,80.5,26.1,85.3z"/>
	<g>
		<g>
			<path class="st1" d="M16.8,23.1l-0.3,0.5l4.9,3.2l0.3-0.5l0.2,0.1l-1.5,2.4l-0.2-0.1l0.3-0.5l-4.6-3l3.7,5l-0.1,0.2l-6.4-1.1
				l4.7,3l0.5-0.8l0.2,0.1l-1,1.5l-0.2-0.1l0.4-0.6l-4.9-3.2l-0.4,0.6l-0.2-0.1l1.4-2.1l4.5,0.8l-2.7-3.7l1.2-1.9L16.8,23.1z"/>
			<path class="st1" d="M25.2,18.2c0.8,0.7,1.1,1.5,1.1,2.3c0,0.8-0.3,1.6-1,2.3c-0.7,0.7-1.4,1.1-2.2,1.2c-0.8,0.1-1.6-0.3-2.4-1
				c-0.8-0.7-1.2-1.5-1.2-2.3c0-0.9,0.3-1.6,1-2.4c0.7-0.7,1.4-1.1,2.3-1.1C23.7,17.2,24.5,17.5,25.2,18.2z M22,18.2
				c-0.6-0.2-1-0.1-1.3,0.2c-0.3,0.3-0.4,0.8-0.1,1.3c0.2,0.6,0.7,1.2,1.4,1.8c0.7,0.7,1.3,1.1,1.9,1.3c0.6,0.2,1,0.1,1.3-0.3
				c0.7-0.7,0.3-1.8-1.2-3.2C23.2,18.8,22.6,18.4,22,18.2z"/>
			<path class="st1" d="M31.9,12.8c0.6,0.8,0.9,1.6,0.8,2.4c-0.1,0.8-0.6,1.5-1.4,2.1c-0.8,0.6-1.6,0.9-2.4,0.8
				c-0.8-0.1-1.5-0.5-2.2-1.3c-0.6-0.8-0.9-1.6-0.8-2.5c0.1-0.8,0.5-1.6,1.3-2.2c0.8-0.6,1.6-0.9,2.4-0.8
				C30.5,11.5,31.2,12,31.9,12.8z M28.7,12.3c-0.5-0.3-1-0.3-1.3,0c-0.4,0.3-0.5,0.7-0.3,1.3c0.1,0.6,0.5,1.3,1.1,2
				c0.6,0.8,1.2,1.3,1.7,1.5s1,0.2,1.3,0c0.8-0.6,0.5-1.7-0.7-3.3C29.8,13.1,29.3,12.6,28.7,12.3z"/>
			<path class="st1" d="M35.7,13.8l0.8-0.4l0.1,0.2l-1.6,0.9L35,14.2l0.6-0.3l-2.6-4.7C32.6,9,32.3,9,32.1,9.1L32,8.9l1.8-1l4.6,1.7
				l-1.7-3.1L35.9,7l-0.1-0.2l1.7-0.9L37.6,6l-0.7,0.4l3,5.4l-0.2,0.1l-6.5-2.6L35.7,13.8z"/>
			<path class="st1" d="M46,9.2l-0.2,0.1L45,6.7l0.2-0.1c0.2,0.7,0.6,1.2,1.2,1.5c0.6,0.3,1.3,0.4,2,0.2c0.3-0.1,0.5-0.2,0.6-0.5
				c0.1-0.2,0.1-0.5,0.1-0.8c-0.1-0.3-0.4-0.5-0.9-0.6c-0.3,0-0.7-0.1-1.3-0.2c-0.6-0.1-1.1-0.2-1.3-0.3c-0.6-0.2-0.9-0.6-1-1.2
				c-0.1-0.6,0-1.1,0.3-1.5c0.3-0.4,0.7-0.7,1.1-0.8c0.5-0.1,0.9-0.2,1.3-0.2c0.4,0,0.7,0,0.7,0c0.1,0,0.2-0.2,0.1-0.4l0.2-0.1
				l0.6,2l-0.2,0.1c-0.2-0.5-0.5-0.9-1-1.1s-1-0.2-1.6-0.1c-0.3,0.1-0.5,0.2-0.6,0.4s-0.1,0.4-0.1,0.6c0.1,0.2,0.1,0.3,0.2,0.4
				c0.1,0.1,0.2,0.2,0.3,0.2c0.2,0,0.3,0.1,0.4,0.1c0.1,0,0.3,0,0.5,0.1c0.2,0,0.4,0,0.5,0.1c0.5,0.1,0.7,0.1,0.8,0.1
				c0.1,0,0.2,0,0.4,0.1c0.2,0,0.3,0.1,0.4,0.1c0.1,0,0.2,0.1,0.3,0.1c0.1,0.1,0.2,0.1,0.3,0.2c0.1,0.1,0.2,0.2,0.2,0.3
				c0.2,0.2,0.3,0.5,0.3,0.8c0.1,0.6,0,1.1-0.3,1.5c-0.3,0.4-0.8,0.7-1.4,0.9c-0.6,0.2-1.2,0.2-1.9,0.1c-0.2,0-0.4-0.1-0.5,0
				C46,8.7,45.9,8.9,46,9.2z"/>
			<path class="st1" d="M57.9,3.8c0.3,1.9-0.4,3-2,3.2c-0.9,0.1-1.6,0-2.2-0.4c-0.6-0.4-0.9-1.1-1.1-2l-0.5-3.4l-0.6,0.1l0-0.2
				l2.9-0.4l0,0.2L54,1l0.5,3.5c0.2,1.6,0.8,2.3,1.9,2.1c0.4-0.1,0.8-0.3,1.1-0.8c0.3-0.5,0.4-1.1,0.3-1.8l-0.5-3.5l-0.9,0.1l0-0.2
				L58,0.2l0,0.2l-0.6,0.1L57.9,3.8z"/>
			<path class="st1" d="M68.8,0.5l-0.6,0L68,6.4l0.6,0l0,0.2l-2.8-0.1l0-0.2l0.6,0l0.2-5.5L64,6.6l-0.3,0l-2.3-6l-0.2,5.6l0.9,0
				l0,0.2l-1.8-0.1l0-0.2l0.7,0l0.2-5.9l-0.7,0l0-0.2l2.5,0.1l1.6,4.3l1.8-4.2l2.3,0.1L68.8,0.5z"/>
			<path class="st1" d="M79.6,2.8L79,2.6l-1.3,5.7l0.6,0.1l-0.1,0.2l-2.8-0.6l0.1-0.2L76,8l1.2-5.3l-3.5,5.1l-0.3-0.1l-1.1-6.4
				l-1.3,5.5L72,7L72,7.3l-1.8-0.4l0.1-0.2l0.7,0.2l1.3-5.7l-0.7-0.2l0.1-0.2l2.5,0.6l0.8,4.5L77.4,2l2.2,0.5L79.6,2.8z"/>
			<path class="st1" d="M83.1,10.5c1,0.4,1.8,0.1,2.3-1.1l0.2,0.1l-0.8,2l-4.9-2L80,9.2l0.5,0.2L82.8,4l-0.5-0.2l0.1-0.2l4.8,2
				l-0.7,1.8l-0.2-0.1c0.3-0.6,0.3-1.1,0.2-1.4c-0.2-0.3-0.5-0.6-1.1-0.8l-0.9-0.4l-1,2.5l0.4,0.2c0.5,0.2,0.8,0.3,1,0.2
				s0.4-0.3,0.5-0.7l0.2,0.1L84.6,9l-0.2-0.1c0.2-0.4,0.2-0.7,0.1-0.8c-0.1-0.2-0.4-0.4-0.9-0.6l-0.4-0.2L82.1,10L83.1,10.5z"/>
			<path class="st1" d="M92.1,15.8l-0.4-0.3c-0.8-0.5-1.3-1-1.4-1.5c-0.1-0.4,0-0.9,0.1-1.4c0.1-0.2,0.1-0.4,0.2-0.6
				c0.1-0.4,0-0.7-0.3-0.9l-0.4-0.3l-1.4,2.3l0.5,0.3l-0.1,0.2l-2.4-1.5l0.1-0.2l0.5,0.3l3.1-5L89.6,7l0.1-0.2l2.5,1.5
				c1.6,1,2.2,2,1.6,2.9c-0.2,0.4-0.6,0.6-1,0.7c-0.4,0.1-0.8,0-1.3-0.3l0,0.1c0.6,0.4,0.8,1.1,0.6,2.1c-0.1,0.5-0.2,0.9-0.2,1.2
				c0,0.3,0.1,0.5,0.3,0.6L92.1,15.8z M91.6,8.2L90,10.7c0.6,0.4,1.1,0.6,1.5,0.5c0.3-0.1,0.6-0.3,0.9-0.7c0.3-0.4,0.4-0.8,0.3-1.2
				C92.6,8.9,92.2,8.6,91.6,8.2z"/>
			<path class="st1" d="M96.3,19l0.2-0.2l0.4,0.4l4.1-4.2l-0.4-0.4l0.2-0.2l2,2c0.7,0.7,1.1,1.2,1.2,1.8c0.1,0.5,0,0.9-0.4,1.3
				c-0.3,0.3-0.6,0.4-1,0.4c-0.4,0-0.7-0.2-1-0.5l0,0c0.4,0.4,0.6,0.8,0.7,1.3c0.1,0.5-0.1,0.9-0.5,1.3c-0.4,0.4-0.8,0.5-1.3,0.4
				c-0.5-0.1-1-0.4-1.6-1L96.3,19z M98.1,20.4l0.5,0.4c0.3,0.3,0.7,0.5,1,0.5c0.4,0,0.7-0.1,1-0.4c0.4-0.4,0.6-0.9,0.6-1.2
				c-0.1-0.4-0.3-0.8-0.7-1.1l-0.3-0.3L98.1,20.4z M100.3,18.1l0.2,0.2c0.6,0.6,1.3,0.6,1.9,0c0.6-0.6,0.6-1.3,0-1.9l-0.2-0.2
				L100.3,18.1z"/>
			<path class="st1" d="M103.9,27.2c0.7,0.9,1.5,1,2.6,0.2l0.1,0.2l-1.7,1.3l-3.2-4.2l0.2-0.1l0.3,0.5l4.7-3.5l-0.3-0.5l0.2-0.1
				l3.1,4.2l-1.5,1.2l-0.1-0.2c0.5-0.4,0.8-0.8,0.8-1.1c0-0.4-0.1-0.8-0.5-1.2l-0.6-0.8l-2.2,1.6l0.3,0.4c0.3,0.4,0.6,0.7,0.8,0.7
				c0.2,0,0.5-0.1,0.8-0.3l0.1,0.2l-1.8,1.4l-0.1-0.2c0.3-0.3,0.5-0.5,0.5-0.7s-0.1-0.5-0.5-0.9l-0.3-0.4l-2.3,1.8L103.9,27.2z"/>
			<path class="st1" d="M109.4,36.2l-0.2,0.1l-1.4-2.6l0.2-0.1l0.3,0.6l1-1.4l-1.1-2l-1.7,0.2l0.4,0.8l-0.2,0.1l-0.9-1.7L106,30
				l0.4,0.7l6.7-0.7l0.1,0.2l-4.1,5.5L109.4,36.2z M108.5,30.8l1,1.8l1.5-2.1L108.5,30.8z"/>
			<path class="st1" d="M114.3,42.3c-1.8,0.6-3,0.2-3.6-1.4c-0.3-0.9-0.3-1.6,0-2.2c0.3-0.6,0.9-1.1,1.7-1.4l3.3-1.1l-0.2-0.5
				l0.2-0.1l1,2.8l-0.2,0.1l-0.2-0.5l-3.4,1.2c-1.5,0.5-2.1,1.3-1.7,2.3c0.1,0.4,0.5,0.7,1,0.9c0.5,0.2,1.1,0.2,1.8-0.1l3.4-1.2
				l-0.3-0.8l0.2-0.1l0.6,1.6l-0.2,0.1l-0.2-0.5L114.3,42.3z"/>
			<path class="st1" d="M117.6,50c0.7-0.1,1.1-0.3,1.3-0.6c0.2-0.3,0.2-0.7,0.1-1.3l-0.1-0.3l-5.8,1.1l0.1,0.8l-0.2,0l-0.6-3.2
				l0.2,0l0.1,0.8l5.8-1.1l-0.1-0.3c-0.1-0.6-0.3-1-0.6-1.2c-0.3-0.2-0.7-0.2-1.4-0.1l0-0.2l1.9-0.4l1.1,5.9l-1.9,0.4L117.6,50z"/>
			<path class="st1" d="M113.6,57.2l-0.1-2.6l0.2,0l0,0.5l2.4-0.1l3.4-2.1l0-0.6l0.2,0l0.1,3.2l-0.2,0l0-0.6l-2.8,1.7l2.9,1.4l0-0.9
				l0.2,0l0.1,2l-0.2,0l0-0.8l-3.2-1.5l-2.7,0.1l0,0.5L113.6,57.2z"/>
			<path class="st1" d="M112.9,67.2l-0.2,0l0.5-2.8l0.2,0l-0.1,0.6l5.8,1.1l0.1-0.6l0.2,0l-0.4,2.2c-0.3,2.2-1.2,3.1-2.7,2.9
				c-0.7-0.1-1.1-0.5-1.4-1.1c-0.2-0.6-0.2-1.5,0-2.5l-1.9-0.4L112.9,67.2z M118.7,67.8l-3.6-0.7c-0.1,0.6-0.1,1,0.2,1.3
				c0.2,0.3,0.7,0.5,1.3,0.6c0.7,0.1,1.2,0.1,1.5-0.1C118.4,68.8,118.6,68.4,118.7,67.8z"/>
			<path class="st1" d="M109.3,77.9l0.2-0.5c0.3-0.9,0.7-1.4,1.2-1.6c0.4-0.2,0.9-0.2,1.4-0.1c0.2,0,0.4,0.1,0.6,0.1
				c0.4,0,0.7-0.1,0.8-0.5l0.2-0.5l-2.6-0.9l-0.2,0.5l-0.2-0.1l1-2.7l0.2,0.1l-0.2,0.5l5.5,2l0.2-0.5l0.2,0.1l-1,2.8
				c-0.6,1.8-1.5,2.5-2.6,2.1c-0.4-0.1-0.7-0.4-0.9-0.8c-0.2-0.4-0.1-0.8,0-1.3l-0.1,0c-0.3,0.7-0.9,1-1.9,1c-0.5,0-1,0-1.2,0.1
				c-0.3,0.1-0.4,0.2-0.5,0.4L109.3,77.9z M116.7,75.8l-2.7-1c-0.3,0.7-0.3,1.2-0.2,1.5c0.1,0.3,0.4,0.6,0.9,0.7
				c0.5,0.2,0.9,0.2,1.2,0C116.1,76.9,116.4,76.5,116.7,75.8z"/>
			<path class="st1" d="M108.4,86.4c-0.9-0.5-1.5-1.2-1.7-2c-0.2-0.8-0.1-1.6,0.4-2.5c0.5-0.9,1.1-1.4,1.9-1.7
				c0.8-0.3,1.6-0.1,2.5,0.4c0.9,0.5,1.5,1.2,1.7,2c0.2,0.8,0.1,1.7-0.4,2.5c-0.5,0.9-1.1,1.4-1.9,1.7
				C110.2,87.1,109.3,86.9,108.4,86.4z M111.5,85.6c0.6,0,1-0.2,1.2-0.5c0.2-0.4,0.2-0.8-0.2-1.3c-0.3-0.5-0.9-1-1.8-1.4
				c-0.9-0.5-1.6-0.7-2.2-0.8c-0.6,0-1,0.2-1.2,0.6c-0.5,0.9,0.2,1.8,2,2.8C110.2,85.3,110.9,85.6,111.5,85.6z"/>
			<path class="st1" d="M103,88.6l1.7-2.2l0.2,0.1l-0.3,0.4l4.6,3.6l0.3-0.4l0.2,0.1l-1.7,2.2c-0.3,0.4-0.7,0.8-1.1,1
				c-0.4,0.2-0.8,0.4-1.2,0.4c-0.8,0.1-1.6-0.2-2.2-0.6c-0.8-0.7-1.3-1.4-1.4-2.1C101.9,90.4,102.2,89.5,103,88.6z M103.5,88.3
				c-0.5,0.6-0.7,1.2-0.6,1.8c0.1,0.6,0.6,1.1,1.4,1.8c0.8,0.6,1.5,0.9,2.2,0.9c0.7,0,1.2-0.3,1.7-0.9L103.5,88.3z"/>
			<path class="st1" d="M97.4,98.5c-1.3-1.4-1.4-2.7-0.2-3.8c0.7-0.6,1.3-0.9,2-0.9c0.7,0,1.4,0.3,2,1l2.4,2.5l0.4-0.4l0.2,0.2
				l-2.1,2l-0.2-0.2l0.4-0.4l-2.4-2.6c-1.1-1.2-2-1.4-2.8-0.6c-0.3,0.3-0.5,0.7-0.4,1.3c0,0.5,0.3,1.1,0.8,1.6l2.4,2.6l0.7-0.6
				l0.2,0.2l-1.3,1.2l-0.2-0.2l0.4-0.4L97.4,98.5z"/>
			<path class="st1" d="M91.4,104.1l0.2-0.1c0.3,0.5,0.8,0.9,1.4,1.1c0.6,0.2,1.2,0.1,1.8-0.3c0.3-0.2,0.5-0.6,0.4-1.1
				c0-0.5-0.4-1.3-1-2.2c-0.6-0.9-1.2-1.5-1.7-1.8c-0.5-0.2-0.9-0.2-1.4,0.1c-0.5,0.3-0.7,0.7-0.9,1.2c-0.1,0.5,0,1,0.2,1.6
				l-0.2,0.1c-0.3-0.7-0.4-1.3-0.3-1.8c0.1-0.5,0.5-1,0.9-1.3c0.9-0.6,1.8-0.9,2.6-0.8c0.8,0.1,1.5,0.6,2.2,1.6
				c0.6,1,0.9,1.8,0.7,2.6c-0.2,0.8-0.7,1.4-1.5,2c-0.4,0.3-0.9,0.5-1.5,0.5c-0.2,0-0.3,0-0.4,0.1c-0.1,0.1-0.1,0.1-0.1,0.3
				c0,0.1,0,0.2,0.1,0.3l-0.2,0.1L91.4,104.1z"/>
			<path class="st1" d="M84.6,108.3c0.3,0.6,0.6,1,0.9,1.1c0.3,0.1,0.7,0,1.3-0.2L87,109l-2.6-5.3l-0.7,0.3l-0.1-0.2l2.9-1.4
				l0.1,0.2L86,103l2.6,5.3l0.3-0.1c0.5-0.3,0.9-0.6,1-0.9c0.1-0.3,0-0.8-0.3-1.4l0.2-0.1l0.8,1.7l-5.4,2.6l-0.8-1.7L84.6,108.3z"/>
			<path class="st1" d="M80.3,105.3l0.2-0.1l0.8,2.5l-0.2,0.1c-0.2-0.7-0.6-1.2-1.3-1.5c-0.6-0.3-1.3-0.4-2-0.1
				c-0.3,0.1-0.5,0.3-0.6,0.5c-0.1,0.2-0.1,0.5,0,0.8c0.1,0.3,0.4,0.5,0.9,0.6c0.3,0,0.7,0.1,1.3,0.2c0.6,0.1,1.1,0.2,1.4,0.3
				c0.6,0.2,0.9,0.6,1,1.2c0.1,0.6,0.1,1.1-0.2,1.5c-0.3,0.4-0.6,0.7-1.1,0.9c-0.5,0.2-0.9,0.2-1.3,0.2c-0.4,0-0.6,0-0.7,0
				c-0.1,0-0.2,0.2-0.1,0.4l-0.2,0.1l-0.6-2l0.2-0.1c0.2,0.5,0.5,0.9,1,1.1c0.5,0.2,1,0.2,1.6,0c0.3-0.1,0.4-0.2,0.5-0.4
				c0.1-0.2,0.1-0.4,0.1-0.6c-0.1-0.2-0.1-0.3-0.2-0.4c-0.1-0.1-0.2-0.1-0.4-0.2c-0.2,0-0.3-0.1-0.4-0.1c-0.1,0-0.3,0-0.5-0.1
				s-0.4,0-0.5,0c-0.5-0.1-0.7-0.1-0.8-0.1c-0.1,0-0.2,0-0.4-0.1c-0.2,0-0.3-0.1-0.4-0.1c-0.1,0-0.2-0.1-0.3-0.1
				c-0.1-0.1-0.2-0.1-0.3-0.2c-0.1-0.1-0.2-0.2-0.2-0.3c-0.2-0.2-0.3-0.5-0.4-0.8c-0.1-0.6-0.1-1.1,0.2-1.5c0.3-0.4,0.7-0.7,1.4-0.9
				c0.6-0.2,1.2-0.2,1.9-0.1c0.2,0,0.4,0,0.5,0C80.3,105.7,80.4,105.6,80.3,105.3z"/>
		</g>
		<g>
			<g>
				<path class="st1" d="M72.7,48.5c-12.2,0.6-24.9,1.4-34.9,9.2c-5,3.9-9.7,8.6-13.9,13.3c-4.1,4.6-6.8,9.6-8.5,15.5
					c-2.1,7.5-3.5,15.2-4.4,23c-0.1,0.5,0.7,0.5,0.8,0c0.8-6.6,1.9-13.2,3.6-19.7c0.8-3.2,1.6-6.4,3-9.4c1.3-2.8,3.1-5.3,5.1-7.7
					c3.8-4.5,8.1-8.7,12.5-12.6c4.8-4.2,10.3-7,16.5-8.6c6.6-1.6,13.4-2,20.2-2.3C73.1,49.2,73.1,48.4,72.7,48.5L72.7,48.5z"/>
			</g>
			<g>
				<path class="st1" d="M72.4,49.1c2.4-0.6,4.9-1.1,7.4-1c2.8,0.1,5.1,1.3,7.4,2.8c3.8,2.4,7.9,4,12.1,5.6c0-0.1,0.1-0.2,0.1-0.4
					c-2.3-0.5-4.6-1-6.9-1.2c-2.6-0.2-5.2-0.1-7.7-0.7c-4.1-1-7-4.3-11.1-5.3c-0.2-0.1-0.3,0.3-0.1,0.4c4.1,1,7,4.4,11.1,5.3
					c2.1,0.5,4.3,0.5,6.4,0.6c2.8,0.1,5.5,0.7,8.2,1.3c0.2,0.1,0.3-0.3,0.1-0.4c-2.6-1-5.1-1.9-7.6-3.1c-2.3-1.1-4.4-2.5-6.6-3.8
					c-4.1-2.3-8.5-1.5-12.9-0.5C72.1,48.8,72.2,49.2,72.4,49.1L72.4,49.1z"/>
			</g>
			<g>
				<path class="st1" d="M66.8,49.2c8.1,0.6,11.1,11,19.4,11.4c0-0.1,0-0.3,0-0.4c-4,0.5-9.4-0.5-12.7-3.1c-2.8-2.2-4.7-5.2-7.1-7.7
					c-0.2-0.2-0.4,0.1-0.3,0.3c2.7,2.7,4.7,6.1,7.8,8.3c1.6,1.1,3.4,1.7,5.4,2.1c2.2,0.4,4.6,0.9,6.9,0.6c0.2,0,0.2-0.4,0-0.4
					c-8.2-0.4-11.2-10.8-19.4-11.4C66.5,48.8,66.5,49.2,66.8,49.2L66.8,49.2z"/>
			</g>
			<g>
				<path class="st1" d="M47.1,52.7c1.4-2.5,4.2-3.4,6.6-4.9c2-1.2,3.8-2.7,5.3-4.5c1.4-1.6,2.4-3.5,3-5.6c0.9-3,0.6-6.8,3.8-8.4
					c0.2-0.1,0-0.4-0.2-0.3c-5,2.3-6.4,7.9-9.4,12c-3,4.1-9.6,6.3-9.5,12.1c0,0.2,0.4,0.2,0.4,0c0-5.7,6.6-7.9,9.5-11.9
					c3-4.1,4.3-9.6,9.2-11.9c-0.1-0.1-0.1-0.2-0.2-0.3c-2.2,1-2.9,3.3-3.4,5.5c-0.6,3.2-1.5,6-3.6,8.5c-1.8,2.2-4.1,3.9-6.6,5.2
					c-2,1.1-4.1,2.1-5.3,4.2C46.7,52.7,47,52.9,47.1,52.7L47.1,52.7z"/>
			</g>
			<g>
				<path class="st1" d="M55.2,51.2c2.3-1.9,4.8-3.5,7.6-4.6c2.2-0.8,4.7-1,6.7-2.3c4-2.7,4.9-8,8.4-11.3c0.2-0.2,0-0.4-0.2-0.3
					c-2.2,0.9-4.2,2.2-5.8,3.9c-1.9,1.9-3.1,4.1-5.6,5.4c-2,1-4.1,1.8-5.9,3.2c-2.1,1.6-3.9,3.5-5.7,5.5c-0.2,0.2,0.1,0.4,0.3,0.3
					c1.6-1.8,3.3-3.6,5.2-5.1c2.1-1.7,4.5-2.5,6.8-3.8c2-1.1,3.1-2.9,4.5-4.5c0.9-1,2-2,3.2-2.8c0.5-0.3,1-0.7,1.6-1
					c0.4-0.2,0.7-0.4,1.1-0.5c-0.1-0.2-0.2-0.2-0.3,0.1c-3.1,3.7-4.5,9.8-9.5,11.5C65.3,45.5,63,46,60.9,47c-2.2,1-4.2,2.4-6,3.9
					C54.7,51.1,55,51.3,55.2,51.2L55.2,51.2z"/>
			</g>
			<g>
				<path class="st1" d="M35.9,59.9c2.7-1.7,5.4-2.3,8.5-2.4c2.3-0.1,4.3-0.5,6.5-1.4c2.9-1.3,5.6-2.5,8.9-2.6c0.9,0,8,0.9,8,1
					c-0.1,0.2-3,0.3-3.4,0.3c-1.3,0.2-2.7,0.5-4,0.8c-2.4,0.7-4.7,1.6-7,2.7c-1.3,0.6-2.6,1.4-4,1.7c-1.6,0.4-3.3,0.2-4.9,0.2
					c-3-0.1-6-0.3-9-0.4c-0.2,0-0.2,0.4,0,0.4c2.9,0.1,5.8,0.3,8.7,0.4c2.5,0.1,4.8,0.2,7.2-0.8c2.6-1.1,5.1-2.5,7.8-3.4
					c3-0.9,6.2-1.4,9.3-1.5c0.2,0,0.3-0.3,0.1-0.4c-5.5-1.6-10.8-1.8-16.1,0.5c-1.4,0.6-2.8,1.3-4.4,1.7c-1.8,0.5-3.6,0.3-5.5,0.5
					c-2.5,0.2-4.8,1-6.9,2.4C35.5,59.7,35.7,60.1,35.9,59.9L35.9,59.9z"/>
			</g>
			<g>
				<path class="st1" d="M25.4,69.8c0.8-7.1,6-12.2,10.1-17.6c1.8-2.3,3.2-4.8,4.3-7.5c1.2-2.9,2.2-5.5,4.2-8
					c0.3-0.2,0.5-0.4,0.6-0.7c-0.2,0.4-0.5,0.7-0.7,1.1c-0.4,0.7-0.8,1.5-1.2,2.3c-0.5,1.2-1,2.4-1.3,3.7c-0.9,3.3-0.9,6.8-2.6,9.8
					c-1.7,3-4.1,5.8-6.2,8.6c-2.2,2.8-4.5,5.9-7.4,8C24.9,69.6,25.1,69.9,25.4,69.8c2.5-1.9,4.6-4.6,6.6-7.1c2.1-2.6,4.2-5.3,6.1-8
					c1.9-2.8,2.6-5.7,3.2-9.1c0.7-3.6,1.9-7,4-10c0.1-0.2-0.1-0.4-0.3-0.3c-2.2,1.6-3.4,3.9-4.4,6.4c-1.5,3.5-2.9,6.9-5.2,10
					c-4.2,5.6-9.6,10.8-10.3,18.1C25,70,25.3,70,25.4,69.8L25.4,69.8z"/>
			</g>
			<g>
				<path class="st1" d="M24.4,71c3.3-4.3,9.6-4.5,14.6-4.9c2.4-0.2,4.9,0,7.3,0.2c2.3,0.2,5.3,0.9,7.6,0.4c0.9-0.2-0.1-0.1-0.4-0.1
					c-0.7,0.1-1.5,0.4-2.1,0.5c-1.2,0.3-2.3,0.6-3.5,0.8c-2.6,0.6-5.2,1-7.8,1.4c-2.6,0.4-5.2,0.6-7.8,1c-2.3,0.4-5.4,2.2-7.6,0.8
					c-0.2-0.1-0.4,0.2-0.2,0.3c1.5,1,3.1,0.5,4.8,0c2.9-0.9,5.8-1.1,8.8-1.5c5.7-0.8,11.4-1.9,17-3.4c0.2-0.1,0.2-0.4-0.1-0.4
					c-5.9,0.5-11.8-0.9-17.7-0.3c-4.7,0.5-10,0.9-13.1,4.9C23.9,70.9,24.2,71.2,24.4,71L24.4,71z"/>
			</g>
			<g>
				<path class="st1" d="M27,64.3c0.7-1.9,0.8-3.9,1-5.9c0.2-2.3,0.9-4.5,1.6-6.7c1.3-3.7,2.7-7.4,1.9-11.4c0-0.2-0.4-0.2-0.4,0.1
					c0.2,2.1-1,3.9-1.8,5.7c-0.7,1.4-1.4,2.9-2,4.3c-1.2,2.8-2.4,5.6-3.2,8.6c-0.9,2.9-1.5,5.9-1.7,8.9c-0.1,1.4-0.1,3.3,1.5,3.9
					c0.2,0.1,0.3-0.3,0.1-0.4c-2.4-0.8-1-6.2-0.7-7.8c0.4-2.3,1.1-4.6,1.8-6.8c1.6-4.6,3.8-8.8,5.7-13.2c0.3-0.6,0.6-1.4,0.6-2
					c0-0.2,0.1-0.9-0.3-0.5c0,0,0.1,1.9,0.1,2.2c-0.1,2.5-1,5-1.8,7.3c-0.8,2.1-1.5,4.1-1.8,6.3c-0.4,2.4-0.2,4.8-1.1,7.2
					C26.5,64.4,26.9,64.5,27,64.3L27,64.3z"/>
			</g>
			<g>
				<path class="st1" d="M16.9,83.9c0.7-2.1,2.8-1.9,4.4-2.2c1.1-0.2,2.1-0.6,3.1-1.2c2.4-1.4,4.6-2.8,7.3-3.7
					c2.6-0.8,5.2-0.4,7.9-0.8c1.3-0.2,2.6-0.6,3.8-1c0.6-0.2,1.3-0.5,1.9-0.7c0.2-0.1,1.4-0.6,1.3-0.6c-0.2,0-1.6,1.2-1.8,1.4
					c-0.7,0.4-1.4,0.7-2.1,1c-1.1,0.4-2.3,0.7-3.5,1c-2.5,0.6-5,1-7.4,2c-3.9,1.7-9.5,8.4-13.9,4.1c-0.2-0.2-0.4,0.1-0.3,0.3
					c4.1,4,9.2-1,12.7-3.1c5.3-3.2,12.4-2.1,17-6.8c0.1-0.1,0-0.4-0.2-0.3c-3,1.2-6.2,2.5-9.5,2.6c-3,0.1-5.3,0.2-8.1,1.4
					c-2.7,1.1-5,3.4-7.9,4c-2,0.4-4.2,0.3-5,2.5C16.5,84,16.8,84.1,16.9,83.9L16.9,83.9z"/>
			</g>
			<g>
				<path class="st1" d="M18.9,78.3c-1.1-2.4,0.6-5.6,1.1-8c0.4-2.1,0.7-4.3,0.8-6.4c0.2-4.6-0.2-9.1-1.4-13.5
					c-0.1-0.2-0.4-0.2-0.4,0.1c-0.1,6-2.7,11.6-3.7,17.5c-0.4,2.6-0.8,5.6-0.5,8.3c0.2,1.9,2.2,2.4,3.7,3.2c0.2,0.1,0.4-0.2,0.2-0.3
					c-1.1-0.6-2.6-1.2-3.2-2.3c-0.6-1.1-0.3-2.8-0.3-4.1c0.1-2.7,0.5-5.3,1.1-8c0.6-2.4,1.4-4.7,1.9-7.1c0.3-1.2,0.6-2.4,0.7-3.6
					c0.1-0.9-0.1-2.3,0.3-3c-0.3,0.5,0.2,1.9,0.4,2.7c0.3,1.5,0.5,3.1,0.6,4.7c0.2,2.5,0.1,5-0.1,7.5c-0.3,2.6-0.8,5.1-1.5,7.6
					c-0.5,1.7-1,3.3-0.2,5C18.7,78.7,19,78.5,18.9,78.3L18.9,78.3z"/>
			</g>
			<g>
				<path class="st1" d="M13,99.4c0.9-2.9,4.5-3,6.2-5.2c1.4-1.8,2.1-4.1,3.5-5.9c1.6-1.9,3.5-3.6,5.6-4.9c1.2-0.7,2.4-1.3,3.7-1.8
					c0.2-0.1,1.6-0.4,1.6-0.5c0-0.6-1.1,0.3-1.2,0.4c-4.4,2.8-6,7.1-8.4,11.4c-1.4,2.4-3.2,4.5-5.9,5.4c-1.9,0.6-3.9,0.6-5.5,1.9
					c-0.2,0.2,0.1,0.4,0.3,0.3c2-1.6,4.7-1.3,6.9-2.4c1.7-1,3.1-2.5,4.1-4.2c1.4-2.3,2.3-4.8,3.8-7c1.6-2.5,3.9-4.5,6.5-5.8
					c0.2-0.1,0.1-0.4-0.1-0.3c-4.7,1.2-9,3.9-12,7.8c-1.7,2.2-2.5,5.5-4.9,6.9c-1.9,1.1-4,1.7-4.7,4C12.5,99.5,12.9,99.6,13,99.4
					L13,99.4z"/>
			</g>
			<g>
				<path class="st1" d="M13.9,93.6c-0.2-4-2.6-7.8-3.8-11.5C8.8,78,7.8,73.8,6.7,69.7c-0.1-0.2-0.3-0.2-0.4,0.1
					c-0.6,4.8-1.1,9.8,0.5,14.4c1.4,3.9,4.1,7.2,6.8,10.3c0.2,0.2,0.4-0.1,0.3-0.3c-2.6-3.1-5.3-6.3-6.7-10.1
					c-1.5-4.1-1.3-9-0.7-13.3c0.1-0.5-0.1-0.4,0,0c0.2,0.5,0.3,1.1,0.4,1.6c0.3,1,0.5,2,0.8,2.9c0.5,2,1.1,3.9,1.6,5.9
					c0.6,1.9,1.2,3.9,2,5.8c0.9,2.2,1.9,4.3,2.1,6.7C13.6,93.8,13.9,93.8,13.9,93.6L13.9,93.6z"/>
			</g>
			<g>
				<path class="st1" d="M12.2,103.1c-0.1-1.4-0.8-2.4-1.6-3.5c-1.3-1.7-2.6-3.4-3.8-5.2c-2.4-3.2-4.5-6.5-6.4-10
					c-0.1-0.2-0.4-0.1-0.3,0.1c1.1,3.6,0.6,7.8,2.8,11c1,1.5,2.5,2.6,3.9,3.7c1.9,1.5,3.8,3,5.7,4.5c0.2,0.1,0.5-0.1,0.3-0.3
					c-2.8-2.2-6.1-4.3-8.6-7c-2.7-2.9-2.5-6.6-3.3-10.3c-0.1-0.7-0.7-1.7-0.2-0.5c0.3,0.8,0.8,1.6,1.2,2.3c0.9,1.6,2,3.1,3.1,4.6
					c1.2,1.6,2.4,3.2,3.6,4.9c1.2,1.6,3.1,3.5,3.3,5.6C11.9,103.3,12.2,103.3,12.2,103.1L12.2,103.1z"/>
			</g>
			<g>
				<path class="st1" d="M18.3,76.8c-0.8,0.2-1.5,0.4-2.3,0.4c-0.2,0-0.2,0.4,0,0.4c0.8-0.1,1.6-0.2,2.4-0.4
					C18.6,77.1,18.5,76.7,18.3,76.8L18.3,76.8z"/>
			</g>
			<g>
				<path class="st1" d="M18.3,75.3c-1.1,0.2-2.2,0.4-3.3,0.5c-0.2,0-0.1,0.4,0.1,0.4c1.1-0.2,2.2-0.4,3.3-0.5
					C18.7,75.6,18.6,75.3,18.3,75.3L18.3,75.3z"/>
			</g>
			<g>
				<path class="st1" d="M18.8,73.4c-1.2,0.3-2.4,0.5-3.7,0.5c-0.2,0-0.2,0.4,0,0.4c1.3,0,2.5-0.2,3.8-0.5
					C19.1,73.7,19,73.4,18.8,73.4L18.8,73.4z"/>
			</g>
			<g>
				<path class="st1" d="M19.4,72.1c-1.4,0.1-2.7,0.1-4.1-0.1c-0.2,0-0.3,0.3-0.1,0.4c1.4,0.2,2.8,0.3,4.2,0.1
					C19.6,72.5,19.6,72.1,19.4,72.1L19.4,72.1z"/>
			</g>
			<g>
				<path class="st1" d="M19.8,70.6c-1.4-0.3-2.8-0.4-4.3-0.3c-0.2,0-0.2,0.4,0,0.4c1.4-0.1,2.8,0,4.2,0.3
					C19.9,71,20,70.7,19.8,70.6L19.8,70.6z"/>
			</g>
			<g>
				<path class="st1" d="M20.1,68.9c-1.5,0-3-0.2-4.5-0.6c-0.2-0.1-0.3,0.3-0.1,0.4c1.5,0.4,3,0.6,4.6,0.6
					C20.3,69.3,20.3,68.9,20.1,68.9L20.1,68.9z"/>
			</g>
			<g>
				<path class="st1" d="M20.5,67.5c-1.6-0.3-3.2-0.5-4.8-0.7c-0.2,0-0.2,0.4,0,0.4c1.6,0.1,3.1,0.4,4.7,0.7
					C20.6,67.9,20.7,67.5,20.5,67.5L20.5,67.5z"/>
			</g>
			<g>
				<path class="st1" d="M20.5,65.8c-1.5,0-2.9-0.2-4.3-0.5c-0.2-0.1-0.3,0.3-0.1,0.4c1.5,0.4,2.9,0.6,4.4,0.6
					C20.7,66.2,20.7,65.8,20.5,65.8L20.5,65.8z"/>
			</g>
			<g>
				<path class="st1" d="M20.5,64.1c-1.4-0.1-2.8-0.2-4.2-0.3c-0.2,0-0.2,0.4,0,0.4c1.4,0.1,2.8,0.2,4.2,0.3
					C20.8,64.5,20.8,64.1,20.5,64.1L20.5,64.1z"/>
			</g>
			<g>
				<path class="st1" d="M20.6,62.8c-1.3-0.2-2.6-0.3-3.9-0.3c-0.2,0-0.2,0.4,0,0.4c1.3,0,2.5,0.1,3.8,0.3
					C20.8,63.2,20.9,62.9,20.6,62.8L20.6,62.8z"/>
			</g>
			<g>
				<path class="st1" d="M20.7,61.2c-1.1-0.1-2.2-0.2-3.4-0.4c-0.2,0-0.2,0.3,0,0.4c1.1,0.1,2.2,0.3,3.4,0.4
					C20.9,61.6,20.9,61.2,20.7,61.2L20.7,61.2z"/>
			</g>
			<g>
				<path class="st1" d="M20.6,59.9c-0.9-0.1-1.9-0.2-2.8-0.4c-0.2,0-0.3,0.3-0.1,0.4c1,0.2,1.9,0.3,2.9,0.4
					C20.8,60.3,20.8,59.9,20.6,59.9L20.6,59.9z"/>
			</g>
			<g>
				<path class="st1" d="M20.8,58.8c-0.9,0-1.7-0.2-2.5-0.4c-0.2-0.1-0.3,0.3-0.1,0.4c0.9,0.2,1.7,0.3,2.6,0.4
					C21,59.2,21,58.9,20.8,58.8L20.8,58.8z"/>
			</g>
			<g>
				<path class="st1" d="M20.3,57.7c-0.7,0-1.4-0.2-2-0.4c-0.2-0.1-0.3,0.3-0.1,0.4c0.7,0.3,1.4,0.4,2.1,0.4
					C20.6,58.1,20.6,57.7,20.3,57.7L20.3,57.7z"/>
			</g>
			<g>
				<path class="st1" d="M20.2,56.6c-0.5-0.1-1-0.2-1.4-0.3c-0.2,0-0.3,0.3-0.1,0.4c0.5,0.1,1,0.2,1.4,0.3
					C20.4,57,20.5,56.7,20.2,56.6L20.2,56.6z"/>
			</g>
			<g>
				<path class="st1" d="M20.2,55.7c-0.5,0-1-0.1-1.4-0.3c-0.2-0.1-0.4,0.2-0.2,0.3c0.5,0.2,1,0.4,1.6,0.4
					C20.5,56.1,20.5,55.7,20.2,55.7L20.2,55.7z"/>
			</g>
			<g>
				<path class="st1" d="M19.9,54.6c-0.2,0.1-0.4,0-0.5-0.2c-0.1-0.2-0.5,0-0.3,0.2c0.2,0.3,0.6,0.5,1,0.3
					C20.2,54.9,20.1,54.5,19.9,54.6L19.9,54.6z"/>
			</g>
			<g>
				<path class="st1" d="M20,53.5c-0.3,0-0.6-0.1-0.9-0.1c-0.2,0-0.2,0.3,0,0.4c0.3,0,0.6,0.1,0.9,0.1C20.2,54,20.2,53.6,20,53.5
					L20,53.5z"/>
			</g>
			<g>
				<path class="st1" d="M19.2,52.5c0,0,0,0.1,0,0.1c0,0.2,0.4,0.2,0.4,0c0,0,0-0.1,0-0.1C19.5,52.3,19.2,52.3,19.2,52.5L19.2,52.5z
					"/>
			</g>
			<g>
				<path class="st1" d="M66.2,55c0.1-0.2,0.3-0.4,0.4-0.6c0.1-0.2-0.2-0.4-0.3-0.2c-0.1,0.2-0.3,0.4-0.4,0.6
					C65.7,55,66.1,55.2,66.2,55L66.2,55z"/>
			</g>
			<g>
				<path class="st1" d="M64.9,55.2c0.2-0.4,0.4-0.7,0.7-1c0.2-0.2-0.1-0.4-0.3-0.3c-0.4,0.3-0.6,0.7-0.8,1.2
					C64.5,55.3,64.8,55.4,64.9,55.2L64.9,55.2z"/>
			</g>
			<g>
				<path class="st1" d="M63.8,55.4c0.3-0.4,0.6-0.9,0.8-1.4c0.1-0.2-0.3-0.3-0.4-0.1c-0.2,0.5-0.4,0.9-0.7,1.3
					C63.3,55.4,63.6,55.6,63.8,55.4L63.8,55.4z"/>
			</g>
			<g>
				<path class="st1" d="M62.5,55.5c0.3-0.5,0.6-1,0.8-1.5c0.1-0.2-0.2-0.4-0.3-0.2c-0.3,0.5-0.6,1-0.8,1.5
					C62.1,55.5,62.4,55.7,62.5,55.5L62.5,55.5z"/>
			</g>
			<g>
				<path class="st1" d="M61.3,56c0.6-0.8,1.2-1.6,1.7-2.5c0.1-0.2-0.2-0.4-0.3-0.2c-0.4,0.9-1,1.7-1.6,2.4
					C60.9,56,61.1,56.2,61.3,56L61.3,56z"/>
			</g>
			<g>
				<path class="st1" d="M59.9,56.2c0.6-0.8,1.3-1.6,1.6-2.6c0.1-0.2-0.3-0.3-0.4-0.1c-0.4,1-1,1.8-1.6,2.6
					C59.4,56.2,59.8,56.4,59.9,56.2L59.9,56.2z"/>
			</g>
			<g>
				<path class="st1" d="M58,56.8c0.6-1.1,1.1-2.3,1.7-3.4c0.1-0.2-0.2-0.4-0.3-0.2c-0.6,1.1-1.1,2.3-1.7,3.4
					C57.6,56.8,57.9,57,58,56.8L58,56.8z"/>
			</g>
			<g>
				<path class="st1" d="M56.4,57.2c0.7-1.1,1.3-2.3,1.9-3.5c0.1-0.2-0.2-0.4-0.3-0.2c-0.5,1.2-1.2,2.4-1.9,3.5
					C55.9,57.2,56.3,57.4,56.4,57.2L56.4,57.2z"/>
			</g>
			<g>
				<path class="st1" d="M55,58c0.5-1,1.1-1.9,1.5-2.9c0.2-0.5,0.2-0.7,0-1.2c-0.1-0.2-0.4-0.1-0.4,0.1c0,0.1,0.1,0.2,0.1,0.4
					c0,0.4-0.3,1-0.5,1.4c-0.4,0.7-0.8,1.4-1.2,2.1C54.6,58,54.9,58.2,55,58L55,58z"/>
			</g>
			<g>
				<path class="st1" d="M53.7,58.7c0.8-1.5,1.6-3.1,2.1-4.8c0.1-0.2-0.3-0.3-0.4-0.1c-0.5,1.6-1.2,3.2-2.1,4.7
					C53.3,58.8,53.6,59,53.7,58.7L53.7,58.7z"/>
			</g>
			<g>
				<path class="st1" d="M52,59.5c0.8-1.4,1.4-2.8,1.9-4.3c0.1-0.2-0.3-0.3-0.4-0.1c-0.5,1.5-1.1,2.9-1.9,4.2
					C51.6,59.5,51.9,59.7,52,59.5L52,59.5z"/>
			</g>
			<g>
				<path class="st1" d="M50.2,59.7c0.6-1.6,1.6-3,2.4-4.5c0.1-0.2-0.2-0.4-0.3-0.2c-0.8,1.5-1.8,3-2.4,4.5
					C49.7,59.8,50.1,59.9,50.2,59.7L50.2,59.7z"/>
			</g>
			<g>
				<path class="st1" d="M49,60c0.7-1.3,1.3-2.6,1.8-3.9c0.1-0.2-0.3-0.3-0.4-0.1c-0.5,1.3-1,2.6-1.8,3.8C48.5,60,48.9,60.2,49,60
					L49,60z"/>
			</g>
			<g>
				<path class="st1" d="M47.7,60.2c0.4-1.3,1.2-2.5,1.9-3.6c0.1-0.2-0.2-0.4-0.3-0.2c-0.7,1.2-1.5,2.4-1.9,3.7
					C47.3,60.3,47.6,60.4,47.7,60.2L47.7,60.2z"/>
			</g>
			<g>
				<path class="st1" d="M46.3,60.3c0.5-1.1,1.1-2.2,1.6-3.3c0.1-0.2-0.2-0.4-0.3-0.2c-0.5,1.1-1.1,2.2-1.6,3.3
					C45.8,60.3,46.2,60.5,46.3,60.3L46.3,60.3z"/>
			</g>
			<g>
				<path class="st1" d="M44.7,60.1c0,0-0.1,0-0.1-0.1c0,0.1,0.1,0.1,0.1,0.2c0-0.2,0.3-0.6,0.4-0.8c0.1-0.2,0.2-0.4,0.3-0.6
					c0.2-0.5,0.4-0.9,0.7-1.4c0.1-0.2-0.2-0.4-0.3-0.2c-0.3,0.5-0.5,1.1-0.8,1.7c-0.2,0.4-0.6,0.9-0.6,1.3c0,0.1,0.1,0.1,0.1,0.2
					c0,0,0.1,0,0.1,0.1C44.8,60.6,44.9,60.2,44.7,60.1L44.7,60.1z"/>
			</g>
			<g>
				<path class="st1" d="M43.4,60.5c0.3-0.6,0.4-1.1,0.6-1.7c0.2-0.5,0.6-1,0.5-1.6c0-0.2-0.4-0.1-0.4,0.1c0.1,0.4-0.4,1.1-0.5,1.5
					c-0.2,0.5-0.3,1-0.6,1.5C43,60.5,43.3,60.7,43.4,60.5L43.4,60.5z"/>
			</g>
			<g>
				<path class="st1" d="M41.9,60c0.4-0.8,1-1.6,1.4-2.4c0.1-0.2-0.2-0.4-0.3-0.2c-0.4,0.8-0.9,1.6-1.4,2.4
					C41.4,60.1,41.7,60.3,41.9,60L41.9,60z"/>
			</g>
			<g>
				<path class="st1" d="M40.5,60c0.4-0.8,0.7-1.5,1.1-2.3c0.1-0.2-0.2-0.4-0.3-0.2c-0.4,0.7-0.8,1.5-1.1,2.3
					C40.1,60,40.4,60.2,40.5,60L40.5,60z"/>
			</g>
			<g>
				<path class="st1" d="M38.8,60.4c0.6-0.8,1-1.7,1.3-2.6c0.1-0.2-0.3-0.3-0.4-0.1c-0.3,0.9-0.7,1.8-1.3,2.5
					C38.3,60.5,38.6,60.6,38.8,60.4L38.8,60.4z"/>
			</g>
			<g>
				<path class="st1" d="M37,60.1c0.5-0.4,0.8-1,1.1-1.5c0.1-0.2-0.2-0.4-0.3-0.2c-0.3,0.5-0.6,1-1.1,1.4C36.6,60,36.9,60.3,37,60.1
					L37,60.1z"/>
			</g>
		</g>
	</g>
</g>
</svg>
